<svg width="55" height="55" viewBox="0 0 55 55" fill="none" xmlns="http://www.w3.org/2000/svg">
<g clip-path="url(#clip0)">
<path d="M39.3921 12.0085C39.3921 5.41835 34.0001 0.0263672 27.4099 0.0263672C20.8197 0.0263672 15.4277 5.41835 15.4277 12.0085C15.4277 18.5987 20.8197 23.9907 27.4099 23.9907C34.0001 23.9907 39.3921 18.5987 39.3921 12.0085ZM34.5136 12.95L31.946 12.0941C31.5181 11.923 31.0046 12.1797 30.8334 12.6077C30.6622 13.0356 30.919 13.5491 31.3469 13.7203L33.3154 14.405V20.3961C31.8604 21.4231 30.0631 22.1078 28.1802 22.279V14.5762C28.1802 14.0626 27.8378 13.7203 27.3243 13.7203C26.8108 13.7203 26.4685 14.0626 26.4685 14.5762V22.1934C24.5855 22.0222 22.7882 21.3375 21.3332 20.3105V14.3194L23.3017 13.6347C23.7297 13.4635 23.9864 13.0356 23.8153 12.5221C23.6441 12.0941 23.2161 11.8374 22.7026 12.0085L20.135 12.8644C19.9638 13.0356 19.7071 13.3779 19.7071 13.7203V18.7699C18.0809 16.9726 17.1395 14.5762 17.1395 12.0085C17.1395 6.3598 21.7612 1.73811 27.4099 1.73811C33.0586 1.73811 37.6803 6.3598 37.6803 12.0085C37.6803 14.5762 36.7389 16.9726 35.1127 18.7699V13.7203C35.1127 13.3779 34.856 13.0356 34.5136 12.95Z" fill="black"/>
<path d="M27.4102 3.4502C25.0138 3.4502 23.1309 5.33311 23.1309 7.72954C23.1309 10.126 25.0138 12.8648 27.4102 12.8648C29.8067 12.8648 31.6896 10.126 31.6896 7.72954C31.6896 5.33311 29.8067 3.4502 27.4102 3.4502ZM27.4102 11.153C26.1264 11.153 24.8426 9.18452 24.8426 7.72954C24.8426 6.27457 25.9552 5.16193 27.4102 5.16193C28.8652 5.16193 29.9778 6.27457 29.9778 7.72954C29.9778 9.18452 28.694 11.153 27.4102 11.153Z" fill="black"/>
<path d="M29.9775 16.2875C29.9775 16.801 30.3199 17.1434 30.8334 17.1434H31.6893C32.2028 17.1434 32.5451 16.801 32.5451 16.2875C32.5451 15.774 32.2028 15.4316 31.6893 15.4316H30.8334C30.3199 15.4316 29.9775 15.774 29.9775 16.2875Z" fill="black"/>
<path d="M21.2478 24.0763L18.6802 24.9322C18.4235 25.0178 18.1667 25.2745 18.0811 25.5313L16.6261 31.2656L10.1215 27.671L5.75659 20.824L8.92331 21.3375L12.1756 27.7566C12.2612 27.9277 12.4324 28.0989 12.518 28.0989L14.2297 28.9548C14.3153 29.126 14.4009 29.126 14.572 29.126C14.9144 29.126 15.1712 28.9548 15.3423 28.6124C15.5135 28.1845 15.3423 27.671 15 27.4998L13.545 26.7295L10.2071 20.1393C10.1215 19.8826 9.86477 19.7114 9.608 19.7114L4.47279 18.8555L4.13044 18.342C4.04485 18.2564 3.95926 18.1708 3.87368 18.0852L1.30607 16.3735C1.04931 16.2023 0.621372 16.2023 0.364612 16.3735C0.107851 16.5447 -0.0633233 16.9726 0.0222637 17.315L4.30161 33.6621C4.3872 33.8332 4.47279 34.0044 4.55837 34.09L13.545 41.4505L11.1486 53.775C11.063 54.203 11.3197 54.7165 11.8333 54.8021C11.9189 54.8021 11.9189 54.8021 12.0044 54.8021C12.4324 54.8021 12.7747 54.5453 12.8603 54.1174L15.4279 41.2793C15.5135 40.937 15.3423 40.6802 15.1712 40.4234L5.92776 32.8918L2.24752 19.1123L2.76105 19.4546L8.66655 28.698C8.75214 28.7836 8.83772 28.9548 9.00889 28.9548L16.7117 33.2341C16.9685 33.4053 17.2252 33.4053 17.482 33.2341C17.7388 33.1486 17.9099 32.8918 17.9955 32.635L19.6217 26.216L20.6487 25.8737V48.811C20.6487 49.3245 20.9911 49.6668 21.5046 49.6668C22.0181 49.6668 22.3605 49.3245 22.3605 48.811V24.8466C22.3605 24.5898 22.1893 24.3331 22.0181 24.1619C21.7614 23.9907 21.5046 23.9907 21.2478 24.0763Z" fill="black"/>
<path d="M54.6264 16.6303C54.3696 16.4592 53.9417 16.4592 53.6849 16.6303L51.1173 18.3421C50.775 18.1709 50.6894 18.2565 50.6894 18.4277L50.347 18.8556L45.2118 19.7115C44.955 19.7971 44.6983 19.9682 44.6127 20.1394L41.2748 26.7296L39.8198 27.4999C39.3919 27.6711 39.2207 28.1846 39.4775 28.6125C39.6486 28.9549 39.9054 29.126 40.2478 29.126C40.3333 29.126 40.5045 29.126 40.5901 29.0404L42.3018 28.1846C42.473 28.099 42.6442 27.9278 42.6442 27.8422L45.8965 21.4232L49.0632 20.9097L44.6983 27.7566L38.1937 31.3513L36.8243 25.5314C36.7387 25.2746 36.5675 25.0179 36.2252 24.9323L33.6576 24.0764C33.4008 23.9908 33.144 23.9908 32.8873 24.162C32.7161 24.3332 32.5449 24.5899 32.5449 24.8467V48.811C32.5449 49.3246 32.8873 49.6669 33.4008 49.6669C33.9143 49.6669 34.2567 49.3246 34.2567 48.811V26.0449L35.2837 26.3872L36.9099 32.8063C36.9954 33.063 37.1666 33.3198 37.4234 33.4054C37.6801 33.491 37.9369 33.491 38.1937 33.4054L45.8965 29.126C45.9821 29.0404 46.1533 28.9549 46.2388 28.8693L52.1443 19.6259L52.6579 19.2835L49.0632 33.063L39.9054 40.5947C39.6486 40.7659 39.5631 41.1082 39.6486 41.4506L42.2163 54.2886C42.3018 54.7165 42.6442 54.9733 43.0721 54.9733C43.1577 54.9733 43.1577 54.9733 43.2433 54.9733C43.6712 54.8877 44.0136 54.4598 43.928 53.9463L41.446 41.6217L50.4326 34.2612C50.6038 34.1757 50.6894 34.0045 50.6894 33.8333L54.9687 17.5718C55.0543 17.2294 54.9687 16.8871 54.6264 16.6303Z" fill="black"/>
<path d="M21.4193 51.3789C20.9058 51.3789 20.5635 51.7213 20.5635 52.2348V53.9465C20.5635 54.46 20.9058 54.8024 21.4193 54.8024C21.9329 54.8024 22.2752 54.46 22.2752 53.9465V52.2348C22.2752 51.7213 21.9329 51.3789 21.4193 51.3789Z" fill="black"/>
<path d="M33.4008 51.3789C32.8873 51.3789 32.5449 51.7213 32.5449 52.2348V53.9465C32.5449 54.46 32.8873 54.8024 33.4008 54.8024C33.9143 54.8024 34.2567 54.46 34.2567 53.9465V52.2348C34.2567 51.7213 33.9143 51.3789 33.4008 51.3789Z" fill="black"/>
</g>
<defs>
<clipPath id="clip0">
<rect width="55" height="55" fill="white"/>
</clipPath>
</defs>
</svg>
