<svg width="55" height="55" viewBox="0 0 55 55" fill="none" xmlns="http://www.w3.org/2000/svg">
<g clip-path="url(#clip0)">
<path d="M36.0693 8.50781C36.0693 3.78125 32.2881 0 27.5615 0C22.835 0 19.0537 3.78125 19.0537 8.50781C19.0537 12.8047 22.5771 20.8828 27.5615 20.8828C32.5459 20.8828 36.0693 12.8047 36.0693 8.50781ZM27.5615 19.0781C24.0381 19.0781 20.7725 12.4609 20.7725 8.42188C20.7725 4.72656 23.7803 1.71875 27.5615 1.71875C31.3428 1.71875 34.3506 4.72656 34.3506 8.50781C34.3506 12.4609 31.085 19.0781 27.5615 19.0781Z" fill="black"/>
<path d="M3.5849 43.7425L13.5536 23.0315L19.999 21.3987C20.4286 21.3128 20.7724 20.7972 20.6005 20.3675C20.5146 19.9378 19.999 19.594 19.5693 19.7659L12.6943 21.4847C12.4365 21.5706 12.2646 21.7425 12.0927 21.9143L1.78021 43.3987C1.60833 43.6565 1.69427 44.0003 1.86615 44.2581L8.74115 54.5706C8.91302 54.8284 9.17084 54.9144 9.42865 54.9144C9.60052 54.9144 9.7724 54.8284 9.94427 54.7425C10.374 54.4847 10.4599 53.969 10.2021 53.5393L3.5849 43.7425Z" fill="black"/>
<path d="M53.2563 43.4848L50.3345 37.4692C50.1626 37.0395 49.647 36.8676 49.2173 37.0395C48.7876 37.2114 48.6157 37.727 48.7876 38.1567L51.4517 43.7426L44.8345 53.6254C44.5767 54.0551 44.6626 54.5708 45.0923 54.8286C45.2642 54.9145 45.436 55.0004 45.6079 55.0004C45.8657 55.0004 46.1235 54.8286 46.2954 54.6567L53.1704 44.3442C53.3423 44.0864 53.3423 43.7426 53.2563 43.4848Z" fill="black"/>
<path d="M46.2954 33.0004L47.1547 34.7192C47.3266 35.0629 47.5844 35.2348 47.9282 35.2348C48.0141 35.2348 48.186 35.2348 48.2719 35.1489C48.7016 34.977 48.8735 34.4614 48.7016 34.0317L47.8422 32.3129C47.6704 31.8832 47.1547 31.7114 46.725 31.8832C46.2954 32.0551 46.1235 32.5707 46.2954 33.0004Z" fill="black"/>
<path d="M34.4364 20.453C34.3505 20.8827 34.6083 21.3983 35.038 21.4842L41.4833 23.1171L44.7489 29.9061C44.9208 30.2499 45.1786 30.4217 45.5223 30.4217C45.6083 30.4217 45.7801 30.4217 45.8661 30.3358C46.2958 30.1639 46.4676 29.6483 46.2958 29.2186L42.9442 21.9999C42.8583 21.7421 42.6005 21.5702 42.3426 21.5702L35.4676 19.8514C35.038 19.7655 34.5223 20.0233 34.4364 20.453Z" fill="black"/>
<path d="M26.2724 25.9526C25.9287 25.6948 25.4131 25.7808 25.1553 26.1245L23.4365 28.7026C23.3506 28.8745 23.2646 29.0464 23.2646 29.2183V36.1792L11.6631 43.0542C11.2334 43.312 11.1474 43.8276 11.3193 44.2573C11.4912 44.5151 11.749 44.687 12.0928 44.687C12.2646 44.687 12.3506 44.687 12.5224 44.6011L24.5537 37.4683C24.8115 37.2964 24.9834 37.0386 24.9834 36.6948V29.4761L26.5303 27.1558C26.7881 26.7261 26.7021 26.2105 26.2724 25.9526Z" fill="black"/>
<path d="M43.4595 43.0552L31.8579 36.1802V29.2192C31.8579 29.0474 31.772 28.8755 31.686 28.7036L29.9673 26.1255C29.7095 25.6958 29.1938 25.6099 28.7642 25.8677C28.3345 26.1255 28.2485 26.6411 28.5063 27.0708L30.0532 29.3911V36.6958H30.1392C30.1392 37.0396 30.311 37.2974 30.5688 37.4692L42.6001 44.6021C42.772 44.688 42.8579 44.688 43.0298 44.688C43.2876 44.688 43.6314 44.5161 43.8032 44.2583C44.061 43.8286 43.8892 43.313 43.4595 43.0552Z" fill="black"/>
<path d="M24.3819 40.5627L15.3585 48.2971C15.0147 48.6408 14.9288 49.1564 15.2725 49.5002C15.4444 49.6721 15.7022 49.758 15.96 49.758C16.1319 49.758 16.3897 49.6721 16.5616 49.5861L25.585 41.8517C25.9288 41.508 26.0147 40.9924 25.671 40.6486C25.3272 40.3049 24.8116 40.3049 24.3819 40.5627Z" fill="black"/>
<path d="M13.3819 50.0158L12.3507 50.8752C12.0069 51.2189 11.921 51.7346 12.2647 52.0783C12.4366 52.2502 12.6944 52.3361 12.9522 52.3361C13.1241 52.3361 13.3819 52.2502 13.5538 52.1642L14.585 51.3049C14.9288 50.9611 15.0147 50.4455 14.671 50.1017C14.3272 49.758 13.7257 49.758 13.3819 50.0158Z" fill="black"/>
<path d="M43.5461 50.8752L30.6554 40.5627C30.3117 40.3049 29.7101 40.3049 29.4523 40.7345C29.1945 41.0783 29.1945 41.6799 29.6242 41.9377L42.5148 52.2502C42.6867 52.3361 42.8586 52.422 43.0304 52.422C43.2882 52.422 43.5461 52.3361 43.7179 52.0783C43.9757 51.7345 43.9757 51.133 43.5461 50.8752Z" fill="black"/>
</g>
<defs>
<clipPath id="clip0">
<rect width="55" height="55" fill="white"/>
</clipPath>
</defs>
</svg>
