<svg width="55" height="55" viewBox="0 0 55 55" fill="none" xmlns="http://www.w3.org/2000/svg">
<g clip-path="url(#clip0)">
<path d="M54.8535 9.77897C54.5956 9.34911 54.0797 9.26314 53.6499 9.52105L40.7541 18.1182C40.6681 18.2042 40.5822 18.2902 40.4962 18.3762L32.5868 30.4122L31.0393 30.6701L35.08 19.1499C35.2519 18.72 34.994 18.2042 34.5641 18.0323C34.1343 17.8603 33.6184 18.1182 33.4465 18.5481L32.2429 22.3309H24.9353V20.5255L36.6274 11.8423C36.9713 11.5844 37.0573 10.9826 36.7994 10.6387C36.5415 10.2948 35.9397 10.2088 35.5958 10.4667L23.5597 19.4078C23.3018 19.5798 23.2158 19.8377 23.2158 20.0956V22.3309H21.6683C21.4964 22.3309 21.3244 22.4168 21.2385 22.4168L0.433267 35.3126C0.00340719 35.5705 -0.0825647 36.1723 0.175351 36.5162C0.261323 36.7741 0.605211 36.9461 0.863126 36.9461C1.03507 36.9461 1.20701 36.9461 1.29299 36.8601L21.9262 24.0503H24.0755H31.6411L29.0619 31.5299C28.9759 31.7878 28.9759 32.1317 29.2339 32.3896C29.4058 32.5615 29.6637 32.7335 29.9216 32.7335H30.0076L33.3605 32.2176C33.6184 32.2176 33.7904 32.0457 33.9623 31.8737L39.0347 24.1363H41.098L40.3242 26.7154H37.8311C37.3152 26.7154 36.9713 27.0593 36.9713 27.5752C36.9713 28.091 37.3152 28.4349 37.8311 28.4349H39.7224L39.5505 29.2086H36.9713C36.4555 29.2086 36.1116 29.5525 36.1116 30.0683C36.1116 30.5842 36.4555 30.9281 36.9713 30.9281H39.0347L38.7767 31.7878H38.6908H36.1116C35.5958 31.7878 35.2519 32.1317 35.2519 32.6475C35.2519 33.1633 35.5958 33.5072 36.1116 33.5072H38.2609L38.003 34.3669H21.6683C21.4964 34.3669 21.2385 34.4529 21.0665 34.6248L3.52826 50.1858C3.18437 50.5296 3.18437 51.0455 3.44228 51.3894C3.61423 51.5613 3.87214 51.6473 4.04409 51.6473C4.21603 51.6473 4.47395 51.5613 4.64589 51.3894L12.7273 44.1677C16.8539 47.8645 22.0982 49.8419 27.5144 49.8419C39.8084 49.8419 49.8671 39.7832 49.8671 27.4892C49.8671 23.5345 48.8355 19.6657 46.7721 16.2269L54.5956 10.9826C55.0254 10.7247 55.1114 10.2088 54.8535 9.77897ZM24.9353 36.0864H36.1116V37.8058H24.9353V36.0864ZM48.1477 27.4892C48.1477 38.8375 38.8627 48.1224 27.5144 48.1224C22.5281 48.1224 17.7996 46.317 14.1028 43.1361L22.0122 36.0864H23.2158V38.6655C23.2158 39.1814 23.5597 39.5252 24.0755 39.5252H36.9713C37.4872 39.5252 37.8311 39.1814 37.8311 38.6655V36.0864H38.6908C39.0347 36.0864 39.3785 35.8285 39.5505 35.4846L42.9894 23.4485C43.0753 23.1906 42.9894 22.9327 42.8174 22.6748C42.6455 22.4168 42.3876 22.3309 42.1297 22.3309H40.0663L41.8717 19.4938L45.3966 17.1726C47.202 20.2675 48.1477 23.8784 48.1477 27.4892Z" fill="black"/>
<path d="M41.1834 8.57521C41.3554 8.57521 41.5273 8.48924 41.6993 8.40327L51.2422 1.52551C51.5861 1.2676 51.672 0.751767 51.4141 0.321907C51.1562 -0.0219802 50.6404 -0.107952 50.2105 0.149964L40.6676 7.02772C40.3237 7.28563 40.2378 7.80146 40.4957 8.23132C40.6676 8.48924 40.9255 8.57521 41.1834 8.57521Z" fill="black"/>
<path d="M15.8221 10.295C15.9941 10.295 16.166 10.2091 16.252 10.1231C19.6908 7.97379 23.5596 6.85616 27.5143 6.85616C31.2971 6.85616 34.9938 7.88782 38.2608 9.86518C38.6906 10.1231 39.2065 9.95115 39.4644 9.60726C39.7223 9.1774 39.5504 8.66157 39.2065 8.40365C35.6816 6.25435 31.6409 5.13672 27.5143 5.13672C23.2157 5.13672 19.0031 6.34033 15.3923 8.74754C14.9624 9.00546 14.8764 9.52129 15.1343 9.95115C15.3063 10.1231 15.5642 10.295 15.8221 10.295Z" fill="black"/>
<path d="M6.1928 30.9276H6.27877C6.70863 30.8417 7.05252 30.4118 7.05252 29.9819C6.96654 29.1222 6.88057 28.3485 6.88057 27.4888C6.88057 22.1585 8.9439 17.0002 12.6407 13.1314C12.9846 12.7876 12.9846 12.2717 12.6407 11.9278C12.2968 11.5839 11.781 11.5839 11.4371 11.9278C7.3964 16.1405 5.16113 21.6427 5.16113 27.4888C5.16113 28.3485 5.2471 29.2942 5.33308 30.1539C5.41905 30.5837 5.76294 30.9276 6.1928 30.9276Z" fill="black"/>
<path d="M1.12056 52.6788L0.260845 53.5385C-0.0830422 53.8824 -0.0830422 54.3982 0.260845 54.7421C0.432789 54.9141 0.604733 55 0.862649 55C1.12056 55 1.29251 54.9141 1.46445 54.7421L2.32417 53.8824C2.66806 53.5385 2.66806 53.0227 2.32417 52.6788C1.98028 52.3349 1.46445 52.3349 1.12056 52.6788Z" fill="black"/>
</g>
<defs>
<clipPath id="clip0">
<rect width="55" height="55" fill="white"/>
</clipPath>
</defs>
</svg>
