<svg width="55" height="55" viewBox="0 0 55 55" fill="none" xmlns="http://www.w3.org/2000/svg">
<g clip-path="url(#clip0)">
<path d="M12.209 17.7177C12.5526 18.0613 13.068 18.1472 13.4116 17.8036L32.6541 1.99727L51.8966 17.8895C52.0684 18.0613 52.2402 18.0613 52.412 18.0613C52.6697 18.0613 52.9274 17.9754 53.0993 17.7177C53.4429 17.3741 53.357 16.7727 53.0134 16.515L33.1695 0.193284C32.8259 -0.064428 32.3964 -0.064428 32.0528 0.193284L12.2949 16.515C11.9513 16.8586 11.8654 17.3741 12.209 17.7177Z" fill="black"/>
<path d="M48.9765 47.2685V18.0612C48.9765 17.5458 48.6329 17.2021 48.1175 17.2021C47.602 17.2021 47.2584 17.5458 47.2584 18.0612V46.4095H18.0511V18.0612C18.0511 17.5458 17.7075 17.2021 17.192 17.2021C16.6766 17.2021 16.333 17.5458 16.333 18.0612V47.2685C16.333 47.784 16.6766 48.1276 17.192 48.1276H48.1175C48.6329 48.1276 48.9765 47.784 48.9765 47.2685Z" fill="black"/>
<path d="M13.7555 51.5638H46.399C46.9144 51.5638 47.2581 51.2202 47.2581 50.7047C47.2581 50.1893 46.9144 49.8457 46.399 49.8457H13.7555C13.2401 49.8457 12.8965 50.1893 12.8965 50.7047C12.8965 51.2202 13.2401 51.5638 13.7555 51.5638Z" fill="black"/>
<path d="M49.8356 51.5638H51.5537C52.0691 51.5638 52.4127 51.2202 52.4127 50.7047C52.4127 50.1893 52.0691 49.8457 51.5537 49.8457H49.8356C49.3202 49.8457 48.9766 50.1893 48.9766 50.7047C48.9766 51.2202 49.3202 51.5638 49.8356 51.5638Z" fill="black"/>
<path d="M53.2715 53.2822H1.72916C1.21373 53.2822 0.870117 53.6258 0.870117 54.1413C0.870117 54.6567 1.21373 55.0003 1.72916 55.0003H53.2715C53.7869 55.0003 54.1306 54.6567 54.1306 54.1413C54.1306 53.6258 53.7869 53.2822 53.2715 53.2822Z" fill="black"/>
<path d="M5.16584 17.975C5.33765 17.975 5.50946 17.8891 5.68127 17.8032L26.2982 1.65321C26.6418 1.3955 26.7277 0.794175 26.47 0.450559C26.2123 0.106943 25.611 0.0210395 25.2674 0.278751L4.65042 16.3428C4.2209 16.6864 4.2209 17.2018 4.47861 17.6313C4.65042 17.8891 4.90813 17.975 5.16584 17.975Z" fill="black"/>
<path d="M8.60123 24.0742C8.0858 24.0742 7.74219 24.4178 7.74219 24.9333V47.2683C7.74219 47.7837 8.0858 48.1273 8.60123 48.1273C9.11665 48.1273 9.46027 47.7837 9.46027 47.2683V24.9333C9.46027 24.4178 9.11665 24.0742 8.60123 24.0742Z" fill="black"/>
<path d="M4.30631 51.5638H10.3196C10.835 51.5638 11.1786 51.2202 11.1786 50.7047C11.1786 50.1893 10.835 49.8457 10.3196 49.8457H4.30631C3.79088 49.8457 3.44727 50.1893 3.44727 50.7047C3.44727 51.2202 3.79088 51.5638 4.30631 51.5638Z" fill="black"/>
<path d="M13.7562 47.2691V42.1149C13.7562 41.5995 13.4126 41.2559 12.8971 41.2559C12.3817 41.2559 12.0381 41.5995 12.0381 42.1149V47.2691C12.0381 47.7846 12.3817 48.1282 12.8971 48.1282C13.4126 48.1282 13.7562 47.7846 13.7562 47.2691Z" fill="black"/>
<path d="M40.386 42.9736H39.527C39.0116 42.9736 38.668 43.3172 38.668 43.8327C38.668 44.3481 39.0116 44.6917 39.527 44.6917H40.386C40.9015 44.6917 41.2451 44.3481 41.2451 43.8327C41.2451 43.3172 40.9015 42.9736 40.386 42.9736Z" fill="black"/>
<path d="M42.9626 42.9736C42.4471 42.9736 42.1035 43.3172 42.1035 43.8327C42.1035 44.3481 42.4471 44.6917 42.9626 44.6917H43.8216C44.337 44.6917 44.6806 44.3481 44.6806 43.8327C44.6806 43.3172 44.337 42.9736 43.8216 42.9736H42.9626Z" fill="black"/>
<path d="M36.0905 42.9736C35.5751 42.9736 35.2314 43.3172 35.2314 43.8327C35.2314 44.3481 35.5751 44.6917 36.0905 44.6917H36.9495C37.465 44.6917 37.8086 44.3481 37.8086 43.8327C37.8086 43.3172 37.465 42.9736 36.9495 42.9736H36.0905Z" fill="black"/>
<path d="M9.46027 19.779C9.46027 19.2635 9.11665 18.9199 8.60123 18.9199C8.0858 18.9199 7.74219 19.2635 7.74219 19.779V21.497C7.74219 22.0125 8.0858 22.3561 8.60123 22.3561C9.11665 22.3561 9.46027 22.0125 9.46027 21.497V19.779Z" fill="black"/>
</g>
<defs>
<clipPath id="clip0">
<rect width="55" height="55" fill="white"/>
</clipPath>
</defs>
</svg>
