<svg width="55" height="55" viewBox="0 0 55 55" fill="none" xmlns="http://www.w3.org/2000/svg">
<path d="M54.1406 35.2344C54.6562 35.2344 55 34.8906 55 34.375V13.75C55 13.6641 55 13.5781 54.9141 13.4063C54.9141 13.3203 54.8281 13.2344 54.7422 13.1484L54.6562 13.0625L54.5703 12.9766C54.5703 12.9766 54.5703 12.9766 54.4844 12.9766C54.3984 12.8906 54.3125 12.8906 54.1406 12.8906H32.6562V6.875C32.6562 6.35937 32.3125 6.01562 31.7969 6.01562H23.2031C22.6875 6.01562 22.3438 6.35937 22.3438 6.875V12.8906H20.625C20.5391 12.8906 20.4531 12.8906 20.2812 12.9766L0.515625 20.7109C0.429688 20.7109 0.34375 20.7969 0.34375 20.7969C0.34375 20.7969 0.257812 20.7969 0.257812 20.8828C0.257812 20.8828 0.171875 20.9688 0.171875 21.0547C0.171875 21.1406 0.0859375 21.1406 0.0859375 21.2266V21.3125C0 21.3125 0 21.3984 0 21.4844V48.125C0 48.6406 0.34375 48.9844 0.859375 48.9844H34.375C34.4609 48.9844 34.5469 48.9844 34.7188 48.8984L45.5469 44.6875C45.8047 44.6875 45.9766 44.6016 46.1484 44.4297L50.0156 42.9688C50.1016 42.9688 50.2734 42.8828 50.3594 42.7969L54.4844 41.1641C54.8281 41.0781 55 40.7344 55 40.3906V37.8125C55 37.2969 54.6562 36.9531 54.1406 36.9531C53.625 36.9531 53.2812 37.2969 53.2812 37.8125V39.7891L50.7031 40.8203V36.9531C50.7031 36.4375 50.3594 36.0938 49.8438 36.0938C49.3281 36.0938 48.9844 36.4375 48.9844 36.9531V41.5078L46.4062 42.5391V38.6719C46.4062 38.1562 46.0625 37.8125 45.5469 37.8125C45.0312 37.8125 44.6875 38.1562 44.6875 38.6719V43.1406L35.2344 46.8359V28.3594C35.2344 27.8438 34.8906 27.5 34.375 27.5C33.8594 27.5 33.5156 27.8438 33.5156 28.3594V47.2656H1.71875V22.3438H33.5156V24.9219C33.5156 25.4375 33.8594 25.7812 34.375 25.7812C34.8906 25.7812 35.2344 25.4375 35.2344 24.9219V22.0859L53.2812 15.0391V34.375C53.2812 34.8906 53.625 35.2344 54.1406 35.2344ZM24.0625 9.79687L26.125 7.73438H28.875L30.9375 9.79687V17.1875H24.0625V9.79687ZM34.2031 20.625H5.41406L20.7969 14.6094H22.3438V17.1875H20.625C20.1094 17.1875 19.7656 17.5312 19.7656 18.0469C19.7656 18.5625 20.1094 18.9062 20.625 18.9062H23.2031H31.7969H34.375C34.8906 18.9062 35.2344 18.5625 35.2344 18.0469C35.2344 17.5312 34.8906 17.1875 34.375 17.1875H32.6562V14.6094H49.5859L34.2031 20.625Z" fill="black"/>
<path d="M27.5 11.1719C26.0391 11.1719 24.9219 12.2891 24.9219 13.75C24.9219 15.2109 26.0391 16.3281 27.5 16.3281C28.9609 16.3281 30.0781 15.2109 30.0781 13.75C30.0781 12.2891 28.9609 11.1719 27.5 11.1719ZM27.5 14.6094C26.9844 14.6094 26.6406 14.2656 26.6406 13.75C26.6406 13.2344 26.9844 12.8906 27.5 12.8906C28.0156 12.8906 28.3594 13.2344 28.3594 13.75C28.3594 14.2656 28.0156 14.6094 27.5 14.6094Z" fill="black"/>
<path d="M48.9844 32.6562V34.375C48.9844 34.8906 49.3281 35.2344 49.8438 35.2344C50.3594 35.2344 50.7031 34.8906 50.7031 34.375V32.6562C50.7031 32.1406 50.3594 31.7969 49.8438 31.7969C49.3281 31.7969 48.9844 32.1406 48.9844 32.6562Z" fill="black"/>
</svg>
