<svg width="55" height="55" viewBox="0 0 55 55" fill="none" xmlns="http://www.w3.org/2000/svg">
<path d="M14.6523 10.3125C15.168 10.3125 15.5117 9.96875 15.5117 9.45312C15.5117 8.9375 15.168 8.59375 14.6523 8.59375H13.793C13.2773 8.59375 12.9336 8.9375 12.9336 9.45312C12.9336 9.96875 13.2773 10.3125 13.793 10.3125H14.6523Z" fill="black"/>
<path d="M18.0898 10.3125C18.6055 10.3125 18.9492 9.96875 18.9492 9.45312C18.9492 8.9375 18.6055 8.59375 18.0898 8.59375H17.2305C16.7148 8.59375 16.3711 8.9375 16.3711 9.45312C16.3711 9.96875 16.7148 10.3125 17.2305 10.3125H18.0898Z" fill="black"/>
<path d="M10.3555 10.3125H11.2148C11.7305 10.3125 12.0742 9.96875 12.0742 9.45312C12.0742 8.9375 11.7305 8.59375 11.2148 8.59375H10.3555C9.83984 8.59375 9.49609 8.9375 9.49609 9.45312C9.49609 9.96875 9.83984 10.3125 10.3555 10.3125Z" fill="black"/>
<path d="M13.793 49.8438C13.2773 49.8438 12.9336 50.1875 12.9336 50.7031C12.9336 51.2188 13.2773 51.5625 13.793 51.5625H14.6523C15.168 51.5625 15.5117 51.2188 15.5117 50.7031C15.5117 50.1875 15.168 49.8438 14.6523 49.8438H13.793Z" fill="black"/>
<path d="M17.2305 51.5625H18.0898C18.6055 51.5625 18.9492 51.2188 18.9492 50.7031C18.9492 50.1875 18.6055 49.8438 18.0898 49.8438H17.2305C16.7148 49.8438 16.3711 50.1875 16.3711 50.7031C16.3711 51.2188 16.7148 51.5625 17.2305 51.5625Z" fill="black"/>
<path d="M10.3555 49.8438C9.83984 49.8438 9.49609 50.1875 9.49609 50.7031C9.49609 51.2188 9.83984 51.5625 10.3555 51.5625H11.2148C11.7305 51.5625 12.0742 51.2188 12.0742 50.7031C12.0742 50.1875 11.7305 49.8438 11.2148 49.8438H10.3555Z" fill="black"/>
<path d="M51.2617 20.1953L47.6523 16.5859C47.3086 16.2422 46.793 16.2422 46.4492 16.5859L42.4961 20.5391L39.918 20.0234C39.6602 19.9375 39.3164 20.0234 39.1445 20.2813L33.6445 25.7813C33.3008 26.125 33.3008 26.6406 33.6445 26.9844C33.8164 27.1563 34.0742 27.2422 34.2461 27.2422C34.418 27.2422 34.6758 27.1563 34.8477 26.9844L40.0039 21.8281L41.0352 22L23.418 39.5312L20.4961 41.3359C20.2383 41.5078 20.1523 41.6797 20.0664 41.9375L19.4648 47.4375C19.4648 47.5234 19.4648 47.6094 19.4648 47.6953V47.7812C19.4648 47.8672 19.5508 48.0391 19.6367 48.125C19.7227 48.2109 19.8086 48.2969 19.8945 48.2969C19.9805 48.2969 20.1523 48.3828 20.2383 48.3828H20.3242L25.8242 47.7812C26.082 47.7812 26.3398 47.6094 26.4258 47.3516L28.2305 44.4297L51.2617 21.3984C51.4336 21.2266 51.5195 21.0547 51.5195 20.7969C51.5195 20.5391 51.4336 20.3672 51.2617 20.1953ZM25.3086 46.1484L22.7305 46.4062L24.0195 45.1172C24.3633 44.7734 24.3633 44.2578 24.0195 43.9141C23.6758 43.5703 23.1602 43.5703 22.8164 43.9141L21.5273 45.2031L21.7852 42.625L23.8477 41.3359L25.2227 42.7109L26.5977 44.0859L25.3086 46.1484ZM27.6289 42.7109L26.4258 41.5078L25.2227 40.3047L47.1367 18.3906L49.543 20.7969L27.6289 42.7109Z" fill="black"/>
<path d="M43.8711 43.8281C43.3555 43.8281 43.0117 44.1719 43.0117 44.6875V53.2812H5.19922V1.71875H34.418V9.45312C34.418 9.96875 34.7617 10.3125 35.2773 10.3125H43.0117V17.1875C43.0117 17.7031 43.3555 18.0469 43.8711 18.0469C44.3867 18.0469 44.7305 17.7031 44.7305 17.1875V9.45312C44.7305 9.19531 44.5586 8.9375 44.3867 8.76562L35.9648 0.34375C35.793 0.171875 35.5352 0 35.2773 0C35.1914 0 35.1914 0 35.1055 0H4.33984C3.82422 0 3.48047 0.429688 3.48047 0.859375V54.1406C3.48047 54.6562 3.82422 55 4.33984 55H43.8711C44.3867 55 44.7305 54.6562 44.7305 54.1406V44.6875C44.7305 44.1719 44.3867 43.8281 43.8711 43.8281ZM36.1367 2.92188L41.8086 8.59375H36.1367V2.92188Z" fill="black"/>
<path d="M43.8711 39.5312C43.3555 39.5312 43.0117 39.875 43.0117 40.3906V41.25C43.0117 41.7656 43.3555 42.1094 43.8711 42.1094C44.3867 42.1094 44.7305 41.7656 44.7305 41.25V40.3906C44.7305 39.875 44.3867 39.5312 43.8711 39.5312Z" fill="black"/>
<path d="M43.8711 30.9375C43.3555 30.9375 43.0117 31.2812 43.0117 31.7969V36.9531C43.0117 37.4688 43.3555 37.8125 43.8711 37.8125C44.3867 37.8125 44.7305 37.4688 44.7305 36.9531V31.7969C44.7305 31.2812 44.3867 30.9375 43.8711 30.9375Z" fill="black"/>
<path d="M18.0898 47.2656C18.0898 46.75 17.7461 46.4062 17.2305 46.4062H10.3555C9.83984 46.4062 9.49609 46.75 9.49609 47.2656C9.49609 47.7812 9.83984 48.125 10.3555 48.125H17.2305C17.7461 48.125 18.0898 47.7812 18.0898 47.2656Z" fill="black"/>
<path d="M34.418 49.8438C33.9023 49.8438 33.5586 50.1875 33.5586 50.7031C33.5586 51.2188 33.9023 51.5625 34.418 51.5625H35.2773C35.793 51.5625 36.1367 51.2188 36.1367 50.7031C36.1367 50.1875 35.793 49.8438 35.2773 49.8438H34.418Z" fill="black"/>
<path d="M38.7148 49.8438H37.8555C37.3398 49.8438 36.9961 50.1875 36.9961 50.7031C36.9961 51.2188 37.3398 51.5625 37.8555 51.5625H38.7148C39.2305 51.5625 39.5742 51.2188 39.5742 50.7031C39.5742 50.1875 39.2305 49.8438 38.7148 49.8438Z" fill="black"/>
<path d="M30.1211 50.7031C30.1211 51.2188 30.4648 51.5625 30.9805 51.5625H31.8398C32.3555 51.5625 32.6992 51.2188 32.6992 50.7031C32.6992 50.1875 32.3555 49.8438 31.8398 49.8438H30.9805C30.4648 49.8438 30.1211 50.1875 30.1211 50.7031Z" fill="black"/>
<path d="M38.7148 46.4062H31.8398C31.3242 46.4062 30.9805 46.75 30.9805 47.2656C30.9805 47.7812 31.3242 48.125 31.8398 48.125H38.7148C39.2305 48.125 39.5742 47.7812 39.5742 47.2656C39.5742 46.75 39.2305 46.4062 38.7148 46.4062Z" fill="black"/>
<path d="M20.1524 14.8672C19.8087 14.5234 19.293 14.5234 18.9493 14.8672L15.5977 18.3906L14.7384 17.3594C14.4805 17.0156 13.879 16.9297 13.5352 17.2734C13.1915 17.5313 13.1055 18.1328 13.4493 18.4766L14.9102 20.2813C15.0821 20.4531 15.3399 20.625 15.5118 20.625C15.7696 20.625 15.9415 20.5391 16.1134 20.3672L20.1524 16.1563C20.4962 15.7266 20.4962 15.2109 20.1524 14.8672Z" fill="black"/>
<path d="M20.1524 25.1797C19.8087 24.8359 19.293 24.8359 18.9493 25.1797L15.5977 28.7031L14.7384 27.6719C14.4805 27.3281 13.879 27.2422 13.5352 27.5859C13.1915 27.8437 13.1055 28.4453 13.4493 28.7891L14.9102 30.5937C15.0821 30.7656 15.3399 30.9375 15.5118 30.9375C15.7696 30.9375 15.9415 30.8516 16.1134 30.6797L20.1524 26.4687C20.4962 26.0391 20.4962 25.5234 20.1524 25.1797Z" fill="black"/>
<path d="M22.3867 6.01562C22.3867 5.5 22.043 5.15625 21.5273 5.15625H10.3555C9.83984 5.15625 9.49609 5.5 9.49609 6.01562C9.49609 6.53125 9.83984 6.875 10.3555 6.875H21.5273C22.043 6.875 22.3867 6.53125 22.3867 6.01562Z" fill="black"/>
<path d="M38.7148 17.1875C38.7148 16.6719 38.3711 16.3281 37.8555 16.3281H24.1055C23.5898 16.3281 23.2461 16.6719 23.2461 17.1875C23.2461 17.7031 23.5898 18.0469 24.1055 18.0469H37.8555C38.3711 18.0469 38.7148 17.7031 38.7148 17.1875Z" fill="black"/>
<path d="M34.418 19.7656C34.418 19.25 34.0742 18.9062 33.5586 18.9062H24.1055C23.5898 18.9062 23.2461 19.25 23.2461 19.7656C23.2461 20.2812 23.5898 20.625 24.1055 20.625H33.5586C34.0742 20.625 34.418 20.2812 34.418 19.7656Z" fill="black"/>
<path d="M31.8398 27.5C31.8398 26.9844 31.4961 26.6406 30.9805 26.6406H24.1055C23.5898 26.6406 23.2461 26.9844 23.2461 27.5C23.2461 28.0156 23.5898 28.3594 24.1055 28.3594H30.9805C31.4961 28.3594 31.8398 28.0156 31.8398 27.5Z" fill="black"/>
<path d="M24.1055 29.2188C23.5898 29.2188 23.2461 29.5625 23.2461 30.0781C23.2461 30.5938 23.5898 30.9375 24.1055 30.9375H29.2617C29.7773 30.9375 30.1211 30.5938 30.1211 30.0781C30.1211 29.5625 29.7773 29.2188 29.2617 29.2188H24.1055Z" fill="black"/>
</svg>
