<svg width="55" height="55" viewBox="0 0 55 55" fill="none" xmlns="http://www.w3.org/2000/svg">
<g clip-path="url(#clip0)">
<path d="M53.7912 14.4793C53.0141 13.7022 51.978 13.2705 50.8556 13.2705C49.7331 13.2705 48.697 13.7022 47.9199 14.4793L47.4882 14.911L47.0565 14.4793C46.2794 13.7022 45.2433 13.2705 44.1209 13.2705C42.9984 13.2705 41.9623 13.7022 41.1852 14.4793C40.0628 15.6017 39.7174 17.1559 40.1491 18.5374H38.1633C37.9042 18.5374 37.6452 18.7101 37.4725 18.8828C37.2998 19.0554 37.2998 19.4008 37.2998 19.6598C37.3862 19.9189 43.6892 41.3317 30.8242 45.3898C30.3925 45.5625 21.0675 48.4981 15.4553 39.6912C15.2826 39.4322 14.9372 39.2595 14.5918 39.2595L0.77708 40.9864C0.345369 41.0727 0 41.5044 0 41.9361C0.0863422 42.3678 0.518053 42.7132 0.949765 42.7132L14.2465 41.0727C17.9592 46.5123 23.0534 47.6347 26.6797 47.6347C29.3564 47.6347 31.2559 47.0303 31.2559 47.0303C37.2998 45.1308 40.4945 39.6912 40.5808 31.2297C40.5808 26.5672 39.6311 22.2501 39.1994 20.3506H41.0126C41.0989 20.2642 41.0989 20.3506 41.1852 20.3506L46.8838 26.0492C47.0565 26.2218 47.2292 26.3082 47.4882 26.3082C47.7473 26.3082 47.9199 26.2218 48.0926 26.0492L53.7912 20.3506C54.5683 19.5735 55 18.5374 55 17.4149C55 16.2925 54.5683 15.2564 53.7912 14.4793ZM52.5824 19.1418L47.4882 24.236L43.4301 20.1779C43.7755 20.0915 44.0345 19.7462 44.0345 19.4008C44.0345 18.8828 43.6892 18.5374 43.1711 18.5374H41.9623C41.4443 17.5876 41.617 16.4652 42.394 15.6881C42.8257 15.2564 43.4301 14.9974 44.1209 14.9974C44.8116 14.9974 45.416 15.2564 45.8477 15.6881L46.8838 16.7242C47.2292 17.0696 47.7473 17.0696 48.0926 16.7242L49.1287 15.6881C50.0785 14.7383 51.6327 14.7383 52.5824 15.6881C53.0141 16.1198 53.2732 16.7242 53.2732 17.4149C53.2732 18.1057 53.0141 18.7101 52.5824 19.1418Z" fill="black"/>
<path d="M35.4005 19.4008C35.9186 19.4008 36.264 19.0554 36.264 18.5374V17.674C36.264 17.1559 35.9186 16.8105 35.4005 16.8105C34.8825 16.8105 34.5371 17.1559 34.5371 17.674V18.5374C34.5371 19.0554 34.8825 19.4008 35.4005 19.4008Z" fill="black"/>
<path d="M3.45355 36.6689H1.7267C1.20865 36.6689 0.863281 37.0143 0.863281 37.5324C0.863281 38.0504 1.20865 38.3958 1.7267 38.3958H3.45355C3.9716 38.3958 4.31697 38.0504 4.31697 37.5324C4.31697 37.0143 3.9716 36.6689 3.45355 36.6689Z" fill="black"/>
<path d="M3.45355 33.2158H1.7267C1.20865 33.2158 0.863281 33.5612 0.863281 34.0792C0.863281 34.5973 1.20865 34.9427 1.7267 34.9427H3.45355C3.9716 34.9427 4.31697 34.5973 4.31697 34.0792C4.31697 33.5612 3.9716 33.2158 3.45355 33.2158Z" fill="black"/>
<path d="M6.56168 22.7679C11.6559 28.8118 17.3545 31.8338 23.053 31.7475C22.7077 32.3518 22.1033 32.9562 21.2399 33.388C18.5632 34.6831 12.951 34.9421 1.2948 28.9845C0.863091 28.8118 0.345038 28.8982 0.172353 29.3299C-0.000331087 29.7616 0.0860111 30.2796 0.517722 30.4523C7.4251 34.0787 13.1237 35.8055 17.3545 35.8055C19.1676 35.8055 20.7218 35.4602 22.0169 34.8558C24.7799 33.4743 25.2979 31.1431 25.2979 31.0567C25.3843 30.7977 25.2979 30.5387 25.1253 30.2796C24.9526 30.107 24.6935 30.0206 24.3482 30.0206C19.8584 30.625 15.8003 28.8982 12.5193 26.3079H16.4047C16.9227 26.3079 17.2681 25.9625 17.2681 25.4445C17.2681 24.9264 16.9227 24.581 16.4047 24.581H10.4471C9.58366 23.7176 8.72023 22.8542 8.0295 21.9908H12.951C13.4691 21.9908 13.8144 21.6454 13.8144 21.1274C13.8144 20.6093 13.4691 20.2639 12.951 20.2639H6.90705C6.8207 20.2639 6.73436 20.2639 6.64802 20.3503C6.21631 19.7459 5.7846 19.1415 5.35289 18.5371H11.2242C11.7422 18.5371 12.0876 18.1917 12.0876 17.6737C12.0876 17.1556 11.7422 16.8102 11.2242 16.8102H5.1802C4.92118 16.8102 4.66215 16.9829 4.48946 17.1556C3.5397 15.6878 2.84896 14.3927 2.33091 13.4429L16.6637 14.9971C17.3545 16.4649 18.1315 18.019 19.6857 19.9186C21.3262 21.8181 23.2257 23.5449 25.2979 24.8401C25.3843 24.8401 25.3843 24.9264 25.4706 24.9264L25.9887 25.0991C27.9745 25.8762 29.356 26.4806 31.6873 25.0128C33.2414 23.9767 33.0687 22.3362 32.8961 20.9547C32.8961 20.6093 32.8097 20.3503 32.8097 20.0049C32.7234 18.2781 33.0687 17.501 33.3278 17.1556C34.1048 16.2059 35.4 16.1195 35.4863 16.1195C35.659 16.1195 36.2634 16.0332 36.6951 16.3785C37.0405 16.5512 37.2132 16.8102 37.2995 17.0693C37.5585 17.501 38.0766 17.6737 38.5083 17.4146C38.94 17.1556 39.1127 16.6376 38.8537 16.2059C38.5946 15.6878 38.1629 15.2561 37.6449 14.9107C36.6951 14.3063 35.7453 14.3063 35.3136 14.3927C35.2273 14.3927 33.2414 14.5654 31.9463 16.0332C31.3419 16.8102 30.9965 18.1054 31.0829 20.0049C31.0829 20.3503 31.1692 20.6956 31.1692 21.041C31.3419 22.5088 31.3419 23.0269 30.7375 23.4586C29.1833 24.4084 28.4926 24.1493 26.6794 23.3723L26.2477 23.1996C24.2618 21.9908 22.535 20.4366 21.0672 18.6234C19.513 16.7239 18.7359 15.1697 18.0452 13.7019C17.9588 13.4429 17.6135 13.2702 17.3545 13.1839L0.949433 11.457C0.604064 11.457 0.345038 11.5434 0.172353 11.8024C-0.000331087 12.0614 -0.000331087 12.4068 0.0860111 12.6658C0.172353 12.8385 2.41725 17.9327 6.56168 22.7679Z" fill="black"/>
<path d="M14.6779 11.889C14.7642 12.3207 15.2823 12.6661 15.714 12.4934C16.1457 12.3208 16.4911 11.889 16.3184 11.4573L15.973 9.98951L22.535 13.9613C23.0531 15.3427 25.1253 20.6959 27.9746 22.6818C28.1473 22.7682 28.3199 22.8545 28.4926 22.8545C28.7517 22.8545 29.0107 22.7682 29.1834 22.5091C29.4424 22.0774 29.356 21.5594 28.9243 21.3003C26.1614 19.4008 24.0892 13.1842 24.0892 13.0978C24.0028 12.9251 23.9165 12.7525 23.7438 12.6661L15.1096 7.48559C14.8506 7.3129 14.4188 7.3129 14.1598 7.57193C13.9008 7.74461 13.7281 8.17632 13.8145 8.43535L14.6779 11.889Z" fill="black"/>
<path d="M34.1917 39.2599C33.5873 39.1735 33.0692 39.3462 32.8965 39.7779C32.8965 39.7779 32.4648 40.7277 30.997 40.9867C30.5653 41.0731 30.2199 41.5048 30.3063 41.9365C30.3926 42.3682 30.738 42.6272 31.1697 42.6272C31.2561 42.6272 31.2561 42.6272 31.3424 42.6272C33.76 42.1955 34.537 40.4687 34.6234 40.3823C34.7961 39.9506 34.6234 39.4326 34.1917 39.2599Z" fill="black"/>
</g>
<defs>
<clipPath id="clip0">
<rect width="55" height="55" fill="white"/>
</clipPath>
</defs>
</svg>
