<svg width="55" height="55" viewBox="0 0 55 55" fill="none" xmlns="http://www.w3.org/2000/svg">
<g clip-path="url(#clip0)">
<path d="M14.6458 16.2769H16.3592C16.8732 16.2769 17.2159 15.9342 17.2159 15.4202C17.2159 14.9062 16.8732 14.5635 16.3592 14.5635H14.6458C14.1317 14.5635 13.7891 14.9062 13.7891 15.4202C13.7891 15.9342 14.1317 16.2769 14.6458 16.2769Z" fill="black"/>
<path d="M39.4896 12.3364C39.4896 12.2508 39.4896 8.30997 39.0613 6.08255H41.203C41.5457 6.08255 41.8884 5.82555 41.974 5.48287C42.0597 5.14019 41.974 4.71184 41.717 4.5405L38.2902 1.9704C36.7482 0.856698 35.4631 0.599688 34.4351 1.11371C32.636 1.9704 32.636 4.79751 32.636 5.22586C32.7217 6.42523 32.379 6.76791 32.122 6.93925C31.2653 7.45327 30.837 7.3676 29.6376 6.93925C26.2965 5.31153 24.9258 0.685358 24.9258 0.599688C24.7544 0.257009 24.4117 0 24.0691 0H14.6454C14.3884 0 14.0457 0.17134 13.96 0.428349C13.8744 0.685358 13.7887 0.942368 13.8744 1.19938C14.0457 1.62773 18.0722 10.4517 25.0114 12.2508C22.9554 12.3364 19.8712 11.4798 15.2451 7.88162C14.9024 7.62461 14.3027 7.62461 14.0457 8.05296C13.7887 8.39564 13.7887 8.99533 14.217 9.25234C24.9258 17.5623 29.2092 12.4221 29.3806 12.1651C29.6376 11.9081 29.6376 11.4798 29.4663 11.2227C29.2949 10.8801 28.9522 10.7087 28.6096 10.7944C25.7825 11.1371 23.4694 10.109 21.5846 8.56698H22.3557C22.8697 8.56698 23.2124 8.2243 23.2124 7.71028C23.2124 7.19626 22.8697 6.85358 22.3557 6.85358H19.7856H19.6999C19.1859 6.25389 18.6719 5.73988 18.2435 5.14019H20.6423C21.1563 5.14019 21.499 4.79751 21.499 4.28349C21.499 3.76947 21.1563 3.42679 20.6423 3.42679H17.2155C17.1298 3.42679 17.1298 3.42679 17.0441 3.42679C16.6158 2.74143 16.2731 2.14174 16.0161 1.7134H23.4694C23.9834 3.16978 25.6968 6.85358 28.8666 8.48131C30.0659 8.99533 31.351 9.50935 32.9787 8.39564C34.4351 7.45327 34.3494 5.65421 34.3494 5.14019C34.3494 4.28349 34.6064 2.91277 35.2061 2.57009C35.6345 2.39875 36.3198 2.57009 37.2622 3.25545L38.6329 4.28349H37.7762C37.2622 4.28349 36.9195 4.62617 36.9195 5.14019C36.9195 5.3972 37.0909 5.65421 37.2622 5.82555C37.6049 6.85358 37.7762 11.4798 37.7762 12.1651C37.5192 16.4486 35.2061 19.5327 31.5223 20.4751C27.6672 21.4174 25.1828 18.5047 23.9834 16.7056C23.8121 16.3629 23.3837 16.2773 23.041 16.3629L16.1874 18.0763C15.7591 18.162 15.4164 18.676 15.5877 19.1044C15.6734 19.5327 16.1874 19.8754 16.6158 19.7041L22.8697 18.162C24.8401 20.9034 27.3245 22.4455 30.0659 22.4455C30.6656 22.4455 31.2653 22.3598 31.9507 22.1885C36.3198 21.0748 39.1469 17.391 39.4896 12.3364Z" fill="black"/>
<path d="M14.6458 13.7075H16.3592C16.8732 13.7075 17.2159 13.3649 17.2159 12.8508C17.2159 12.3368 16.8732 11.9941 16.3592 11.9941H14.6458C14.1317 11.9941 13.7891 12.3368 13.7891 12.8508C13.7891 13.3649 14.1317 13.7075 14.6458 13.7075Z" fill="black"/>
<path d="M21.328 24.0734L18.7579 24.9301C18.5009 25.0158 18.2438 25.2728 18.1582 25.5298L16.7018 31.2697L10.1909 27.6716L5.82173 20.818L8.99151 21.332L12.247 27.7572C12.3326 27.9286 12.504 28.0999 12.5896 28.0999L14.303 28.9566C14.3887 29.1279 14.4744 29.1279 14.6457 29.1279C14.9884 29.1279 15.2454 28.9566 15.4167 28.6139C15.5881 28.1856 15.4167 27.6716 15.0741 27.5002L13.6177 26.7292L10.2766 20.2183C10.1909 19.9613 9.93388 19.7899 9.67687 19.7899L4.53668 18.9332L4.19401 18.4192C4.10834 18.3336 4.02267 18.2479 3.937 18.1622L1.3669 16.4488C1.10989 16.2775 0.681544 16.2775 0.424535 16.4488C0.167525 16.6202 -0.00381422 17.0485 0.0818556 17.3912L4.36534 33.6684C4.45101 33.8398 4.53668 34.0111 4.62235 34.0968L13.6177 41.4644L11.2189 53.8008C11.1333 54.2292 11.3903 54.7432 11.9043 54.8289C11.99 54.8289 11.99 54.8289 12.0756 54.8289C12.504 54.8289 12.8467 54.5719 12.9323 54.1435L15.5024 41.2931C15.5881 40.9504 15.4167 40.6934 15.2454 40.4364L5.99307 32.8974L2.30927 19.1046L2.82329 19.4473L8.7345 28.6996C8.82017 28.7853 8.90584 28.9566 9.07718 28.9566L16.7875 33.2401C17.0445 33.4114 17.3015 33.4114 17.5585 33.2401C17.8155 33.1544 17.9868 32.8974 18.0725 32.6404L19.7002 26.2152L20.7283 25.8725V48.832C20.7283 49.346 21.071 49.6887 21.585 49.6887C22.099 49.6887 22.4417 49.346 22.4417 48.832V24.8445C22.4417 24.5874 22.2703 24.3304 22.099 24.1591C21.842 23.9878 21.585 23.9878 21.328 24.0734Z" fill="black"/>
<path d="M54.5682 16.4488C54.3112 16.2775 53.8828 16.2775 53.6258 16.4488L51.0557 18.1622C50.9701 18.2479 50.8844 18.3336 50.7987 18.4192L50.456 18.8476L45.3159 19.7043C45.0588 19.7899 44.8018 19.9613 44.7162 20.1326L41.375 26.7292L39.9187 27.5002C39.4903 27.6716 39.319 28.1856 39.576 28.6139C39.7473 28.9566 40.0043 29.1279 40.347 29.1279C40.4327 29.1279 40.604 29.128 40.6897 29.0423L42.4031 28.1856C42.5744 28.0999 42.7458 27.9286 42.7458 27.8429L46.0012 21.4177L49.171 20.9036L44.8018 27.7572L38.2909 31.3554L36.9202 25.5298C36.8345 25.2728 36.6632 25.0158 36.3205 24.9301L33.7504 24.0734C33.4934 23.9878 33.2364 23.9878 32.9794 24.1591C32.8081 24.3304 32.6367 24.5874 32.6367 24.8445V48.832C32.6367 49.346 32.9794 49.6887 33.4934 49.6887C34.0074 49.6887 34.3501 49.346 34.3501 48.832V26.0438L35.3782 26.3865L37.0059 32.8118C37.0915 33.0688 37.2629 33.3258 37.5199 33.4114C37.7769 33.4971 38.0339 33.4971 38.2909 33.4114L46.0012 29.1279C46.0869 29.0423 46.2582 28.9566 46.3439 28.8709L52.2551 19.6186L52.7691 19.2759L49.171 33.0688L40.0043 40.6077C39.7473 40.779 39.6616 41.1217 39.7473 41.4644L42.3174 54.3149C42.4031 54.7432 42.7458 55.0002 43.1741 55.0002C43.2598 55.0002 43.2598 55.0002 43.3454 55.0002C43.7738 54.9146 44.1165 54.4862 44.0308 53.9722L41.5464 41.6357L50.5417 34.2681C50.456 33.9255 50.5417 33.8398 50.6274 33.6684L54.9109 17.3912C54.9965 17.0485 54.9109 16.7058 54.5682 16.4488Z" fill="black"/>
<path d="M21.4993 51.4023C20.9853 51.4023 20.6426 51.745 20.6426 52.259V53.9724C20.6426 54.4865 20.9853 54.8291 21.4993 54.8291C22.0133 54.8291 22.356 54.4865 22.356 53.9724V52.259C22.356 51.745 22.0133 51.4023 21.4993 51.4023Z" fill="black"/>
<path d="M33.4934 51.4023C32.9794 51.4023 32.6367 51.745 32.6367 52.259V53.9724C32.6367 54.4865 32.9794 54.8291 33.4934 54.8291C34.0074 54.8291 34.3501 54.4865 34.3501 53.9724V52.259C34.3501 51.745 34.0074 51.4023 33.4934 51.4023Z" fill="black"/>
</g>
<defs>
<clipPath id="clip0">
<rect width="55" height="55" fill="white"/>
</clipPath>
</defs>
</svg>
