<svg width="55" height="44" viewBox="0 0 55 44" fill="none" xmlns="http://www.w3.org/2000/svg">
<path d="M8.59375 37.5H0.859375C0.34375 37.5 0 37.9 0 38.5C0 39.1 0.34375 39.5 0.859375 39.5H8.59375C9.10938 39.5 9.45312 39.1 9.45312 38.5C9.45312 37.9 9.10938 37.5 8.59375 37.5Z" fill="black"/>
<path d="M43.2266 0C41.0781 0 39.1016 0.8 37.2969 2.2C37.2109 2.2 37.125 2.2 37.0391 2.2L25.4375 6.5C25.3516 6.5 25.3516 6.5 25.2656 6.5C24.6641 6.9 21.4844 7.4 20.5391 7.4C20.0234 7.4 19.6797 7.8 19.6797 8.4C19.6797 9 20.0234 9.4 20.5391 9.4C21.3984 9.4 24.8359 8.9 25.9531 8.3L34.2891 5.2C31.9688 8.5 30.5078 13.1 30.5078 18.1C30.5078 22.2 31.5391 26 33.1719 29.1C32.2266 28.5 31.1953 27.8 30.25 27.2C27.7578 25.6 25.1797 23.9 22.7734 22.6C21.5703 21.9 20.5391 21.5 19.7656 21.5H9.45312C8.76562 20.9 6.96094 19 7.04688 15.5C7.13281 12.1 8.50781 10.1 8.9375 9.6H11.1719C11.6875 9.6 12.0312 9.2 12.0312 8.6C12.0312 8 11.6875 7.6 11.1719 7.6H8.59375C8.42188 7.6 8.25 7.7 8.07812 7.8C7.64844 8.1 5.41406 10.8 5.32812 15.5C5.15625 20.5 8.07812 23 8.67969 23.4C8.85156 23.5 9.02344 23.6 9.19531 23.6H11.1719V26.6L0.859375 26.5C0.34375 26.5 0 26.9 0 27.5C0 28.1 0.34375 28.5 0.859375 28.5H11.1719V42.5C11.1719 43.1 11.5156 43.5 12.0312 43.5H20.625C20.8828 43.5 21.0547 43.4 21.2266 43.2C21.3984 43 21.4844 42.8 21.4844 42.5V39.4H22.7734C23.0312 39.4 23.2031 39.3 23.375 39.1C23.5469 38.9 23.6328 38.7 23.6328 38.4V26.5C23.6328 26.2 23.5469 26 23.375 25.8C23.2031 25.6 22.9453 25.5 22.7734 25.5H19.7656V23.5C20.0234 23.5 20.7109 23.6 22.0859 24.5C24.4062 25.8 26.9844 27.5 29.4766 29.1C31.7109 30.6 34.0312 32 36.2656 33.3C38.2422 35.3 40.6484 36.5 43.2266 36.5C49.8438 36.5 55 28.2 55 17.8C55 7.7 49.9297 0 43.2266 0ZM19.7656 41.6H12.8906V23.6L18.0469 23.5V25.9C16.3281 26.6 14.6953 28.4 14.6094 30.5C14.6094 30.5 14.6094 30.5 14.6094 30.6V30.7V34.1C14.6094 35.4 15.2109 36.8 16.4141 37.9C17.4453 38.9 18.7344 39.5 19.7656 39.5V41.6ZM22 27.5L21.9141 37.4H19.8516C18.4766 37.4 16.7578 35.9 16.4141 34.5H20.625C21.1406 34.5 21.4844 34.1 21.4844 33.5C21.4844 32.9 21.1406 32.5 20.625 32.5H16.3281V31.5H20.625C21.1406 31.5 21.4844 31.1 21.4844 30.5C21.4844 29.9 21.1406 29.5 20.625 29.5H16.6719C17.2734 28.4 18.6484 27.5 19.7656 27.5H22ZM43.0547 34.1C37.2109 34 32.3125 26.7 32.3984 18C32.3984 9.3 37.3828 1.9 43.3125 1.9C49.0703 1.9 53.1953 8.6 53.1953 17.5C53.1094 26.7 48.9844 34.1 43.0547 34.1Z" fill="black"/>
<path d="M14.6094 9.5H16.3281C16.8438 9.5 17.1875 9.1 17.1875 8.5C17.1875 7.9 16.8438 7.5 16.3281 7.5H14.6094C14.0937 7.5 13.75 7.9 13.75 8.5C13.75 9.1 14.0937 9.5 14.6094 9.5Z" fill="black"/>
<path d="M10.3125 13.5C10.3125 14.1 10.6562 14.5 11.1719 14.5H12.8906C13.4062 14.5 13.75 14.1 13.75 13.5C13.75 12.9 13.4062 12.5 12.8906 12.5H11.1719C10.6562 12.5 10.3125 12.9 10.3125 13.5Z" fill="black"/>
<path d="M15.4688 13.5C15.4688 14.1 15.8984 14.5 16.3281 14.5H18.0469C18.5625 14.5 18.9062 14 18.9062 13.5C18.9062 12.9 18.4766 12.5 18.0469 12.5H16.3281C15.8125 12.5 15.4688 13 15.4688 13.5Z" fill="black"/>
<path d="M5.15625 36.5C5.67188 36.5 6.01562 36.1 6.01562 35.5C6.01562 34.9 5.67188 34.5 5.15625 34.5H3.4375C2.92187 34.5 2.57812 34.9 2.57812 35.5C2.57812 36.1 2.92187 36.5 3.4375 36.5H5.15625Z" fill="black"/>
<path d="M48.2955 9.56581C48.0557 10.2191 48.0884 10.8534 48.4607 11.1775C48.4607 11.1775 49.2664 11.9488 49.1367 13.6766C49.1084 14.1879 49.436 14.7061 49.8753 14.7391C50.3147 14.772 50.6543 14.4618 50.766 13.9766C50.7883 13.8796 50.7883 13.8796 50.8107 13.7825C51.0194 10.9352 49.5525 9.54167 49.4915 9.41862C49.1192 9.09451 48.5741 9.13258 48.2955 9.56581Z" fill="black"/>
</svg>
