<svg width="54" height="54" viewBox="0 0 54 54" fill="none" xmlns="http://www.w3.org/2000/svg">
<g clip-path="url(#clip0)">
<path d="M27 54C41.887 54 54 41.8881 54 27C54 24.4303 53.6413 21.8979 52.931 19.4727C52.5811 18.2802 51.3358 17.5952 50.14 17.9451C48.9463 18.2939 48.2635 19.5436 48.6123 20.7361C49.2006 22.751 49.5 24.8593 49.5 27C49.5 39.4063 39.4063 49.5 27 49.5C14.5937 49.5 4.5 39.4063 4.5 27C4.5 14.5937 14.5937 4.5 27 4.5C31.5088 4.5 35.8467 5.81836 39.5447 8.31171C40.5742 9.00659 41.9738 8.73358 42.6676 7.70416C43.3619 6.67365 43.0911 5.27509 42.0606 4.58075C37.6166 1.58423 32.4091 0 27 0C12.113 0 0 12.1119 0 27C0 41.8881 12.113 54 27 54Z" fill="black"/>
<path d="M50.1593 5.15926L27.0001 28.3173L19.5909 20.9093C18.712 20.0309 17.2882 20.0309 16.4093 20.9093C15.5309 21.7882 15.5309 23.212 16.4093 24.0909L25.4093 33.0909C25.8493 33.5309 26.4238 33.7501 27.0001 33.7501C27.5763 33.7501 28.1509 33.5309 28.5909 33.0909L53.3409 8.3409C54.2193 7.46199 54.2193 6.03816 53.3409 5.15926C52.462 4.2809 51.0382 4.2809 50.1593 5.15926Z" fill="black"/>
</g>
<defs>
<clipPath id="clip0">
<rect width="54" height="54" fill="white"/>
</clipPath>
</defs>
</svg>
