<svg width="66" height="67" viewBox="0 0 66 67" fill="none" xmlns="http://www.w3.org/2000/svg">
<circle cx="40.1503" cy="25.85" r="25.85" fill="#FF3300"/>
<path d="M21.3598 54.9789C20.7797 54.9918 12.1043 54.9918 12.1043 54.9918V10.9961H48.1465L42.307 17.2997C42.2297 17.3899 42.1523 17.5059 42.1137 17.6219C42.1008 17.6477 42.0879 17.6864 42.075 17.7122C42.0621 17.7508 42.0492 17.7766 42.0363 17.8153L40.7215 24.1059C40.5926 24.6989 40.9793 25.279 41.5723 25.4079C41.7527 25.4465 41.9332 25.4336 42.1008 25.3821L48.2625 23.5903C48.2883 23.5774 48.3141 23.5645 48.3398 23.5516C48.3656 23.5387 48.3914 23.5258 48.4301 23.5129C48.559 23.4614 48.6621 23.384 48.7652 23.2809L57.1957 14.1672V48.2887L50.802 55.0047C50.802 55.0047 24.3633 54.8887 23.3836 54.9918L21.3598 54.9789ZM48.7137 57.1961L42.1008 64.1442C41.6883 64.5825 41.7012 65.2786 42.1395 65.7039C42.3457 65.8973 42.6164 66.0133 42.9 66.0004H64.9043C65.5102 66.0004 66 65.5106 66 64.9047V41.8047C66 41.3536 65.7293 40.9539 65.3039 40.7864C64.8785 40.6188 64.4016 40.7219 64.0922 41.0442L59.4 45.9813V16.6422L63.8859 11.8083C64.2984 11.3571 64.2727 10.661 63.8215 10.2485L62.2102 8.75318L64.4531 6.32974C64.8656 5.87857 64.8398 5.18247 64.3887 4.76997L59.5547 0.296928C59.1035 -0.115571 58.4074 -0.0897902 57.9949 0.361382L50.1703 8.80474H12.1043C12.1043 5.76255 9.64219 3.31333 6.6 3.30044H5.5043C2.46211 3.30044 0 5.76255 0 8.80474V56.1004C0 56.7063 0.489844 57.1961 1.0957 57.1961H48.7137ZM2.2043 54.9918C2.2043 53.1743 3.68672 51.6918 5.5043 51.6918H6.6C8.41758 51.6918 9.9 53.1743 9.9 54.9918H2.2043ZM9.9 50.6219C8.95898 49.9 7.79883 49.5004 6.6 49.4875H5.5043C4.30547 49.4875 3.14531 49.8872 2.2043 50.6219V8.80474C2.2043 6.98716 3.68672 5.50474 5.5043 5.50474H6.6C8.41758 5.50474 9.9 6.98716 9.9 8.80474V50.6219ZM59.4 13.4067V11.7954L60.7148 10.3645L61.527 11.1122L59.4 13.4067ZM58.8586 2.65591L62.0941 5.64654L60.5988 7.27075L57.3633 4.26724L58.8586 2.65591ZM43.248 22.7653L43.7895 20.1872L45.7746 22.0305L43.248 22.7653ZM47.9016 20.9864L44.666 17.9958L55.868 5.87857L59.1035 8.86919L57.2086 10.9059H57.1957V10.9188L47.9016 20.9864ZM63.7957 63.7961H45.4652L63.7957 44.5504V63.7961Z" fill="black"/>
<path d="M51.7818 60.9212C51.9494 61.3337 52.349 61.6044 52.8002 61.6044H60.4959C61.1017 61.6044 61.5916 61.1145 61.5916 60.5087V52.813C61.5916 52.2071 61.1017 51.7173 60.4959 51.7173C60.1994 51.7173 59.9287 51.8333 59.7224 52.0396L52.0267 59.7352C51.7045 60.0317 51.6142 60.5087 51.7818 60.9212ZM59.4002 55.4556V59.4001H55.4556L59.4002 55.4556Z" fill="black"/>
<path d="M48.4043 41.8043H40.7086V29.7C40.7086 29.4035 40.5926 29.1328 40.3863 28.9266L33.7734 22.3137C33.348 21.8883 32.652 21.8883 32.2137 22.3137L25.6137 28.9137C25.4074 29.1199 25.2914 29.4035 25.2914 29.6871V41.7914H17.5957C16.9898 41.7914 16.5 42.2813 16.5 42.8871C16.5 43.493 16.9898 43.9828 17.5957 43.9828H48.3914C48.9973 43.9828 49.4871 43.493 49.4871 42.8871C49.5 42.2941 49.0102 41.8043 48.4043 41.8043ZM33 24.6469L36.9445 28.5914H29.0555L33 24.6469ZM27.4957 30.7957H38.4914V41.7914H27.4957V30.7957Z" fill="black"/>
<path d="M31.9175 39.5742H34.1218V41.7785H31.9175V39.5742Z" fill="black"/>
<path d="M35.7199 20.6894H30.3316C30.0223 20.6894 29.7773 20.4445 29.7773 20.1351C29.7773 19.8257 30.0223 19.5808 30.3316 19.5808H35.7199C36.0293 19.5808 36.2742 19.8257 36.2742 20.1351C36.2613 20.4445 36.0164 20.6894 35.7199 20.6894Z" fill="black"/>
<path d="M32.4712 23.2419V17.8536C32.4712 17.5442 32.7161 17.2993 33.0255 17.2993C33.3349 17.2993 33.5798 17.5442 33.5798 17.8536V23.2419C33.5798 23.5513 33.3349 23.7962 33.0255 23.7962C32.7161 23.7962 32.4712 23.5513 32.4712 23.2419Z" fill="black"/>
<path d="M20.2383 20.1482V39.5744" stroke="black" stroke-miterlimit="10"/>
<path d="M17.918 20.2383H22.8164" stroke="black" stroke-miterlimit="10"/>
<path d="M17.7891 39.5742H22.6875" stroke="black" stroke-miterlimit="10"/>
</svg>
