<svg width="77" height="61" viewBox="0 0 77 61" fill="none" xmlns="http://www.w3.org/2000/svg">
<circle cx="46.9462" cy="25.9584" r="25.9584" fill="#A4DED2"/>
<path d="M74.7295 42.9418H73.9852V36.0694C73.9852 33.4273 71.9905 31.275 69.5342 31.2453H69.5193H55.4964L52.4744 21.7308C53.9928 21.0184 55.0349 19.4747 55.0349 17.7083C55.0349 15.2592 53.0252 13.2554 50.569 13.2554H21.8234C21.6299 13.2554 21.4513 13.2851 21.2875 13.3593H10.4502C10.2865 13.2851 10.1078 13.2554 9.91432 13.2554C7.57716 13.2554 5.55261 15.0811 5.22511 17.5005C5.22511 17.5154 5.22511 17.5302 5.22511 17.5302L2.88795 38.4295L2.38182 42.9418H1.48864C0.669886 42.9418 0 43.6097 0 44.4261V48.1369C0 50.1853 1.66727 51.8477 3.72159 51.8477H7.54739C8.27682 56.8796 12.6236 60.7537 17.8636 60.7537C23.1036 60.7537 27.4505 56.8796 28.1799 51.8477H49.5418C50.2713 56.8796 54.6181 60.7537 59.8581 60.7537C65.0981 60.7537 69.4449 56.8796 70.1743 51.8477H72.4966C74.5509 51.8477 76.2182 50.1853 76.2182 48.1369V44.4261C76.2182 43.6097 75.5483 42.9418 74.7295 42.9418ZM7.54739 48.8791H3.72159C3.31966 48.8791 2.97727 48.5377 2.97727 48.1369V45.9104H3.72159H8.44057C8.00886 46.8307 7.69625 47.8252 7.54739 48.8791ZM25.3068 50.3634C25.3068 54.4601 21.9723 57.785 17.8636 57.785C13.755 57.785 10.4205 54.4601 10.4205 50.3634C10.4205 46.2667 13.755 42.9418 17.8636 42.9418C21.9723 42.9418 25.3068 46.2667 25.3068 50.3634ZM67.2864 50.3634C67.2864 54.4601 63.9518 57.785 59.8432 57.785C55.7345 57.785 52.4 54.4601 52.4 50.3634C52.4 46.2667 55.7345 42.9418 59.8432 42.9418C63.9518 42.9418 67.2864 46.2667 67.2864 50.3634ZM67.1226 42.9418C65.2469 41.1012 62.6716 39.9732 59.8432 39.9732C57.0148 39.9732 54.4394 41.1012 52.5638 42.9418H50.2117C49.393 42.9418 48.7231 43.6097 48.7231 44.4261C48.7231 45.2425 49.393 45.9104 50.2117 45.9104H50.435C49.9884 46.8307 49.6907 47.8252 49.5418 48.8791H28.1799C28.031 47.8252 27.7184 46.8307 27.2867 45.9104H38.3175C39.1362 45.9104 39.8061 45.2425 39.8061 44.4261C39.8061 43.6097 39.1362 42.9418 38.3175 42.9418H25.158C23.2823 41.1012 20.7069 39.9732 17.8785 39.9732C15.0501 39.9732 12.4748 41.1012 10.5991 42.9418H5.38886L5.71636 40.0622H6.74352C7.56227 40.0622 8.23216 39.3943 8.23216 38.5779C8.23216 37.7615 7.56227 37.0936 6.74352 37.0936H6.04386L8.17261 17.8865C8.30659 16.9513 9.08068 16.224 9.91432 16.224H21.8234H24.2648H50.569C51.3877 16.224 52.0576 16.892 52.0576 17.7083C52.0576 18.5247 51.3877 19.1927 50.569 19.1927C50.569 19.1927 50.569 19.1927 50.5541 19.1927H36.6949C35.8761 19.1927 35.2063 19.8606 35.2063 20.677V32.7297C35.2063 33.546 35.8761 34.214 36.6949 34.214H54.3948C54.3948 34.214 54.3948 34.214 54.4097 34.214H54.4245H69.5193C70.353 34.2288 71.0228 35.0601 71.0228 36.0694V37.0936H70.0403C69.2216 37.0936 68.5517 37.7615 68.5517 38.5779C68.5517 39.3943 69.2216 40.0622 70.0403 40.0622H71.0228V42.9418H67.1226ZM52.3702 31.2453H38.1835V22.1613H49.4823L52.3702 31.2453ZM73.2409 48.1369C73.2409 48.5377 72.8985 48.8791 72.4966 48.8791H70.1594C70.0106 47.8252 69.698 46.8307 69.2663 45.9104H73.2409V48.1369Z" fill="black"/>
<path d="M25.7385 23.7198H22.6868V20.6769C22.6868 19.8606 22.0169 19.1926 21.1982 19.1926C20.3794 19.1926 19.7095 19.8606 19.7095 20.6769V23.7198H16.6727C15.854 23.7198 15.1841 24.3878 15.1841 25.2041C15.1841 26.0205 15.854 26.6885 16.6727 26.6885H19.7244V32.7445C19.7244 33.5609 20.3943 34.2288 21.2131 34.2288C22.0318 34.2288 22.7017 33.5609 22.7017 32.7445V26.6885H25.7534C26.5722 26.6885 27.242 26.0205 27.242 25.2041C27.2272 24.3729 26.5722 23.7198 25.7385 23.7198Z" fill="black"/>
<path d="M44.2572 42.9417C43.4384 42.9417 42.7686 43.6096 42.7686 44.426C42.7686 45.2423 43.4384 45.9103 44.2572 45.9103C45.0759 45.9103 45.7458 45.2423 45.7458 44.426C45.7458 43.6096 45.0759 42.9417 44.2572 42.9417Z" fill="black"/>
</svg>
