<svg width="67" height="75" viewBox="0 0 67 75" fill="none" xmlns="http://www.w3.org/2000/svg">
<circle cx="40.7583" cy="26.2417" r="26.2417" fill="#1CB19E"/>
<path d="M39.584 54.2931C39.584 54.9305 40.1008 55.447 40.7379 55.447C41.375 55.447 41.8918 54.9303 41.8918 54.2931C41.8918 53.656 41.375 53.1389 40.7379 53.1389C40.1008 53.1389 39.584 53.6557 39.584 54.2931Z" fill="black"/>
<path d="M55.1583 53.9741C54.6253 52.2167 52.7628 51.2228 51.0065 51.7534C50.1554 52.0111 49.4554 52.5851 49.0357 53.3693C48.6161 54.1535 48.5276 55.0543 48.7853 55.9055C49.2206 57.3417 50.5448 58.2694 51.9734 58.2694C52.2924 58.2694 52.617 58.223 52.9374 58.1261C54.6944 57.5934 55.6905 55.7306 55.1583 53.9741ZM52.3116 56.0601C51.6944 56.2471 51.0386 55.8971 50.8516 55.2794C50.7609 54.9801 50.792 54.6633 50.9396 54.3875C51.0872 54.1117 51.3328 53.9098 51.632 53.8194C51.7448 53.7852 51.8587 53.7687 51.971 53.7687C52.4732 53.7687 52.9387 54.095 53.092 54.5999C53.2793 55.2178 52.9293 55.8731 52.3116 56.0601Z" fill="black"/>
<path d="M6.4769 15.447C7.07303 15.447 7.55635 14.9637 7.55635 14.3676V11.1292C7.55635 10.5331 7.07303 10.0498 6.4769 10.0498C5.88078 10.0498 5.39746 10.5331 5.39746 11.1292V14.3676C5.39746 14.9637 5.88078 15.447 6.4769 15.447Z" fill="black"/>
<path d="M6.4769 17.606C5.88078 17.606 5.39746 18.0893 5.39746 18.6854V21.9237C5.39746 22.5199 5.88078 23.0032 6.4769 23.0032C7.07303 23.0032 7.55635 22.5199 7.55635 21.9237V18.6854C7.55635 18.0893 7.07303 17.606 6.4769 17.606Z" fill="black"/>
<path d="M4.31778 15.447H1.07944C0.483321 15.447 0 15.9303 0 16.5265C0 17.1226 0.483321 17.6059 1.07944 17.6059H4.31778C4.9139 17.6059 5.39722 17.1226 5.39722 16.5265C5.39722 15.9303 4.9139 15.447 4.31778 15.447Z" fill="black"/>
<path d="M11.8739 17.6059C12.4701 17.6059 12.9534 17.1226 12.9534 16.5265C12.9534 15.9303 12.4701 15.447 11.8739 15.447H8.6356C8.03947 15.447 7.55615 15.9303 7.55615 16.5265C7.55615 17.1226 8.03947 17.6059 8.6356 17.6059H11.8739Z" fill="black"/>
<path d="M50.7336 37.0358C51.3297 37.0358 51.813 36.5525 51.813 35.9564V27.3208C51.813 26.7247 51.3297 26.2414 50.7336 26.2414H47.4953C47.4953 25.6453 47.0119 25.1619 46.4158 25.1619H39.9391C39.343 25.1619 38.8597 25.6453 38.8597 26.2414H36.7008V19.7647C36.7008 19.1686 36.2175 18.6853 35.6214 18.6853V12.2086C35.6214 11.6125 35.138 11.1292 34.5419 11.1292H25.9064C25.3102 11.1292 24.8269 11.6125 24.8269 12.2086V18.6853C24.2308 18.6853 23.7475 19.1686 23.7475 19.7647V26.2414H21.5886C21.5886 25.6453 21.1053 25.1619 20.5091 25.1619H14.0325C13.4364 25.1619 12.953 25.6453 12.953 26.2414H9.7147C9.11858 26.2414 8.63525 26.7247 8.63525 27.3208V35.9564C8.63525 36.5525 9.11858 37.0358 9.7147 37.0358H12.953V51.0686C12.953 51.4666 13.1722 51.8323 13.5232 52.0204C13.8722 52.208 14.2986 52.1864 14.631 51.9667L17.2705 50.2069L19.9101 51.9667C20.0909 52.0873 20.2995 52.148 20.5089 52.148C20.6832 52.148 20.8589 52.1059 21.0181 52.0204C21.3692 51.8323 21.5883 51.4664 21.5883 51.0686V37.0358H24.8267V72.6575H17.2705C16.6744 72.6575 16.1911 73.1408 16.1911 73.7369C16.1911 74.3331 16.6744 74.8164 17.2705 74.8164H43.1772C43.7733 74.8164 44.2567 74.3331 44.2567 73.7369C44.2567 73.1408 43.7733 72.6575 43.1772 72.6575H35.6211V37.0358H38.8594V42.433C38.8594 42.8311 39.0786 43.1967 39.4297 43.3848C39.7786 43.5719 40.205 43.5503 40.5374 43.3311L43.1769 41.5714L45.8165 43.3311C45.9973 43.4518 46.2059 43.5125 46.4153 43.5125C46.5896 43.5125 46.7653 43.4704 46.9245 43.3848C47.2756 43.1967 47.4947 42.8308 47.4947 42.433V37.0358H50.7336ZM49.6542 28.4003V34.8769H47.4953V28.4003H49.6542ZM25.9064 20.8442H34.5419V26.2414H25.9064V20.8442ZM26.9858 13.288H33.4625V18.6853H26.9858V13.288ZM10.7941 34.8769V28.4003H12.953V34.8769H10.7941ZM19.4297 49.0514L17.8696 48.0113C17.6883 47.8907 17.4797 47.83 17.2708 47.83C17.0619 47.83 16.8533 47.8907 16.672 48.0113L15.1119 49.0514V27.3208H19.4297V49.0514ZM34.5419 34.8769C33.9458 34.8769 33.4625 35.3603 33.4625 35.9564V72.6575H26.9858V35.9564C26.9858 35.3603 26.5025 34.8769 25.9064 34.8769H21.5886V28.4003H24.8269H35.6214H38.8597V34.8769H34.5419ZM45.3364 40.4158L43.7763 39.3758C43.595 39.2552 43.3864 39.1944 43.1775 39.1944C42.9686 39.1944 42.76 39.2552 42.5787 39.3758L41.0186 40.4158V27.3208H45.3364V40.4158Z" fill="black"/>
</svg>
