<svg width="60" height="70" viewBox="0 0 60 70" fill="none" xmlns="http://www.w3.org/2000/svg">
<circle cx="33.923" cy="25.3077" r="25.3077" fill="#FF3300"/>
<path d="M33.9823 19.4909H31.0071V16.5243C31.0071 15.7284 30.354 15.0771 29.5557 15.0771C28.7575 15.0771 28.1044 15.7284 28.1044 16.5243V19.4909H25.1437C24.3455 19.4909 23.6924 20.1421 23.6924 20.938C23.6924 21.7339 24.3455 22.3851 25.1437 22.3851H28.1189V28.2893C28.1189 29.0852 28.772 29.7365 29.5702 29.7365C30.3685 29.7365 31.0216 29.0852 31.0216 28.2893V22.3851H33.9968C34.795 22.3851 35.4481 21.7339 35.4481 20.938C35.4336 20.1276 34.795 19.4909 33.9823 19.4909Z" fill="black"/>
<path d="M53.0317 55.9686C53.9048 54.9473 54.4335 53.6233 54.4335 52.1772V51.5518C54.4335 48.3284 51.8112 45.7061 48.5878 45.7061C45.3644 45.7061 42.7421 48.3284 42.7421 51.5518V52.1772C42.7421 53.6233 43.2708 54.9473 44.1439 55.9686C42.0069 56.5186 40.2033 57.9054 39.1016 59.7568C37.9999 57.9054 36.1964 56.5186 34.0594 55.9686C34.9324 54.9473 35.4611 53.6233 35.4611 52.1772V51.5518C35.4611 48.3284 32.8388 45.7061 29.6154 45.7061C26.3921 45.7061 23.7697 48.3284 23.7697 51.5518V52.1772C23.7697 53.6233 24.2984 54.9473 25.1715 55.9686C23.0345 56.5186 21.231 57.9054 20.1292 59.7568C19.0275 57.9054 17.224 56.5186 15.087 55.9686C15.96 54.9473 16.4888 53.6233 16.4888 52.1772V51.5518C16.4888 48.3284 13.8664 45.7061 10.643 45.7061C7.41967 45.7061 4.79732 48.3284 4.79732 51.5518V52.1772C4.79732 53.6233 5.32604 54.9473 6.1991 55.9686C2.63862 56.885 0 60.1224 0 63.9649V68.8431C0 69.4821 0.517872 70 1.15685 70H58.074C58.713 70 59.2309 69.4821 59.2309 68.8431V63.9649C59.2309 60.1224 56.5922 56.885 53.0317 55.9686ZM45.0558 51.5518C45.0558 49.6041 46.6401 48.0198 48.5878 48.0198C50.5355 48.0198 52.1198 49.6041 52.1198 51.5518V52.1772C52.1198 54.1249 50.5355 55.7092 48.5878 55.7092C46.6401 55.7092 45.0558 54.1249 45.0558 52.1772V51.5518ZM26.0834 51.5518C26.0834 49.6041 27.6678 48.0198 29.6154 48.0198C31.5631 48.0198 33.1474 49.6041 33.1474 51.5518V52.1772C33.1474 54.1249 31.5631 55.7092 29.6154 55.7092C27.6678 55.7092 26.0834 54.1249 26.0834 52.1772V51.5518ZM7.11103 51.5518C7.11103 49.6041 8.69537 48.0198 10.643 48.0198C12.5907 48.0198 14.1751 49.6041 14.1751 51.5518V52.1772C14.1751 54.1249 12.5907 55.7092 10.643 55.7092C8.69537 55.7092 7.11103 54.1249 7.11103 52.1772V51.5518ZM2.31371 63.9649C2.31371 60.6887 4.97899 58.0229 8.25568 58.0229H13.0304C16.3067 58.0229 18.9724 60.6887 18.9724 63.9649V67.6863H2.31371V63.9649ZM21.2861 63.9649C21.2861 60.6887 23.9514 58.0229 27.2281 58.0229H32.0028C35.279 58.0229 37.9448 60.6887 37.9448 63.9649V67.6863H21.2861V63.9649ZM56.9171 67.6863H40.2585V63.9649C40.2585 60.6887 42.9238 58.0229 46.2004 58.0229H50.9752C54.2514 58.0229 56.9171 60.6887 56.9171 63.9649V67.6863Z" fill="black"/>
<path d="M8.94711 33.9739L8.93672 40.3971C8.93582 40.8445 9.1934 41.2526 9.59739 41.4442C9.75555 41.5192 9.92502 41.5562 10.0931 41.5562C10.3557 41.5562 10.6155 41.4668 10.8261 41.2941L17.361 35.9455H24.5904L28.7261 41.1211C28.9521 41.4039 29.2987 41.5666 29.6593 41.5553C30.0213 41.5463 30.3579 41.3682 30.569 41.0745L34.2573 35.945H41.9165L48.4215 41.2928C48.7672 41.577 49.2458 41.6362 49.6503 41.4451C50.0551 41.2539 50.3132 40.8463 50.3132 40.3989V33.9554C53.9035 31.6489 56.1074 27.6492 56.1074 23.357C56.1074 16.4159 50.4605 10.769 43.5194 10.769H15.7115C8.77042 10.769 3.12354 16.4159 3.12354 23.357C3.12354 27.6636 5.33828 31.6706 8.94711 33.9739ZM15.7115 13.0827H43.5194C49.1848 13.0827 53.7937 17.6921 53.7937 23.357C53.7937 27.0472 51.7977 30.4726 48.5851 32.2978C48.2232 32.503 47.9995 32.8871 47.9995 33.3033V37.9506L43.0652 33.8948C42.8583 33.7244 42.5989 33.6313 42.3309 33.6313H33.6644C33.2921 33.6313 32.9428 33.8107 32.7254 34.1131L29.5816 38.4847L26.0509 34.0661C25.8313 33.7913 25.4987 33.6313 25.1471 33.6313H16.9479C16.6809 33.6313 16.4219 33.724 16.2149 33.893L11.2545 37.9537L11.2617 33.3222C11.2626 32.9038 11.0376 32.5179 10.6734 32.3127C7.44366 30.4916 5.43724 27.0599 5.43724 23.357C5.43724 17.6921 10.0461 13.0827 15.7115 13.0827Z" fill="black"/>
<path d="M43.5192 17.7102H43.558H43.5625C44.1993 17.7102 44.7171 17.1955 44.7194 16.5579C44.7221 15.9189 44.206 15.3992 43.5671 15.3965H43.5192C42.8802 15.3965 42.3623 15.9144 42.3623 16.5533C42.3623 17.1923 42.8802 17.7102 43.5192 17.7102Z" fill="black"/>
<path d="M47.2289 19.1035C48.4603 20.1791 49.1666 21.7295 49.1666 23.3572C49.1666 24.8987 48.5543 26.3393 47.4426 27.4148C46.9835 27.859 46.9713 28.5911 47.415 29.0507C47.6423 29.2852 47.9442 29.4032 48.247 29.4032C48.5366 29.4032 48.8263 29.2951 49.0509 29.0778C50.6176 27.5626 51.4803 25.5313 51.4803 23.3572C51.4803 21.0612 50.4852 18.8753 48.7508 17.3606C48.2696 16.9403 47.5389 16.99 47.1186 17.4713C46.6983 17.9526 46.7476 18.6833 47.2289 19.1035Z" fill="black"/>
</svg>
