<svg width="56" height="73" viewBox="0 0 56 73" fill="none" xmlns="http://www.w3.org/2000/svg">
<circle cx="24.6513" cy="35.8146" r="21.8608" fill="#FFC000"/>
<path d="M41.6814 63.1175H39.2996V51.4467C39.2996 51.1308 39.1741 50.8279 38.9508 50.6046C38.7275 50.3812 38.4246 50.2558 38.1087 50.2558C37.7929 50.2558 37.49 50.3812 37.2666 50.6046C37.0433 50.8279 36.9178 51.1308 36.9178 51.4467V63.1175H5.95449V39.2995H15.8628C16.1786 39.2995 16.4815 39.1741 16.7048 38.9507C16.9282 38.7274 17.0536 38.4245 17.0536 38.1086C17.0536 37.7928 16.9282 37.4899 16.7048 37.2665C16.4815 37.0432 16.1786 36.9177 15.8628 36.9177H4.76359C4.44774 36.9177 4.14483 37.0432 3.9215 37.2665C3.69816 37.4899 3.57269 37.7928 3.57269 38.1086V63.1175H1.1909C0.875052 63.1175 0.572142 63.2429 0.348806 63.4663C0.125469 63.6896 0 63.9925 0 64.3084V66.6902C0 68.2694 0.627346 69.7839 1.74403 70.9006C2.86071 72.0173 4.37526 72.6446 5.95449 72.6446H36.9178C38.497 72.6446 40.0116 72.0173 41.1283 70.9006C42.245 69.7839 42.8723 68.2694 42.8723 66.6902V64.3084C42.8723 63.9925 42.7468 63.6896 42.5235 63.4663C42.3002 63.2429 41.9972 63.1175 41.6814 63.1175ZM40.4905 66.6902C40.4905 67.6377 40.1141 68.5464 39.4441 69.2164C38.7741 69.8864 37.8654 70.2628 36.9178 70.2628H34.536V69.072C34.536 68.7561 34.4106 68.4532 34.1872 68.2299C33.9639 68.0065 33.661 67.8811 33.3451 67.8811C33.0293 67.8811 32.7264 68.0065 32.503 68.2299C32.2797 68.4532 32.1542 68.7561 32.1542 69.072V70.2628H10.7181V69.072C10.7181 68.7561 10.5926 68.4532 10.3693 68.2299C10.1459 68.0065 9.84302 67.8811 9.52718 67.8811C9.21133 67.8811 8.90842 68.0065 8.68509 68.2299C8.46175 68.4532 8.33628 68.7561 8.33628 69.072V70.2628H5.95449C5.00695 70.2628 4.09822 69.8864 3.42821 69.2164C2.7582 68.5464 2.38179 67.6377 2.38179 66.6902V65.4993H40.4905V66.6902Z" fill="black"/>
<path d="M26.7594 15.3029C26.949 15.4204 27.1676 15.4823 27.3906 15.4816C27.577 15.4805 27.7606 15.4356 27.9265 15.3506L35.0719 11.7779C35.267 11.678 35.4307 11.5261 35.545 11.3391C35.6593 11.1521 35.7198 10.9372 35.7198 10.718C35.7198 10.4988 35.6593 10.2839 35.545 10.0969C35.4307 9.90987 35.267 9.75803 35.0719 9.65809L27.9265 6.0854C27.7452 5.99405 27.5436 5.95056 27.3408 5.95905C27.1379 5.96755 26.9406 6.02775 26.7676 6.13395C26.5946 6.24014 26.4516 6.3888 26.3522 6.56581C26.2528 6.74282 26.2003 6.9423 26.1997 7.1453V14.2907C26.1993 14.4931 26.2505 14.6922 26.3484 14.8693C26.4464 15.0465 26.5878 15.1957 26.7594 15.3029ZM28.5815 9.07456L31.8684 10.718L28.5815 12.3614V9.07456Z" fill="black"/>
<path d="M29.7723 21.4362C31.8921 21.4362 33.9643 20.8076 35.7269 19.6298C37.4895 18.4521 38.8633 16.7782 39.6745 14.8197C40.4857 12.8612 40.698 10.7062 40.2844 8.62709C39.8708 6.54799 38.85 4.63821 37.3511 3.13926C35.8521 1.64031 33.9424 0.619509 31.8633 0.20595C29.7842 -0.20761 27.6291 0.00464392 25.6706 0.81587C23.7122 1.6271 22.0382 3.00086 20.8605 4.76344C19.6828 6.52602 19.0542 8.59825 19.0542 10.7181C19.0542 13.5607 20.1834 16.2869 22.1935 18.2969C24.2035 20.3069 26.9297 21.4362 29.7723 21.4362ZM29.7723 2.3818C31.421 2.3818 33.0328 2.87071 34.4037 3.78672C35.7746 4.70272 36.843 6.00467 37.474 7.52793C38.1049 9.05118 38.27 10.7273 37.9484 12.3444C37.6267 13.9615 36.8328 15.4469 35.6669 16.6127C34.5011 17.7786 33.0157 18.5725 31.3986 18.8942C29.7815 19.2158 28.1054 19.0508 26.5821 18.4198C25.0589 17.7888 23.7569 16.7204 22.8409 15.3495C21.9249 13.9786 21.436 12.3668 21.436 10.7181C21.436 8.50716 22.3143 6.3868 23.8776 4.82344C25.441 3.26008 27.5614 2.3818 29.7723 2.3818Z" fill="black"/>
<path d="M41.6816 26.1996C41.8665 26.1996 42.0488 26.1565 42.2142 26.0739C42.3796 25.9912 42.5234 25.8711 42.6343 25.7232L46.207 20.9596C46.3965 20.707 46.4779 20.3894 46.4332 20.0767C46.3886 19.764 46.2215 19.4819 45.9688 19.2924C45.7162 19.1029 45.3986 19.0215 45.0859 19.0662C44.7732 19.1108 44.4911 19.2779 44.3016 19.5306L40.7289 24.2942C40.5394 24.5468 40.458 24.8644 40.5027 25.1771C40.5474 25.4898 40.7144 25.7719 40.9671 25.9614C41.1732 26.116 41.4239 26.1996 41.6816 26.1996Z" fill="black"/>
<path d="M44.3012 30.4869C44.4121 30.6348 44.5559 30.7549 44.7213 30.8376C44.8867 30.9202 45.069 30.9633 45.2539 30.9633C45.5116 30.9633 45.7623 30.8797 45.9684 30.7251L50.732 27.1524C50.9847 26.9629 51.1517 26.6808 51.1964 26.3681C51.2411 26.0554 51.1597 25.7378 50.9702 25.4852C50.7807 25.2325 50.4986 25.0654 50.1859 25.0208C49.8732 24.9761 49.5556 25.0575 49.3029 25.247L44.5394 28.8197C44.2867 29.0092 44.1196 29.2913 44.075 29.604C44.0303 29.9166 44.1117 30.2342 44.3012 30.4869Z" fill="black"/>
<path d="M55.9721 33.107C55.9437 32.9491 55.8838 32.7985 55.7959 32.6644C55.708 32.5302 55.5939 32.4152 55.4604 32.3262C55.327 32.2373 55.1769 32.1762 55.0193 32.1466C54.8616 32.1171 54.6996 32.1197 54.543 32.1543L48.5885 33.3451C48.4321 33.3608 48.2803 33.4071 48.1418 33.4814C48.0033 33.5557 47.8808 33.6565 47.7813 33.7782C47.5803 34.0238 47.4851 34.3393 47.5167 34.6551C47.5483 34.971 47.704 35.2613 47.9497 35.4623C48.1954 35.6633 48.5108 35.7585 48.8267 35.7269H49.0649L55.0193 34.536C55.1772 34.5077 55.3278 34.4478 55.4619 34.3599C55.5961 34.272 55.7111 34.1579 55.8001 34.0244C55.8891 33.891 55.9501 33.7409 55.9797 33.5832C56.0093 33.4256 56.0066 33.2636 55.9721 33.107Z" fill="black"/>
<path d="M1.1909 33.3453H15.4817C15.7975 33.3453 16.1004 33.2199 16.3238 32.9965C16.5471 32.7732 16.6726 32.4703 16.6726 32.1544V13.1001C16.6726 12.7842 16.5471 12.4813 16.3238 12.258C16.1004 12.0346 15.7975 11.9092 15.4817 11.9092H1.1909C0.875052 11.9092 0.572142 12.0346 0.348806 12.258C0.125469 12.4813 0 12.7842 0 13.1001V32.1544C0 32.4703 0.125469 32.7732 0.348806 32.9965C0.572142 33.2199 0.875052 33.3453 1.1909 33.3453ZM2.38179 14.291H14.2908V30.9635H2.38179V14.291Z" fill="black"/>
<path d="M10.7182 16.6726H8.33641C8.02056 16.6726 7.71765 16.7981 7.49431 17.0214C7.27098 17.2447 7.14551 17.5477 7.14551 17.8635C7.14551 18.1794 7.27098 18.4823 7.49431 18.7056C7.71765 18.9289 8.02056 19.0544 8.33641 19.0544H10.7182C11.034 19.0544 11.337 18.9289 11.5603 18.7056C11.7836 18.4823 11.9091 18.1794 11.9091 17.8635C11.9091 17.5477 11.7836 17.2447 11.5603 17.0214C11.337 16.7981 11.034 16.6726 10.7182 16.6726Z" fill="black"/>
<path d="M10.7182 21.436H5.95457C5.63872 21.436 5.33581 21.5615 5.11248 21.7848C4.88914 22.0082 4.76367 22.3111 4.76367 22.6269C4.76367 22.9428 4.88914 23.2457 5.11248 23.469C5.33581 23.6924 5.63872 23.8178 5.95457 23.8178H10.7182C11.034 23.8178 11.3369 23.6924 11.5602 23.469C11.7836 23.2457 11.9091 22.9428 11.9091 22.6269C11.9091 22.3111 11.7836 22.0082 11.5602 21.7848C11.3369 21.5615 11.034 21.436 10.7182 21.436Z" fill="black"/>
<path d="M10.7182 26.1997H5.95457C5.63872 26.1997 5.33581 26.3252 5.11248 26.5485C4.88914 26.7718 4.76367 27.0748 4.76367 27.3906C4.76367 27.7064 4.88914 28.0094 5.11248 28.2327C5.33581 28.456 5.63872 28.5815 5.95457 28.5815H10.7182C11.034 28.5815 11.3369 28.456 11.5602 28.2327C11.7836 28.0094 11.9091 27.7064 11.9091 27.3906C11.9091 27.0748 11.7836 26.7718 11.5602 26.5485C11.3369 26.3252 11.034 26.1997 10.7182 26.1997Z" fill="black"/>
<path d="M40.6336 32.9878C40.5555 32.8517 40.4512 32.7324 40.3269 32.6366C40.2026 32.5408 40.0606 32.4705 39.9091 32.4296C39.7576 32.3887 39.5996 32.378 39.4439 32.3982C39.2883 32.4183 39.1382 32.469 39.0021 32.5472C38.8661 32.6253 38.7467 32.7296 38.651 32.8539C38.5552 32.9782 38.4848 33.1202 38.4439 33.2717C38.403 33.4232 38.3923 33.5812 38.4125 33.7369C38.4327 33.8925 38.4833 34.0426 38.5615 34.1787L43.8133 43.2652L24.759 50.4106C24.759 50.4106 24.759 50.4106 24.6756 50.4106H24.5804L21.484 52.197L19.4238 53.3879C19.1525 53.5447 18.853 53.6464 18.5424 53.6873C18.2318 53.7281 17.9162 53.7073 17.6136 53.626C17.0058 53.4618 16.4877 53.0636 16.1726 52.5185L13.7908 48.398C13.5106 47.8589 13.447 47.2331 13.6131 46.6486C13.7791 46.0642 14.1622 45.5653 14.684 45.254L18.8045 42.8722L21.7817 48.0288C21.8867 48.2106 22.0377 48.3613 22.2197 48.4659C22.4016 48.5705 22.608 48.6251 22.8178 48.6243C23.0273 48.6251 23.2332 48.5707 23.4149 48.4665C23.5966 48.3623 23.7476 48.2121 23.8527 48.0309C23.9578 47.8497 24.0133 47.644 24.0135 47.4346C24.0137 47.2251 23.9586 47.0193 23.8539 46.8379L20.7814 41.5265L35.7271 29.2007L36.2154 30.0463C36.2936 30.1823 36.3978 30.3017 36.5222 30.3974C36.6465 30.4932 36.7884 30.5636 36.9399 30.6045C37.0914 30.6454 37.2495 30.6561 37.4051 30.6359C37.5608 30.6157 37.7109 30.5651 37.8469 30.4869C37.983 30.4087 38.1023 30.3045 38.1981 30.1802C38.2939 30.0559 38.3643 29.9139 38.4052 29.7624C38.4461 29.6109 38.4568 29.4528 38.4366 29.2972C38.4164 29.1416 38.3658 28.9914 38.2876 28.8554L37.0967 26.7951C37.0094 26.6459 36.8907 26.5175 36.7488 26.4188C36.6069 26.3201 36.4452 26.2534 36.275 26.2235C36.1038 26.1912 35.9277 26.1969 35.7589 26.2401C35.5902 26.2833 35.433 26.363 35.2984 26.4736L18.6259 40.2165L13.5526 43.1461C12.6422 43.6764 11.9333 44.4936 11.5368 45.4697C11.1403 46.4459 11.0786 47.526 11.3614 48.5409L10.1705 49.2197C9.55689 49.5721 9.06174 50.0987 8.74781 50.7328C8.43389 51.367 8.31534 52.08 8.40718 52.7816C8.49903 53.4832 8.79713 54.1418 9.26371 54.6737C9.73029 55.2057 10.3443 55.5871 11.0279 55.7697C11.331 55.8499 11.6433 55.89 11.9568 55.8887C12.5833 55.8861 13.1986 55.7221 13.7432 55.4124L14.9341 54.7336C15.5062 55.3245 16.2256 55.7521 17.0182 55.9721C17.4251 56.0859 17.846 56.1421 18.2686 56.1388C19.1057 56.1408 19.928 55.9187 20.6504 55.4957L21.6865 54.9003L24.0683 59.0327C24.5416 59.8511 25.32 60.4485 26.233 60.694C27.146 60.9396 28.119 60.8132 28.939 60.3427C29.3458 60.1083 29.7025 59.796 29.9885 59.4237C30.2745 59.0514 30.4844 58.6263 30.6061 58.1729C30.7277 57.7194 30.7588 57.2464 30.6975 56.7809C30.6363 56.3154 30.4839 55.8666 30.249 55.46L28.0816 51.6849L45.9451 44.9801C46.1071 44.9192 46.2538 44.8238 46.3752 44.7004C46.4965 44.577 46.5895 44.4286 46.6477 44.2656C46.7056 44.1045 46.7282 43.9328 46.7138 43.7623C46.6994 43.5917 46.6484 43.4262 46.5643 43.2771L40.6336 32.9878ZM12.5047 53.3402C12.369 53.4186 12.2193 53.4695 12.064 53.4899C11.9087 53.5104 11.7509 53.5 11.5996 53.4593C11.2945 53.3801 11.0332 53.1831 10.8731 52.9115C10.7947 52.7759 10.7438 52.6261 10.7234 52.4708C10.703 52.3155 10.7134 52.1577 10.754 52.0064C10.7947 51.8543 10.8651 51.7118 10.9612 51.5872C11.0572 51.4625 11.1771 51.3581 11.3138 51.28L12.3498 50.6845L13.5407 52.7448L12.5047 53.3402ZM28.1769 56.6747C28.2553 56.8103 28.3061 56.9601 28.3266 57.1154C28.347 57.2707 28.3366 57.4285 28.296 57.5798C28.211 57.8825 28.0098 58.1394 27.7362 58.2944C27.4642 58.4506 27.1415 58.4932 26.8383 58.413C26.535 58.3327 26.2757 58.136 26.1166 57.8656L23.7348 53.7332L25.7117 52.6019H25.807L28.1769 56.6747Z" fill="black"/>
</svg>
