<svg width="59" height="62" viewBox="0 0 59 62" fill="none" xmlns="http://www.w3.org/2000/svg">
<circle cx="32.8848" cy="23.5" r="23.5" fill="#A4DED2"/>
<path d="M52.9475 24.6153V19.1164L52.0981 18.9593C39.3247 16.5965 31.4389 22.0669 29.0767 24.0472C26.7134 22.0674 18.8226 16.5978 6.04203 18.9593L5.19231 19.1164V24.6153H0V61.9999H58.1539V24.6153H52.9475ZM50.8706 20.8558V53.0185C47.5878 52.8573 37.974 52.8638 30.1154 57.6573V25.8985C30.7943 25.3014 32.6147 23.8434 35.4653 22.597C38.7071 21.1795 43.9672 19.7623 50.8706 20.8558ZM7.26923 20.8558C19.2554 18.958 26.5197 24.5758 28.0385 25.9006V57.6578C21.3853 53.6021 13.4748 52.9731 9.20804 52.9731C8.43127 52.9731 7.77496 52.9941 7.26923 53.0188V20.8558ZM2.07692 26.6922H5.19231V54.1312L5.19283 55.2792L6.33514 55.1642C6.46261 55.1517 18.8014 53.9926 27.7264 59.9227H2.07692V26.6922ZM56.0769 59.923H30.4269C39.3463 53.9931 51.678 55.1515 51.8042 55.1645L52.9478 55.2808V26.6922H56.0769V59.923Z" fill="black"/>
<path d="M43.9193 13.9265C44.1223 14.129 44.3879 14.2305 44.6537 14.2305C44.9196 14.2305 45.1852 14.129 45.3882 13.9265C45.7937 13.521 45.7937 12.8634 45.3882 12.4579L42.2728 9.34247C41.8673 8.93695 41.2097 8.93695 40.8041 9.34247C40.3986 9.74799 40.3986 10.4056 40.8041 10.8111L43.9193 13.9265Z" fill="black"/>
<path d="M52.9612 14.2305C53.227 14.2305 53.4926 14.129 53.6956 13.9265L56.811 10.8111C57.2165 10.4056 57.2165 9.74799 56.811 9.34247C56.4055 8.93695 55.7479 8.93695 55.3424 9.34247L52.227 12.4579C51.8215 12.8634 51.8215 13.521 52.227 13.9265C52.4298 14.129 52.6953 14.2305 52.9612 14.2305Z" fill="black"/>
<path d="M48.8075 14.2308C49.381 14.2308 49.846 13.7658 49.846 13.1923V9.03846C49.846 8.46497 49.381 8 48.8075 8C48.234 8 47.769 8.46497 47.769 9.03846V13.1923C47.769 13.7658 48.234 14.2308 48.8075 14.2308Z" fill="black"/>
<path d="M13.3707 34.9971L16.6149 35.4026V45.3845C16.6149 45.958 17.0798 46.423 17.6533 46.423C18.2268 46.423 18.6918 45.958 18.6918 45.3845V35.6622L21.6784 36.0355C21.722 36.041 21.7654 36.0436 21.8085 36.0436C22.3246 36.0436 22.7719 35.6591 22.8376 35.1339C22.9087 34.5648 22.505 34.0458 21.9359 33.9747L18.6918 33.5689V30.8461C18.6918 30.2726 18.2268 29.8076 17.6533 29.8076C17.0798 29.8076 16.6149 30.2726 16.6149 30.8461V33.3093L13.6282 32.936C13.0581 32.8648 12.5402 33.2685 12.4691 33.8376C12.3979 34.4067 12.8016 34.9259 13.3707 34.9971Z" fill="black"/>
</svg>
