<svg width="60" height="64" viewBox="0 0 60 64" fill="none" xmlns="http://www.w3.org/2000/svg">
<circle cx="34.8216" cy="25.1786" r="25.1786" fill="#1CB19E"/>
<path d="M42.6122 46.2098L35.4596 44.2804C33.2225 43.6768 31.6154 41.734 31.4086 39.4595C34.793 37.4542 37.1342 33.8664 37.4044 29.7225C38.9198 29.2727 40.0283 27.8678 40.0283 26.2081V24.7803C40.0283 23.1302 38.9327 21.7316 37.4306 21.2738V20.172C37.4306 13.7756 32.227 8.57153 25.8302 8.57153H24.5428C18.1461 8.57153 12.9424 13.7756 12.9424 20.172V21.2738C11.4395 21.7316 10.3435 23.1311 10.3435 24.7815V26.2069C10.3435 27.867 11.4524 29.2727 12.9687 29.7225C13.2388 33.8669 15.5801 37.4546 18.9652 39.4599C18.7581 41.734 17.1509 43.6768 14.9139 44.2804L7.76169 46.2098C3.19172 47.443 0 51.6098 0 56.3428V62.1471C0 62.7366 0.477758 63.2144 1.06724 63.2144C1.65673 63.2144 2.13449 62.7366 2.13449 62.1471V56.3428C2.13449 52.5724 4.67711 49.2527 8.31783 48.2705L12.6072 47.1136C15.9853 50.4275 20.3581 52.1376 24.7621 52.2405C24.3844 52.4048 24.1197 52.7813 24.1197 53.2194V54.0582H23.0879C22.4988 54.0582 22.0206 54.5359 22.0206 55.1254C22.0206 55.7149 22.4988 56.1927 23.0879 56.1927H24.1197V59.2456C24.1197 59.8346 24.5975 60.3128 25.1869 60.3128C25.7764 60.3128 26.2542 59.8346 26.2542 59.2456V56.1927H27.286C27.8751 56.1927 28.3532 55.7149 28.3532 55.1254C28.3532 54.5359 27.8751 54.0582 27.286 54.0582H26.2542V53.2194C26.2542 52.7808 25.9895 52.4048 25.6118 52.2405C30.0158 52.1372 34.3877 50.4275 37.7658 47.1132L42.0565 48.2705C45.6968 49.2531 48.2394 52.5724 48.2394 56.3428V62.1471C48.2394 62.7366 48.7172 63.2144 49.3066 63.2144C49.8961 63.2144 50.3739 62.7366 50.3739 62.1471V56.3428C50.3739 51.6098 47.1822 47.443 42.6122 46.2098ZM24.5428 10.706H25.8302C29.9733 10.706 33.5027 13.3816 34.7825 17.0953H15.5905C16.8704 13.3816 20.3998 10.706 24.5428 10.706ZM15.0769 28.9184V28.8058C15.0769 28.2167 14.5987 27.7386 14.0097 27.7386C13.165 27.7386 12.478 27.0515 12.478 26.2069V24.7815C12.478 23.9369 13.165 23.2499 14.0097 23.2499C14.5987 23.2499 15.0769 22.7717 15.0769 22.1826V20.1716C15.0769 19.8539 15.0927 19.5395 15.1236 19.2294H35.2495C35.2799 19.5395 35.2962 19.8539 35.2962 20.1716V22.1826C35.2962 22.7717 35.7739 23.2499 36.3634 23.2499C37.2072 23.2499 37.8938 23.9365 37.8938 24.7803V26.2081C37.8938 27.0519 37.2072 27.7386 36.3634 27.7386C35.7739 27.7386 35.2962 28.2167 35.2962 28.8058V28.9184C35.2962 34.4926 30.7608 39.028 25.1861 39.028C19.6118 39.028 15.0769 34.493 15.0769 28.9184ZM25.1865 41.1625C26.664 41.1625 28.0802 40.8986 29.3925 40.4171C29.5314 41.1291 29.7694 41.8095 30.0942 42.4423C27.2702 44.8307 23.1037 44.8311 20.2793 42.4427C20.604 41.8103 20.8425 41.1295 20.9809 40.4175C22.2933 40.899 23.7095 41.1625 25.1865 41.1625ZM15.0556 46.4528L15.47 46.3411C16.8733 45.9626 18.0969 45.2034 19.044 44.1945C20.8271 45.6445 23.0066 46.3695 25.1865 46.3695C27.3665 46.3695 29.5464 45.6441 31.3294 44.1941C32.2766 45.203 33.5006 45.9626 34.9039 46.3411L35.3174 46.4528C29.4697 51.3301 20.9038 51.3305 15.0556 46.4528Z" fill="black"/>
<path d="M25.1864 30.7568H26.6805C27.27 30.7568 27.7478 30.2791 27.7478 29.6896C27.7478 29.1001 27.27 28.6223 26.6805 28.6223H26.2536V23.1927C26.2536 22.6032 25.7759 22.1255 25.1864 22.1255C24.5969 22.1255 24.1191 22.6032 24.1191 23.1927V29.6896C24.1191 30.2791 24.5969 30.7568 25.1864 30.7568Z" fill="black"/>
<path d="M27.5526 34.466C27.9691 34.0491 27.9691 33.3733 27.5526 32.9564C27.1357 32.5399 26.4599 32.5399 26.043 32.9564C25.5786 33.4212 24.8228 33.4212 24.3584 32.9564C23.9415 32.5399 23.2657 32.5399 22.8488 32.9564C22.4319 33.3733 22.4319 34.0491 22.8488 34.466C23.4971 35.1142 24.3488 35.4382 25.2005 35.4382C26.0522 35.4382 26.9043 35.1142 27.5526 34.466Z" fill="black"/>
<path d="M30.3182 25.934H31.804C32.3935 25.934 32.8713 25.4563 32.8713 24.8668C32.8713 24.2773 32.3935 23.7996 31.804 23.7996H30.3182C29.7292 23.7996 29.251 24.2773 29.251 24.8668C29.251 25.4563 29.7292 25.934 30.3182 25.934Z" fill="black"/>
<path d="M20.056 23.7996H18.5702C17.9807 23.7996 17.5029 24.2773 17.5029 24.8668C17.5029 25.4563 17.9807 25.934 18.5702 25.934H20.056C20.645 25.934 21.1232 25.4563 21.1232 24.8668C21.1232 24.2773 20.645 23.7996 20.056 23.7996Z" fill="black"/>
<path d="M41.5128 50.335C41.5095 50.3341 41.5057 50.3329 41.5028 50.3325C40.9342 50.177 40.3472 50.5126 40.1921 51.0812C40.0378 51.6473 40.3697 52.2318 40.9342 52.3898C40.9375 52.3907 40.9412 52.3919 40.9446 52.3923C41.0384 52.4182 41.133 52.4303 41.226 52.4303C41.695 52.4303 42.1256 52.118 42.2549 51.6436C42.4091 51.0774 42.0773 50.493 41.5128 50.335Z" fill="black"/>
<path d="M43.2623 52.3077C42.8 52.6733 42.7216 53.3445 43.0868 53.8069C43.6567 54.5281 43.9706 55.4286 43.9706 56.3432V57.646C43.9706 58.2355 44.4483 58.7133 45.0378 58.7133C45.6269 58.7133 46.1051 58.2355 46.1051 57.646V56.3432C46.1051 54.9504 45.6277 53.5797 44.7614 52.4832C44.3958 52.0209 43.7246 51.9425 43.2623 52.3077Z" fill="black"/>
</svg>
