<svg width="53" height="44" viewBox="0 0 53 44" fill="none" xmlns="http://www.w3.org/2000/svg">
<path d="M2.1875 24.0625L45.827 24.0625L29.1167 39.9787C28.2417 40.8121 28.2078 42.1968 29.0412 43.0718C29.8736 43.9457 31.2583 43.9807 32.1344 43.1473L51.2181 24.9692C52.0439 24.1423 52.5 23.0442 52.5 21.875C52.5 20.7068 52.0439 19.6076 51.1798 18.7446L32.1333 0.603708C31.71 0.200117 31.1675 -3.61972e-05 30.625 -3.62446e-05C30.0475 -3.62951e-05 29.47 0.227461 29.0402 0.679178C28.2067 1.55418 28.2406 2.93778 29.1156 3.77121L45.8959 19.6875L2.1875 19.6875C0.979998 19.6875 -5.61141e-06 20.6675 -5.71698e-06 21.875C-5.82254e-06 23.0825 0.979997 24.0625 2.1875 24.0625Z" fill="#043B5E"/>
</svg>
