<svg width="38" height="38" viewBox="0 0 38 38" fill="none" xmlns="http://www.w3.org/2000/svg">
<g clip-path="url(#clip0)">
<path d="M34.0015 9.99866C33.2144 10.3794 32.8851 11.3265 33.2659 12.1131C34.3061 14.262 34.8333 16.5782 34.8333 19C34.8333 27.7304 27.7304 34.8333 19 34.8333C10.2696 34.8333 3.16667 27.7304 3.16667 19C3.16667 10.2696 10.2696 3.16667 19 3.16667C22.6178 3.16667 26.0164 4.34798 28.8293 6.58266C29.5116 7.12732 30.5093 7.01329 31.054 6.32869C31.5986 5.64449 31.4846 4.64795 30.7996 4.10406C27.4694 1.45732 23.2788 0 19 0C8.52395 0 0 8.52395 0 19C0 29.4761 8.52395 38 19 38C29.4761 38 38 29.4761 38 19C38 16.097 37.3661 13.3149 36.1159 10.7343C35.7359 9.9457 34.7858 9.61713 34.0015 9.99866Z" fill="black"/>
<path d="M19 6.33325C18.126 6.33325 17.4167 7.04258 17.4167 7.91659V18.9999C17.4167 19.8739 18.126 20.5833 19 20.5833H26.9167C27.7907 20.5833 28.5 19.8739 28.5 18.9999C28.5 18.1259 27.7907 17.4166 26.9167 17.4166H20.5834V7.91659C20.5834 7.04258 19.874 6.33325 19 6.33325Z" fill="black"/>
</g>
<defs>
<clipPath id="clip0">
<rect width="38" height="38" fill="white"/>
</clipPath>
</defs>
</svg>
