<svg width="34" height="34" viewBox="0 0 34 34" fill="none" xmlns="http://www.w3.org/2000/svg">
<g clip-path="url(#clip0)">
<path d="M1.0169 15.8341L8.67944 7.71598C9.15039 7.21649 9.93651 7.19371 10.436 7.66505C10.9347 8.13599 10.9579 8.9225 10.4865 9.4216L3.62877 16.6865L10.4865 23.9523C10.9579 24.4514 10.9347 25.2375 10.436 25.7088C10.1958 25.9354 9.88888 26.0476 9.58315 26.0476C9.25303 26.0476 8.92336 25.9168 8.67937 25.6587L1.01684 17.5401C0.565048 17.061 0.565046 16.3129 1.0169 15.8341Z" fill="#FF3300"/>
<path d="M24.0041 23.9518L30.8615 16.6865L24.0041 9.42119C23.5332 8.92209 23.556 8.13552 24.0551 7.66463C24.5538 7.19368 25.3407 7.21646 25.8116 7.71557L33.4742 15.8337C33.926 16.3125 33.926 17.0609 33.4742 17.5398L25.8112 25.6583C25.5669 25.9172 25.2376 26.0477 24.9075 26.0477C24.6018 26.0477 24.2948 25.935 24.0551 25.7084C23.5555 25.2375 23.5332 24.4509 24.0041 23.9518Z" fill="#FF3300"/>
<path d="M15.2352 3.52921C15.9132 3.42651 16.5478 3.89202 16.6513 4.57006L20.2962 28.4275C20.3998 29.1059 19.9338 29.7401 19.2554 29.8436C19.1915 29.8531 19.1286 29.8577 19.0661 29.8577C18.4626 29.8577 17.9332 29.4174 17.8392 28.8028L14.1943 4.94536C14.0908 4.26686 14.5567 3.63276 15.2352 3.52921Z" fill="#FF3300"/>
</g>
<defs>
<clipPath id="clip0">
<rect width="33.1351" height="33.1351" transform="matrix(-1 0 0 1 33.813 0.118896)" fill="white"/>
</clipPath>
</defs>
</svg>
