<svg width="39" height="39" viewBox="0 0 39 39" fill="none" xmlns="http://www.w3.org/2000/svg">
<g clip-path="url(#clip0)">
<path d="M38.4957 19.323C38.4957 8.93919 30.0928 0.535156 19.7078 0.535156C9.32395 0.535156 0.919922 8.93804 0.919922 19.323C0.919922 29.6149 9.25257 38.1109 19.7078 38.1109C30.12 38.1109 38.4957 29.6622 38.4957 19.323ZM19.7078 2.73686C28.8535 2.73686 36.294 10.1774 36.294 19.323C36.294 22.6686 35.2989 25.8843 33.4535 28.608C26.0434 20.6372 13.3856 20.6228 5.96205 28.608C4.11669 25.8843 3.12163 22.6686 3.12163 19.323C3.12163 10.1774 10.5621 2.73686 19.7078 2.73686ZM7.33525 30.3683C13.9237 22.9782 25.4936 22.9799 32.0801 30.3683C25.4695 37.764 13.9487 37.7663 7.33525 30.3683Z" fill="#606060"/>
<path d="M19.7086 20.4237C23.3506 20.4237 26.3137 17.4605 26.3137 13.8185V11.6168C26.3137 7.97485 23.3506 5.01172 19.7086 5.01172C16.0666 5.01172 13.1035 7.97485 13.1035 11.6168V13.8185C13.1035 17.4605 16.0666 20.4237 19.7086 20.4237ZM15.3052 11.6168C15.3052 9.18865 17.2804 7.21342 19.7086 7.21342C22.1368 7.21342 24.112 9.18865 24.112 11.6168V13.8185C24.112 16.2467 22.1368 18.2219 19.7086 18.2219C17.2804 18.2219 15.3052 16.2467 15.3052 13.8185V11.6168Z" fill="#606060"/>
</g>
<defs>
<clipPath id="clip0">
<rect x="0.919922" y="0.535156" width="37.5758" height="37.5758" fill="white"/>
</clipPath>
</defs>
</svg>
