<svg width="39" height="39" viewBox="0 0 39 39" fill="none" xmlns="http://www.w3.org/2000/svg">
<g clip-path="url(#clip0)">
<path d="M38.0406 19.323C38.0406 8.93919 29.6377 0.535156 19.2527 0.535156C8.86888 0.535156 0.464844 8.93804 0.464844 19.323C0.464844 29.6149 8.79749 38.1109 19.2527 38.1109C29.665 38.1109 38.0406 29.6622 38.0406 19.323ZM19.2527 2.73686C28.3984 2.73686 35.8389 10.1774 35.8389 19.323C35.8389 22.6686 34.8438 25.8843 32.9985 28.608C25.5884 20.6372 12.9306 20.6228 5.50698 28.608C3.66162 25.8843 2.66655 22.6686 2.66655 19.323C2.66655 10.1774 10.107 2.73686 19.2527 2.73686ZM6.88018 30.3683C13.4687 22.9782 25.0385 22.9799 31.625 30.3683C25.0144 37.764 13.4936 37.7663 6.88018 30.3683Z" fill="white"/>
<path d="M19.2536 20.4237C22.8955 20.4237 25.8587 17.4605 25.8587 13.8185V11.6168C25.8587 7.97485 22.8955 5.01172 19.2536 5.01172C15.6116 5.01172 12.6484 7.97485 12.6484 11.6168V13.8185C12.6484 17.4605 15.6116 20.4237 19.2536 20.4237ZM14.8501 11.6168C14.8501 9.18865 16.8254 7.21342 19.2536 7.21342C21.6817 7.21342 23.657 9.18865 23.657 11.6168V13.8185C23.657 16.2467 21.6817 18.2219 19.2536 18.2219C16.8254 18.2219 14.8501 16.2467 14.8501 13.8185V11.6168Z" fill="white"/>
</g>
<defs>
<clipPath id="clip0">
<rect x="0.464844" y="0.535156" width="37.5758" height="37.5758" fill="white"/>
</clipPath>
</defs>
</svg>
