<svg width="38" height="39" viewBox="0 0 38 39" fill="none" xmlns="http://www.w3.org/2000/svg">
<g clip-path="url(#clip0)">
<path d="M19.2108 19.5759C18.5627 19.5759 18.0366 19.0498 18.0366 18.4016V17.2274H7.077V18.4016C7.077 19.0498 6.55094 19.5759 5.90276 19.5759C5.25458 19.5759 4.72852 19.0498 4.72852 18.4016V16.0531C4.72852 15.405 5.25458 14.8789 5.90276 14.8789H19.2108C19.859 14.8789 20.3851 15.405 20.3851 16.0531V18.4016C20.3851 19.0498 19.859 19.5759 19.2108 19.5759Z" fill="white"/>
<path d="M12.5571 30.1442C11.9089 30.1442 11.3828 29.6182 11.3828 28.97V16.4447C11.3828 15.7966 11.9089 15.2705 12.5571 15.2705C13.2052 15.2705 13.7313 15.7966 13.7313 16.4447V28.97C13.7313 29.6182 13.2052 30.1442 12.5571 30.1442Z" fill="white"/>
<path d="M14.5142 30.536H10.6C9.95184 30.536 9.42578 30.0099 9.42578 29.3617C9.42578 28.7136 9.95184 28.1875 10.6 28.1875H14.5142C15.1623 28.1875 15.6884 28.7136 15.6884 29.3617C15.6884 30.0099 15.1623 30.536 14.5142 30.536Z" fill="white"/>
<path d="M31.7353 17.2274H24.6899C24.0417 17.2274 23.5156 16.7013 23.5156 16.0531C23.5156 15.405 24.0417 14.8789 24.6899 14.8789H31.7353C32.3835 14.8789 32.9096 15.405 32.9096 16.0531C32.9096 16.7013 32.3835 17.2274 31.7353 17.2274Z" fill="white"/>
<path d="M31.7353 23.4901H24.6899C24.0417 23.4901 23.5156 22.964 23.5156 22.3158C23.5156 21.6677 24.0417 21.1416 24.6899 21.1416H31.7353C32.3835 21.1416 32.9096 21.6677 32.9096 22.3158C32.9096 22.964 32.3835 23.4901 31.7353 23.4901Z" fill="white"/>
<path d="M31.7353 29.7528H24.6899C24.0417 29.7528 23.5156 29.2267 23.5156 28.5785C23.5156 27.9304 24.0417 27.4043 24.6899 27.4043H31.7353C32.3835 27.4043 32.9096 27.9304 32.9096 28.5785C32.9096 29.2267 32.3835 29.7528 31.7353 29.7528Z" fill="white"/>
<path d="M33.3015 36.798H4.33681C1.9617 36.798 0.03125 34.8675 0.03125 32.4924V6.65907C0.03125 4.28397 1.9617 2.35352 4.33681 2.35352H33.3015C35.6766 2.35352 37.607 4.28397 37.607 6.65907V32.4924C37.607 34.8675 35.6766 36.798 33.3015 36.798ZM4.33681 4.702C3.25807 4.702 2.37973 5.58033 2.37973 6.65907V32.4924C2.37973 33.5711 3.25807 34.4495 4.33681 34.4495H33.3015C34.3802 34.4495 35.2585 33.5711 35.2585 32.4924V6.65907C35.2585 5.58033 34.3802 4.702 33.3015 4.702H4.33681Z" fill="white"/>
<path d="M36.4328 10.1825H1.20549C0.557311 10.1825 0.03125 9.65641 0.03125 9.00823C0.03125 8.36005 0.557311 7.83398 1.20549 7.83398H36.4328C37.0809 7.83398 37.607 8.36005 37.607 9.00823C37.607 9.65641 37.0809 10.1825 36.4328 10.1825Z" fill="white"/>
</g>
<defs>
<clipPath id="clip0">
<rect x="0.03125" y="0.788086" width="37.5758" height="37.5758" fill="white"/>
</clipPath>
</defs>
</svg>
