<svg width="42" height="41" viewBox="0 0 42 41" fill="none" xmlns="http://www.w3.org/2000/svg">
<g clip-path="url(#clip0)">
<path d="M26.3179 25.9063C32.4453 25.9063 37.4307 20.9212 37.4307 14.7935C37.4307 8.666 32.4453 3.68066 26.3179 3.68066C20.1904 3.68066 15.2051 8.666 15.2051 14.7935C15.2051 20.9212 20.1904 25.9063 26.3179 25.9063ZM26.3179 5.24632C31.5821 5.24632 35.865 9.52925 35.865 14.7935C35.865 20.0577 31.5821 24.3406 26.3179 24.3406C21.0537 24.3406 16.7707 20.058 16.7707 14.7935C16.7707 9.52925 21.0537 5.24632 26.3179 5.24632Z" fill="white"/>
<path d="M26.2019 29.7783C34.4008 29.7783 41.071 23.1081 41.071 14.9092C41.071 6.71029 34.4008 0.0400391 26.2019 0.0400391C18.003 0.0400391 11.3327 6.71029 11.3327 14.9092C11.3327 18.0209 12.2942 20.9116 13.9347 23.302L11.5025 25.7342L11.1713 25.4031C10.8655 25.0973 10.3698 25.0973 10.064 25.4031L2.15928 33.3078C1.4055 34.0616 0.990234 35.064 0.990234 36.13C0.990234 37.1959 1.4055 38.198 2.15928 38.9518C2.91306 39.7056 3.91514 40.1208 4.98113 40.1208C6.04712 40.1208 7.04951 39.7056 7.80329 38.9518L15.7083 31.0471C15.8551 30.9003 15.9374 30.7012 15.9374 30.4936C15.9374 30.286 15.8551 30.0866 15.7083 29.9398L15.3768 29.6086L17.8091 27.1764C20.1995 28.8169 23.0905 29.7783 26.2019 29.7783ZM26.2019 1.6057C33.5375 1.6057 39.5054 7.57354 39.5054 14.9092C39.5054 22.2448 33.5375 28.2127 26.2019 28.2127C18.8665 28.2127 12.8984 22.2448 12.8984 14.9092C12.8984 7.57354 18.8665 1.6057 26.2019 1.6057ZM6.69632 37.8448C6.23794 38.3029 5.6291 38.5552 4.98113 38.5552C4.33316 38.5552 3.72432 38.3029 3.26625 37.8448C2.32043 36.8993 2.32043 35.3606 3.26625 34.4148L10.6175 27.0635L10.9487 27.3944C10.9487 27.3947 10.949 27.3947 10.949 27.395L14.0476 30.4936L6.69632 37.8448ZM14.2699 28.5014L12.6097 26.8412L14.8958 24.5551C15.405 25.1508 15.9603 25.7061 16.556 26.2152L14.2699 28.5014Z" fill="white"/>
<path d="M23.6383 12.7352C24.0707 12.7352 24.4211 12.3848 24.4211 11.9524C24.4211 11.4136 24.6517 10.8983 25.0532 10.5387C25.4605 10.1739 25.9874 10.0067 26.5375 10.0675C27.4066 10.1635 28.1071 10.8641 28.2032 11.7332C28.2876 12.4995 27.9105 13.2361 27.2421 13.6098C26.1895 14.1985 25.5354 15.2871 25.5354 16.4506V17.5677C25.5354 18.0001 25.8859 18.3505 26.3183 18.3505C26.7503 18.3505 27.1011 18.0001 27.1011 17.5677V16.4506C27.1011 15.8534 27.4479 15.2886 28.0062 14.9764C29.2251 14.2948 29.9132 12.9542 29.7593 11.5613C29.5835 9.96966 28.3007 8.68717 26.7094 8.51134C25.7259 8.40278 24.741 8.71652 24.0086 9.37245C23.2759 10.0287 22.8555 10.969 22.8555 11.9524C22.8555 12.3848 23.2059 12.7352 23.6383 12.7352Z" fill="white"/>
<path d="M26.318 19.8369C26.1122 19.8369 25.9104 19.9207 25.7648 20.0663C25.6192 20.2118 25.5352 20.4139 25.5352 20.6197C25.5352 20.8264 25.6189 21.0277 25.7648 21.1732C25.9104 21.3194 26.1122 21.4026 26.318 21.4026C26.5241 21.4026 26.7259 21.3194 26.8715 21.1732C27.017 21.0277 27.1008 20.8255 27.1008 20.6197C27.1008 20.4139 27.0173 20.2118 26.8715 20.0663C26.7259 19.9207 26.5241 19.8369 26.318 19.8369Z" fill="white"/>
</g>
<defs>
<clipPath id="clip0">
<rect x="0.990234" y="0.0400391" width="40.0808" height="40.0808" fill="white"/>
</clipPath>
</defs>
</svg>
