<svg width="44" height="44" viewBox="0 0 44 44" fill="none" xmlns="http://www.w3.org/2000/svg">
<g clip-path="url(#clip0)">
<path d="M22.0921 16.3301C19.693 16.3301 17.748 18.2749 17.748 20.6741C17.748 23.0732 19.6929 25.0181 22.0921 25.0181C24.4911 25.0181 26.4361 23.0733 26.4361 20.6741C26.4361 18.2749 24.4912 16.3301 22.0921 16.3301ZM22.0921 22.9494C20.8354 22.9494 19.8166 21.9307 19.8166 20.674C19.8166 19.4173 20.8354 18.3985 22.0921 18.3985C23.3488 18.3985 24.3675 19.4173 24.3675 20.674C24.3675 21.9307 23.3488 22.9494 22.0921 22.9494Z" fill="#606060"/>
<path d="M39.4158 6.40107L11.1799 3.19488C10.0841 3.03908 8.97378 3.359 8.12885 4.07406C7.28402 4.72913 6.74248 5.70016 6.62915 6.76315L6.11205 11.0037H4.50881C2.23337 11.0037 0.526788 13.0205 0.526788 15.296V36.447C0.469476 38.6168 2.182 40.4223 4.35192 40.4797C4.40419 40.481 4.45655 40.4813 4.50881 40.4807H32.8998C35.1752 40.4807 37.2438 38.7224 37.2438 36.447V35.6195C37.9492 35.4832 38.6185 35.2014 39.2089 34.7921C40.0468 34.0867 40.5833 33.0876 40.7086 31.9996L43.0875 11.0037C43.33 8.72304 41.6933 6.6714 39.4158 6.40107ZM35.1752 36.447C35.1752 37.5847 34.0375 38.4121 32.8998 38.4121H4.50881C3.48106 38.4423 2.62347 37.6336 2.59328 36.6058C2.59169 36.5529 2.59238 36.4999 2.59535 36.447V32.6201L10.6111 26.7248C11.574 25.9854 12.9303 26.0512 13.8174 26.8799L19.4542 31.8444C20.3102 32.5631 21.3877 32.9649 22.5054 32.9821C23.3792 32.9928 24.2387 32.7601 24.9877 32.3098L35.1753 26.4144V36.447H35.1752ZM35.1752 23.9839L23.9015 30.5516C22.9335 31.1251 21.7082 31.0212 20.8504 30.293L15.1619 25.2767C13.5315 23.8758 11.1486 23.7899 9.42158 25.0698L2.59535 30.0344V15.296C2.59535 14.1582 3.37109 13.0723 4.50881 13.0723H32.8998C34.1153 13.1227 35.0969 14.082 35.1752 15.296V23.9839ZM41.0209 10.7245C41.0202 10.7313 41.0196 10.7382 41.0188 10.7451L38.5883 31.741C38.5924 32.2854 38.3442 32.801 37.916 33.1372C37.7091 33.3441 37.2437 33.4475 37.2437 33.551V15.296C37.162 12.94 35.2564 11.0571 32.8997 11.0037H8.18052L8.64594 6.97003C8.74691 6.44769 9.02 5.97435 9.42168 5.62543C9.87522 5.31185 10.4236 5.16565 10.9732 5.21168L39.1573 8.46964C40.2945 8.57763 41.1289 9.58717 41.0209 10.7245Z" fill="#606060"/>
</g>
<defs>
<clipPath id="clip0">
<rect x="0.525391" y="0.525391" width="42.5859" height="42.5859" fill="white"/>
</clipPath>
</defs>
</svg>
