<svg width="59" height="59" viewBox="0 0 59 59" fill="none" xmlns="http://www.w3.org/2000/svg">
<path d="M49.2166 14.7031H9.74498C9.19942 14.7031 8.75781 15.1454 8.75781 15.6903V43.3207C8.75781 43.8656 9.2001 44.3072 9.74498 44.3072H49.2166C49.7615 44.3072 50.2031 43.8656 50.2031 43.3207V15.6903C50.2031 15.1454 49.7615 14.7031 49.2166 14.7031ZM11.6622 42.3335L19.6125 31.203L23.9648 37.2863L21.0203 42.3335H11.6622ZM23.3064 42.3335L35.4011 21.5963L47.4984 42.3335H23.3064ZM48.2294 16.6768V39.6696L36.2544 19.1437C35.9378 18.6728 35.2991 18.5478 34.8283 18.8644C34.7183 18.9385 34.6231 19.0336 34.5491 19.1437L25.0538 35.4261L20.4163 28.9399C20.2322 28.6776 19.9332 28.52 19.6125 28.5187C19.2939 28.5187 18.995 28.6722 18.8095 28.9317L10.7321 40.2403V16.6768H48.2294Z" fill="#606060"/>
<path d="M58.8628 40.0262L56.1235 29.8019V11.7435C56.1235 10.1089 54.798 8.7834 53.1633 8.7834H50.4872L49.6651 5.7003C49.2351 4.12749 47.6154 3.19604 46.0399 3.61659L26.7457 8.7834H5.79712C4.16249 8.7834 2.83699 10.1089 2.83699 11.7435V15.1888L2.1936 15.36C0.619434 15.79 -0.315416 17.407 0.0976572 18.9859L2.83699 29.2102V47.2685C2.83699 48.9032 4.16249 50.2287 5.79712 50.2287H8.47327L9.29534 53.3111C9.71996 54.8873 11.3417 55.8208 12.9179 55.3962C12.9186 55.3955 12.9199 55.3955 12.9206 55.3955L32.2148 50.2287H53.1633C54.798 50.2287 56.1235 48.9032 56.1235 47.2679V43.8233L56.7669 43.6514C58.341 43.222 59.2759 41.6051 58.8628 40.0262ZM46.5514 5.52705C47.0753 5.3871 47.6133 5.69554 47.7574 6.21732L48.4422 8.7834H34.3746L46.5514 5.52705ZM2.00473 18.4784C1.86749 17.9505 2.18001 17.4104 2.70518 17.2657L2.83699 17.231V21.5846L2.00473 18.4784ZM12.4083 53.4898C11.8852 53.6297 11.3471 53.3213 11.2024 52.7995L10.5162 50.2287H24.5858L12.4083 53.4898ZM54.1498 47.2685C54.1498 47.8134 53.7082 48.255 53.1633 48.255H5.79712C5.25224 48.255 4.81064 47.8134 4.81064 47.2685V11.7435C4.81064 11.1987 5.25224 10.7571 5.79712 10.7571H53.1633C53.7082 10.7571 54.1498 11.1987 54.1498 11.7435V47.2685ZM56.2546 41.7423L56.1235 41.7804V37.4268L56.9557 40.533C57.0903 41.0595 56.7784 41.5976 56.2546 41.7423Z" fill="#606060"/>
<path d="M23.5586 27.5316C25.7388 27.5316 27.5059 25.7645 27.5059 23.585C27.5059 21.4048 25.7388 19.6377 23.5586 19.6377C21.3784 19.6377 19.6113 21.4048 19.6113 23.585C19.6113 25.7645 21.3784 27.5316 23.5586 27.5316ZM23.5586 21.6113C24.6484 21.6113 25.5323 22.4946 25.5323 23.585C25.5323 24.6747 24.6484 25.558 23.5586 25.558C22.4689 25.558 21.585 24.6747 21.585 23.585C21.585 22.4946 22.4689 21.6113 23.5586 21.6113Z" fill="#606060"/>
</svg>
