<svg width="208" height="142" viewBox="0 0 208 142" fill="none" xmlns="http://www.w3.org/2000/svg">
<path d="M129.168 127.02H1.61816V0H45.6609H129.168V83.4067V127.02Z" fill="#050505"/>
<path d="M136.872 127.686C134.967 127.686 133.476 126.201 133.476 124.305C133.476 122.466 134.967 120.981 136.872 120.981C138.718 120.981 140.209 122.466 140.209 124.305C140.209 126.201 138.723 127.686 136.872 127.686Z" fill="#FF3300"/>
<path opacity="0.5" d="M154.274 127.744C146.942 127.744 140.925 121.277 140.925 113.557C140.925 105.779 146.947 99.3696 154.274 99.3696C161.549 99.3696 167.565 105.779 167.565 113.557C167.565 121.277 161.549 127.744 154.274 127.744ZM154.274 103.348C149.505 103.348 145.812 107.861 145.812 113.557C145.812 119.253 149.505 123.765 154.274 123.765C158.986 123.765 162.679 119.253 162.679 113.557C162.679 107.861 158.986 103.348 154.274 103.348Z" fill="#606060"/>
<path opacity="0.5" d="M182.05 104.949C181.159 104.178 180.681 103.882 180.145 103.882C178.479 103.882 176.33 106.318 173.768 110.947V126.973H169.3V100.083H173.768V104.949C177.105 100.675 178.776 99.3696 180.803 99.3696C181.816 99.3696 183.069 100.025 184.262 101.208L182.05 104.949Z" fill="#606060"/>
<path opacity="0.5" d="M201.718 103.824C202.79 105.425 203.326 107.206 203.326 109.404C203.326 114.862 198.497 119.554 192.836 119.554C192.481 119.554 191.94 119.496 191.165 119.438C190.985 119.438 190.687 119.38 190.268 119.38C187.764 121.457 186.751 122.645 186.751 123.417C186.751 124.13 187.345 124.368 189.016 124.368H199.086C204.095 124.368 206.361 126.328 206.361 130.661C206.361 136.954 199.861 142 191.759 142C186.098 142 181.211 139.031 181.211 135.528C181.211 134.756 181.509 133.805 182.044 132.738C182.819 131.253 183.594 130.244 185.62 128.109C182.877 127.338 181.747 126.445 181.747 124.902C181.747 123.179 183.419 121.161 187.053 118.196C183.657 116.358 181.869 113.388 181.869 109.647C181.869 103.592 186.337 99.3804 192.656 99.3804C194.624 99.3804 195.754 99.6182 198.375 100.506H202.487L207.374 100.088V103.829H201.718V103.824ZM199.097 128.458H189.027L188.13 129.821C186.4 132.489 185.865 133.562 185.865 134.571C185.865 136.59 188.544 138.016 192.184 138.016C197.664 138.016 202.615 134.809 202.615 131.19C202.615 129.345 201.479 128.458 199.097 128.458ZM192.359 102.757C189.08 102.757 186.4 105.784 186.4 109.462C186.4 113.14 189.085 116.167 192.422 116.167C195.818 116.167 198.444 113.261 198.444 109.462C198.439 105.726 195.76 102.757 192.359 102.757Z" fill="#606060"/>
<path d="M3.98459 46.8101H12.8027V53.8218H17.6044V59.9353H12.8027V72.8598C12.8027 74.7514 13.5667 75.7025 15.1001 75.7025C16.0498 75.7025 16.904 75.6127 17.6627 75.4436L18.3047 81.964C16.5008 82.3867 14.6862 82.6033 12.8611 82.6033C9.89517 82.6033 7.67207 81.8213 6.19708 80.2573C4.72209 78.6932 3.98459 76.2468 3.98459 72.9232V59.9406H0V53.8271H3.98459V46.8101Z" fill="white"/>
<path d="M30.9379 82.6033C27.9295 82.6033 25.6109 81.6522 23.9821 79.75C22.3532 77.8478 21.5361 74.9417 21.5361 71.0421V53.8271H30.3808V71.1003C30.3808 74.2495 31.5321 75.8241 33.8454 75.8241C35.7289 75.8241 37.1827 75.301 38.212 74.26V53.8271H47.0566V82.0538H39.3156L38.7638 78.7197C36.8803 81.3088 34.2699 82.6033 30.9379 82.6033Z" fill="white"/>
<path d="M13.0948 128.288H4.21835V106.175H0.143555V100.061H4.21835V97.1339C4.21835 93.8895 5.18929 91.3955 7.13118 89.6571C9.07308 87.9187 11.848 87.0469 15.4559 87.0469C16.5807 87.0469 18.045 87.2318 19.849 87.5964L19.1805 94.0903C18.0557 93.916 17.1696 93.8314 16.5329 93.8314C15.4293 93.8314 14.5804 94.1168 13.9862 94.6874C13.3919 95.2581 13.1001 96.0718 13.1001 97.1339V100.061H18.6021V106.175H13.0948V128.288Z" fill="white"/>
<path d="M31.0811 87.5967V93.5094H22.2046V87.5967H31.0811ZM31.0811 100.061V128.288H22.2046V100.061H31.0811Z" fill="white"/>
<path d="M45.3423 128.288H36.4658V100.061H44.817L45.1088 104.204C46.3875 101.092 48.3294 99.5381 50.9292 99.5381C51.8577 99.5381 52.6748 99.6438 53.3751 99.8551L52.4732 107.823L49.2738 107.797C47.2948 107.797 45.9843 108.452 45.3423 109.768V128.288Z" fill="white"/>
<path d="M81.2518 108.061L81.3101 109.451V128.288H72.4655V111.099C72.4655 109.324 72.1949 108.082 71.6484 107.374C71.1019 106.666 70.2318 106.317 69.0274 106.317C67.4144 106.317 66.1358 106.899 65.186 108.056V128.288H56.3096V100.061H64.6342L64.9261 103.802C66.8096 100.96 69.542 99.5435 73.134 99.5435C76.7207 99.5435 79.1454 101.092 80.4081 104.183C82.2333 101.092 84.9552 99.5435 88.5843 99.5435C91.4175 99.5435 93.6035 100.505 95.1474 102.428C96.6914 104.352 97.4607 107.242 97.4607 111.11V128.299H88.5843V111.11C88.5843 109.335 88.3137 108.093 87.7672 107.385C87.226 106.682 86.3612 106.328 85.178 106.328C83.5544 106.323 82.2439 106.899 81.2518 108.061Z" fill="white"/>
<path d="M110.295 128.901C107.579 128.901 105.388 128.13 103.716 126.581C102.045 125.038 101.212 122.978 101.212 120.41C101.212 117.551 102.268 115.369 104.385 113.874C106.502 112.378 109.69 111.628 113.962 111.628H117.193V109.631C117.193 107.137 116.031 105.89 113.702 105.89C111.685 105.89 110.677 106.878 110.677 108.843L102.119 108.817L102.061 108.674C101.944 106.048 103.021 103.876 105.292 102.17C107.563 100.458 110.523 99.6069 114.184 99.6069C117.845 99.6069 120.737 100.484 122.87 102.244C125.003 104.003 126.069 106.487 126.069 109.694V120.33C126.069 123.152 126.573 125.826 127.581 128.357L118.848 128.33C118.323 127.326 117.936 126.254 117.686 125.112C115.845 127.633 113.383 128.901 110.295 128.901ZM111.038 117.292C110.37 117.942 110.035 118.74 110.035 119.696C110.035 120.653 110.311 121.377 110.863 121.868C111.415 122.359 112.131 122.608 113.001 122.608C114.768 122.608 116.163 121.979 117.193 120.721V116.315H114.052C112.715 116.32 111.707 116.642 111.038 117.292Z" fill="white"/>
</svg>
