<svg width="1917" height="402" viewBox="0 0 1917 402" fill="none" xmlns="http://www.w3.org/2000/svg">
<g opacity="0.6">
<path opacity="0.9" d="M160.4 262.9C160.4 262.9 161 230.4 159.1 223.7C157.2 217 143.7 201.5 137.2 192.5C130.7 183.6 131.1 178.6 126.9 172.7C122.7 166.8 120.2 163.6 118.5 159.4C116.8 155.2 112 150.5 116.2 148.6C120.4 146.7 124.2 146.9 129.9 153.2C135.6 159.5 140.4 171.1 144.9 170.5C149.5 169.9 151 163.7 150.4 154.1C149.8 144.6 146.2 141 145.5 134.9C144.7 128.8 141.9 110.4 141.7 105.2C141.5 100.1 143 95.5 145.7 95.1C148.4 94.7 151.4 96.8 153.5 106.7C155.6 116.6 158.2 124.8 160.4 135.2C162.6 145.7 165.1 145.1 166.4 143.8C167.7 142.5 166.6 129.4 166.4 121.9C166.2 114.5 167.1 94.1 167 89.2C166.9 84.3 169.4 81.6 172.8 82.2C176.2 82.8 177.7 84.1 177.6 91.3C177.4 98.5 180.3 118.1 180.3 123.1C180.3 128 178.6 144 183.2 144.4L184.5 144.2C184.5 144.2 186 125.6 186 119.9C186 114.2 183.9 94 187.1 91.2C190.3 88.3 194.5 88.3 195.3 98C196.1 107.7 197.2 115.9 198.2 123.3C199.2 130.7 198.4 136.6 198.2 139.8C198 143 197.1 150.8 200.5 151.2C203.9 151.6 206.4 136.9 208.1 130.5C209.8 124 211 109.4 217.2 110.7C223.5 112 219.1 129.7 218 138.3C216.9 146.9 214.6 162.1 215 168.1C215.4 174.2 214.4 195.6 207.6 212.1C200.8 228.6 205.3 367.5 206.2 379.8H160.3L160.4 262.9Z" fill="#FFDD75" fill-opacity="0.5"/>
<path d="M115.7 344.7C115.7 344.7 115.3 322.5 116.6 318C117.9 313.5 127.1 302.8 131.5 296.7C135.9 290.6 135.7 287.2 138.5 283.2C141.4 279.2 143 277 144.2 274.1C145.4 271.2 148.6 268 145.8 266.7C142.9 265.4 140.3 265.5 136.5 269.8C132.6 274.1 129.4 282 126.2 281.6C123.1 281.2 122 276.9 122.4 270.4C122.8 263.9 125.3 261.4 125.8 257.3C126.3 253.1 128.3 240.6 128.4 237.1C128.5 233.6 127.5 230.5 125.7 230.2C123.9 229.9 121.8 231.4 120.4 238.1C119 244.8 117.2 250.4 115.7 257.6C114.2 264.7 112.5 264.3 111.6 263.4C110.7 262.5 111.5 253.5 111.6 248.5C111.7 243.4 111.1 229.6 111.2 226.2C111.2 222.8 109.6 221 107.2 221.4C104.9 221.8 103.8 222.7 104 227.6C104.1 232.5 102.2 245.9 102.2 249.3C102.2 252.7 103.4 263.6 100.3 263.8L99.4 263.7C99.4 263.7 98.4 251 98.4 247.1C98.4 243.2 99.8 229.5 97.6 227.5C95.4 225.6 92.5 225.6 92 232.2C91.5 238.8 90.7 244.4 90.1 249.5C89.4 254.6 90 258.6 90.1 260.8C90.2 263 90.9 268.3 88.5 268.6C86.2 268.9 84.5 258.9 83.3 254.5C82.1 250.1 81.4 240.1 77.1 241C72.8 241.9 75.8 254 76.6 259.8C77.4 265.6 78.9 276 78.7 280.2C78.4 284.4 79.1 299 83.8 310.2C88.5 321.5 85.4 371.2 84.8 379.6H116.1L115.7 344.7Z" fill="#FFDD75" fill-opacity="0.5"/>
<path d="M621.2 340.3C621.2 340.3 620.8 318.1 622.1 313.6C623.4 309.1 632.6 298.4 637 292.3C641.4 286.2 641.2 282.8 644 278.8C646.9 274.8 648.5 272.6 649.7 269.7C650.9 266.8 654.1 263.6 651.3 262.3C648.4 261 645.8 261.1 642 265.4C638.1 269.7 634.9 277.6 631.7 277.2C628.6 276.8 627.5 272.5 627.9 266C628.3 259.5 630.8 257 631.3 252.9C631.8 248.7 633.8 236.2 633.9 232.7C634 229.2 633 226.1 631.2 225.8C629.4 225.5 627.3 227 625.9 233.7C624.5 240.4 622.7 246 621.2 253.2C619.7 260.3 618 259.9 617.1 259C616.2 258.1 617 249.1 617.1 244.1C617.2 239 616.6 225.2 616.7 221.8C616.7 218.4 615.1 216.6 612.7 217C610.4 217.4 609.3 218.3 609.5 223.2C609.6 228.1 607.7 241.5 607.7 244.9C607.7 248.3 608.9 259.2 605.8 259.4L604.9 259.3C604.9 259.3 603.9 246.6 603.9 242.7C603.9 238.8 605.3 225.1 603.1 223.1C600.9 221.2 598 221.2 597.5 227.8C597 234.4 596.2 240 595.6 245.1C594.9 250.2 595.5 254.2 595.6 256.4C595.7 258.6 596.4 263.9 594 264.2C591.7 264.5 590 254.5 588.8 250.1C587.6 245.7 586.9 235.7 582.6 236.6C578.3 237.5 581.3 249.6 582.1 255.4C582.9 261.2 584.4 271.6 584.2 275.8C583.9 280 584.6 294.6 589.3 305.8C594 317.1 590.9 371.8 590.3 380.2H621.6L621.2 340.3Z" fill="#FFDD75" fill-opacity="0.5"/>
<path opacity="0.8" d="M48.2 275.8C48.2 275.8 47.8 253.6 49.1 249.1C50.4 244.6 59.6 233.9 64 227.8C68.4 221.7 68.2 218.3 71 214.3C73.9 210.3 75.5 208.1 76.7 205.2C77.9 202.3 81.1 199.1 78.3 197.8C75.4 196.5 72.8 196.6 69 200.9C65.1 205.2 61.9 213.1 58.7 212.7C55.6 212.3 54.5 208 54.9 201.5C55.3 195 57.8 192.5 58.3 188.4C58.8 184.2 60.8 171.7 60.9 168.2C61 164.7 60 161.6 58.2 161.3C56.4 161 54.3 162.5 52.9 169.2C51.5 175.9 49.7 181.5 48.2 188.7C46.7 195.8 45 195.4 44.1 194.5C43.2 193.6 44 184.6 44.1 179.6C44.2 174.5 43.6 160.7 43.7 157.3C43.7 153.9 42.1 152.1 39.7 152.5C37.4 152.9 36.3 153.8 36.5 158.7C36.6 163.6 34.7 177 34.7 180.4C34.7 183.8 35.9 194.7 32.8 194.9L31.9 194.8C31.9 194.8 30.9 182.1 30.9 178.2C30.9 174.3 32.3 160.6 30.1 158.6C27.9 156.7 25 156.7 24.5 163.3C24 169.9 23.2 175.5 22.6 180.6C21.9 185.7 22.5 189.7 22.6 191.9C22.7 194.1 23.4 199.4 21 199.7C18.7 200 17 190 15.8 185.6C14.6 181.2 13.9 171.2 9.60002 172.1C5.30002 173 8.30002 185.1 9.10002 190.9C9.90002 196.7 11.4 207.1 11.2 211.3C10.9 215.5 11.6 230.1 16.3 241.3C21 252.6 17.9 373.3 17.3 381.7H48.6L48.2 275.8Z" fill="#FFDD75" fill-opacity="0.5"/>
<path opacity="0.8" d="M238.2 335.7C238.2 335.7 238.6 313.5 237.3 309C236 304.5 226.8 293.8 222.4 287.7C218 281.6 218.2 278.2 215.4 274.2C212.5 270.2 210.9 268 209.7 265.1C208.5 262.2 205.3 259 208.1 257.7C211 256.4 213.6 256.5 217.4 260.8C221.3 265.1 224.5 273 227.7 272.6C230.8 272.2 231.9 267.9 231.5 261.4C231.1 254.9 228.6 252.4 228.1 248.3C227.6 244.1 225.6 231.6 225.5 228.1C225.4 224.6 226.4 221.5 228.2 221.2C230 220.9 232.1 222.4 233.5 229.1C234.9 235.8 236.7 241.4 238.2 248.6C239.7 255.7 241.4 255.3 242.3 254.4C243.2 253.5 242.4 244.5 242.3 239.5C242.2 234.4 242.8 220.6 242.7 217.2C242.7 213.8 244.3 212 246.7 212.4C249 212.8 250.1 213.7 249.9 218.6C249.8 223.5 251.7 236.9 251.7 240.3C251.7 243.7 250.5 254.6 253.6 254.8L254.5 254.7C254.5 254.7 255.5 242 255.5 238.1C255.5 234.2 254.1 220.5 256.3 218.5C258.5 216.6 261.4 216.6 261.9 223.2C262.4 229.8 263.2 235.4 263.8 240.5C264.5 245.6 263.9 249.6 263.8 251.8C263.7 254 263 259.3 265.4 259.6C267.7 259.9 269.4 249.9 270.6 245.5C271.8 241.1 272.5 231.1 276.8 232C281.1 232.9 278.1 245 277.3 250.8C276.5 256.6 275 267 275.2 271.2C275.5 275.4 274.8 290 270.1 301.2C265.4 312.5 268.5 371.2 269.1 379.6H237.8L238.2 335.7Z" fill="#FFDD75" fill-opacity="0.5"/>
<path opacity="0.7" d="M304.2 268.2C304.2 268.2 304.6 246 303.3 241.5C302 237 292.8 226.3 288.4 220.2C284 214.1 284.2 210.7 281.4 206.7C278.5 202.7 276.9 200.5 275.7 197.6C274.5 194.7 271.3 191.5 274.1 190.2C277 188.9 279.6 189 283.4 193.3C287.3 197.6 290.5 205.5 293.7 205.1C296.8 204.7 297.9 200.4 297.5 193.9C297.1 187.4 294.6 184.9 294.1 180.8C293.6 176.6 291.6 164.1 291.5 160.6C291.4 157.1 292.4 154 294.2 153.7C296 153.4 298.1 154.9 299.5 161.6C300.9 168.3 302.7 173.9 304.2 181.1C305.7 188.2 307.4 187.8 308.3 186.9C309.2 186 308.4 177 308.3 172C308.2 166.9 308.8 153.1 308.7 149.7C308.7 146.3 310.3 144.5 312.7 144.9C315 145.3 316.1 146.2 315.9 151.1C315.8 156 317.7 169.4 317.7 172.8C317.7 176.2 316.5 187.1 319.6 187.3L320.5 187.2C320.5 187.2 321.5 174.5 321.5 170.6C321.5 166.7 320.1 153 322.3 151C324.5 149.1 327.4 149.1 327.9 155.7C328.4 162.3 329.2 167.9 329.8 173C330.5 178.1 329.9 182.1 329.8 184.3C329.7 186.5 329 191.8 331.4 192.1C333.7 192.4 335.4 182.4 336.6 178C337.8 173.6 338.5 163.6 342.8 164.5C347.1 165.4 344.1 177.5 343.3 183.3C342.5 189.1 341 199.5 341.2 203.7C341.5 207.9 340.8 222.5 336.1 233.7C331.4 245 334.5 371.7 335.1 380.1H303.8L304.2 268.2Z" fill="#FFDD75" fill-opacity="0.5"/>
<path opacity="0.8" d="M659.7 269.7C659.7 269.7 660.1 247.5 658.8 243C657.5 238.5 648.3 227.8 643.9 221.7C639.5 215.6 639.7 212.2 636.9 208.2C634 204.2 632.4 202 631.2 199.1C630 196.2 626.8 193 629.6 191.7C632.5 190.4 635.1 190.5 638.9 194.8C642.8 199.1 646 207 649.2 206.6C652.3 206.2 653.4 201.9 653 195.4C652.6 188.9 650.1 186.4 649.6 182.3C649.1 178.1 647.1 165.6 647 162.1C646.9 158.6 647.9 155.5 649.7 155.2C651.5 154.9 653.6 156.4 655 163.1C656.4 169.8 658.2 175.4 659.7 182.6C661.2 189.7 662.9 189.3 663.8 188.4C664.7 187.5 663.9 178.5 663.8 173.5C663.7 168.4 664.3 154.6 664.2 151.2C664.2 147.8 665.8 146 668.2 146.4C670.5 146.8 671.6 147.7 671.4 152.6C671.3 157.5 673.2 170.9 673.2 174.3C673.2 177.7 672 188.6 675.1 188.8L676 188.7C676 188.7 677 176 677 172.1C677 168.2 675.6 154.5 677.8 152.5C680 150.6 682.9 150.6 683.4 157.2C683.9 163.8 684.7 169.4 685.3 174.5C686 179.6 685.4 183.6 685.3 185.8C685.2 188 684.5 193.3 686.9 193.6C689.2 193.9 690.9 183.9 692.1 179.5C693.3 175.1 694 165.1 698.3 166C702.6 166.9 699.6 179 698.8 184.8C698 190.6 696.5 201 696.7 205.2C697 209.4 696.3 224 691.6 235.2C686.9 246.5 690 372.2 690.6 380.6H659.3L659.7 269.7Z" fill="#FFDD75" fill-opacity="0.5"/>
<path d="M404 242.7C404 242.7 403.6 253.5 404.9 249C406.2 244.5 415.4 233.8 419.8 227.7C424.2 221.6 424 218.2 426.8 214.2C429.7 210.2 431.3 208 432.5 205.1C433.7 202.2 436.9 199 434.1 197.7C431.2 196.4 428.6 196.5 424.8 200.8C420.9 205.1 417.7 213 414.5 212.6C411.4 212.2 410.3 207.9 410.7 201.4C411.1 194.9 413.6 192.4 414.1 188.3C414.6 184.1 416.6 171.6 416.7 168.1C416.8 164.6 415.8 161.5 414 161.2C412.2 160.9 410.1 162.4 408.7 169.1C407.3 175.8 405.5 181.4 404 188.6C402.5 195.7 400.8 195.3 399.9 194.4C399 193.5 399.8 184.5 399.9 179.5C400 174.4 399.4 160.6 399.5 157.2C399.5 153.8 397.9 152 395.5 152.4C393.2 152.8 392.1 153.7 392.3 158.6C392.4 163.5 390.5 176.9 390.5 180.3C390.5 183.7 391.7 194.6 388.6 194.8L387.7 194.7C387.7 194.7 386.7 182 386.7 178.1C386.7 174.2 388.1 160.5 385.9 158.5C383.7 156.6 380.8 156.6 380.3 163.2C379.8 169.8 379 175.4 378.4 180.5C377.7 185.6 378.3 189.6 378.4 191.8C378.5 194 379.2 199.3 376.8 199.6C374.5 199.9 372.8 189.9 371.6 185.5C370.4 181.1 369.7 171.1 365.4 172C361.1 172.9 364.1 185 364.9 190.8C365.7 196.6 367.2 207 367 211.2C366.7 215.4 367.4 230 372.1 241.2C371.5 239.8 378.9 295.9 373.1 379.6H404.4L404 242.7Z" fill="#FFDD75" fill-opacity="0.5"/>
<path opacity="0.8" d="M457.2 337.2C457.2 337.2 457.6 315 456.3 310.5C455 306 445.8 295.3 441.4 289.2C437 283.1 437.2 279.7 434.4 275.7C431.5 271.7 429.9 269.5 428.7 266.6C427.5 263.7 424.3 260.5 427.1 259.2C430 257.9 432.6 258 436.4 262.3C440.3 266.6 443.5 274.5 446.7 274.1C449.8 273.7 450.9 269.4 450.5 262.9C450.1 256.4 447.6 253.9 447.1 249.8C446.6 245.6 444.6 233.1 444.5 229.6C444.4 226.1 445.4 223 447.2 222.7C449 222.4 451.1 223.9 452.5 230.6C453.9 237.3 455.7 242.9 457.2 250.1C458.7 257.2 460.4 256.8 461.3 255.9C462.2 255 461.4 246 461.3 241C461.2 235.9 461.8 222.1 461.7 218.7C461.7 215.3 463.3 213.5 465.7 213.9C468 214.3 469.1 215.2 468.9 220.1C468.8 225 470.7 238.4 470.7 241.8C470.7 245.2 469.5 256.1 472.6 256.3L473.5 256.2C473.5 256.2 474.5 243.5 474.5 239.6C474.5 235.7 473.1 222 475.3 220C477.5 218.1 480.4 218.1 480.9 224.7C481.4 231.3 482.2 236.9 482.8 242C483.5 247.1 482.9 251.1 482.8 253.3C482.7 255.5 482 260.8 484.4 261.1C486.7 261.4 488.4 251.4 489.6 247C490.8 242.6 491.5 232.6 495.8 233.5C500.1 234.4 497.1 246.5 496.3 252.3C495.5 258.1 494 268.5 494.2 272.7C494.5 276.9 493.8 291.5 489.1 302.7C484.4 314 487.5 371.7 488.1 380.1H457L457.2 337.2Z" fill="#FFDD75" fill-opacity="0.5"/>
<path opacity="0.9" d="M564.5 265.1C564.5 265.1 563.9 233.2 565.8 226.7C567.7 220.2 580.9 204.9 587.2 196.1C593.5 187.3 593.2 182.5 597.3 176.7C601.4 170.9 603.8 167.8 605.5 163.7C607.2 159.6 611.8 154.9 607.7 153.1C603.6 151.2 599.9 151.4 594.3 157.6C588.7 163.7 584.1 175.1 579.6 174.6C575.1 174 573.6 167.9 574.2 158.6C574.8 149.3 578.3 145.7 579 139.8C579.7 133.8 582.5 115.8 582.7 110.7C582.9 105.7 581.4 101.2 578.8 100.8C576.2 100.4 573.2 102.5 571.2 112.2C569.2 121.9 566.6 129.9 564.4 140.2C562.2 150.5 559.8 149.9 558.5 148.6C557.2 147.3 558.3 134.4 558.5 127.2C558.7 119.9 557.8 99.9999 557.9 95.0999C558 90.2999 555.5 87.5999 552.2 88.1999C548.8 88.7999 547.4 90.0999 547.5 97.0999C547.7 104.2 544.9 123.4 544.9 128.2C544.9 133 546.6 148.7 542.1 149.1L540.8 148.9C540.8 148.9 539.3 130.6 539.3 125C539.3 119.4 541.4 99.6999 538.2 96.8999C535 94.0999 530.9 94.0999 530.2 103.6C529.5 113.1 528.3 121.1 527.4 128.4C526.5 135.7 527.2 141.4 527.4 144.6C527.6 147.8 528.5 155.4 525.2 155.8C521.8 156.2 519.4 141.8 517.7 135.5C516 129.2 514.9 114.8 508.8 116.1C502.7 117.4 506.9 134.7 508.1 143.1C509.2 151.5 511.5 166.4 511.1 172.4C510.7 178.4 511.7 199.3 518.4 215.5C525.1 231.7 520.6 367.8 519.8 379.8H564.8L564.5 265.1Z" fill="#FFDD75" fill-opacity="0.5"/>
<path opacity="0.9" d="M917.4 258.9C917.4 258.9 918 226.4 916.1 219.7C914.2 213 900.7 197.5 894.2 188.5C887.7 179.6 888.1 174.6 883.9 168.7C879.7 162.8 877.2 159.6 875.5 155.4C873.8 151.2 869 146.5 873.2 144.6C877.4 142.7 881.2 142.9 886.9 149.2C892.6 155.5 897.4 167.1 901.9 166.5C906.5 165.9 908 159.7 907.4 150.1C906.8 140.6 903.2 137 902.5 130.9C901.7 124.8 898.9 106.4 898.7 101.2C898.5 96.1 900 91.5 902.7 91.1C905.4 90.7 908.4 92.8 910.5 102.7C912.6 112.6 915.2 120.8 917.4 131.2C919.6 141.7 922.1 141.1 923.4 139.8C924.7 138.5 923.6 125.4 923.4 117.9C923.2 110.5 924.1 90.1 924 85.2C923.9 80.3 926.4 77.6 929.8 78.2C933.2 78.8 934.7 80.1 934.6 87.3C934.4 94.5 937.3 114.1 937.3 119.1C937.3 124 935.6 140 940.2 140.4L941.5 140.2C941.5 140.2 943 121.6 943 115.9C943 110.2 940.9 90 944.1 87.2C947.3 84.3 951.5 84.3 952.3 94C953.1 103.7 954.2 111.9 955.2 119.3C956.2 126.7 955.4 132.6 955.2 135.8C955 139 954.1 146.8 957.5 147.2C960.9 147.6 963.4 132.9 965.1 126.5C966.8 120 968 105.4 974.2 106.7C980.5 108 976.1 125.7 975 134.3C973.9 142.9 971.6 158.1 972 164.1C972.4 170.2 971.4 191.6 964.6 208.1C957.8 224.6 962.3 363.5 963.2 375.8H917.3L917.4 258.9Z" fill="#FFDD75" fill-opacity="0.5"/>
<path d="M872.7 340.7C872.7 340.7 872.3 318.5 873.6 314C874.9 309.5 884.1 298.8 888.5 292.7C892.9 286.6 892.7 283.2 895.5 279.2C898.4 275.2 900 273 901.2 270.1C902.4 267.2 905.6 264 902.8 262.7C899.9 261.4 897.3 261.5 893.5 265.8C889.6 270.1 886.4 278 883.2 277.6C880.1 277.2 879 272.9 879.4 266.4C879.8 259.9 882.3 257.4 882.8 253.3C883.3 249.1 885.3 236.6 885.4 233.1C885.5 229.6 884.5 226.5 882.7 226.2C880.9 225.9 878.8 227.4 877.4 234.1C876 240.8 874.2 246.4 872.7 253.6C871.2 260.7 869.5 260.3 868.6 259.4C867.7 258.5 868.5 249.5 868.6 244.5C868.7 239.4 868.1 225.6 868.2 222.2C868.2 218.8 866.6 217 864.2 217.4C861.9 217.8 860.8 218.7 861 223.6C861.1 228.5 859.2 241.9 859.2 245.3C859.2 248.7 860.4 259.6 857.3 259.8L856.4 259.7C856.4 259.7 855.4 247 855.4 243.1C855.4 239.2 856.8 225.5 854.6 223.5C852.4 221.6 849.5 221.6 849 228.2C848.5 234.8 847.7 240.4 847.1 245.5C846.4 250.6 847 254.6 847.1 256.8C847.2 259 847.9 264.3 845.5 264.6C843.2 264.9 841.5 254.9 840.3 250.5C839.1 246.1 838.4 236.1 834.1 237C829.8 237.9 832.8 250 833.6 255.8C834.4 261.6 835.9 272 835.7 276.2C835.4 280.4 836.1 295 840.8 306.2C845.5 317.5 842.4 367.2 841.8 375.6H873.1L872.7 340.7Z" fill="#FFDD75" fill-opacity="0.5"/>
<path d="M1378.2 336.3C1378.2 336.3 1377.8 314.1 1379.1 309.6C1380.4 305.1 1389.6 294.4 1394 288.3C1398.4 282.2 1398.2 278.8 1401 274.8C1403.9 270.8 1405.5 268.6 1406.7 265.7C1407.9 262.8 1411.1 259.6 1408.3 258.3C1405.4 257 1402.8 257.1 1399 261.4C1395.1 265.7 1391.9 273.6 1388.7 273.2C1385.6 272.8 1384.5 268.5 1384.9 262C1385.3 255.5 1387.8 253 1388.3 248.9C1388.8 244.7 1390.8 232.2 1390.9 228.7C1391 225.2 1390 222.1 1388.2 221.8C1386.4 221.5 1384.3 223 1382.9 229.7C1381.5 236.4 1379.7 242 1378.2 249.2C1376.7 256.3 1375 255.9 1374.1 255C1373.2 254.1 1374 245.1 1374.1 240.1C1374.2 235 1373.6 221.2 1373.7 217.8C1373.7 214.4 1372.1 212.6 1369.7 213C1367.4 213.4 1366.3 214.3 1366.5 219.2C1366.6 224.1 1364.7 237.5 1364.7 240.9C1364.7 244.3 1365.9 255.2 1362.8 255.4L1361.9 255.3C1361.9 255.3 1360.9 242.6 1360.9 238.7C1360.9 234.8 1362.3 221.1 1360.1 219.1C1357.9 217.2 1355 217.2 1354.5 223.8C1354 230.4 1353.2 236 1352.6 241.1C1351.9 246.2 1352.5 250.2 1352.6 252.4C1352.7 254.6 1353.4 259.9 1351 260.2C1348.7 260.5 1347 250.5 1345.8 246.1C1344.6 241.7 1343.9 231.7 1339.6 232.6C1335.3 233.5 1338.3 245.6 1339.1 251.4C1339.9 257.2 1341.4 267.6 1341.2 271.8C1340.9 276 1341.6 290.6 1346.3 301.8C1351 313.1 1347.9 367.8 1347.3 376.2H1378.6L1378.2 336.3Z" fill="#FFDD75" fill-opacity="0.5"/>
<path opacity="0.8" d="M805.2 271.8C805.2 271.8 804.8 249.6 806.1 245.1C807.4 240.6 816.6 229.9 821 223.8C825.4 217.7 825.2 214.3 828 210.3C830.9 206.3 832.5 204.1 833.7 201.2C834.9 198.3 838.1 195.1 835.3 193.8C832.4 192.5 829.8 192.6 826 196.9C822.1 201.2 818.9 209.1 815.7 208.7C812.6 208.3 811.5 204 811.9 197.5C812.3 191 814.8 188.5 815.3 184.4C815.8 180.2 817.8 167.7 817.9 164.2C818 160.7 817 157.6 815.2 157.3C813.4 157 811.3 158.5 809.9 165.2C808.5 171.9 806.7 177.5 805.2 184.7C803.7 191.8 802 191.4 801.1 190.5C800.2 189.6 801 180.6 801.1 175.6C801.2 170.5 800.6 156.7 800.7 153.3C800.7 149.9 799.1 148.1 796.7 148.5C794.4 148.9 793.3 149.8 793.5 154.7C793.6 159.6 791.7 173 791.7 176.4C791.7 179.8 792.9 190.7 789.8 190.9L788.9 190.8C788.9 190.8 787.9 178.1 787.9 174.2C787.9 170.3 789.3 156.6 787.1 154.6C784.9 152.7 782 152.7 781.5 159.3C781 165.9 780.2 171.5 779.6 176.6C778.9 181.7 779.5 185.7 779.6 187.9C779.7 190.1 780.4 195.4 778 195.7C775.7 196 774 186 772.8 181.6C771.6 177.2 770.9 167.2 766.6 168.1C762.3 169 765.3 181.1 766.1 186.9C766.9 192.7 768.4 203.1 768.2 207.3C767.9 211.5 768.6 226.1 773.3 237.3C778 248.6 774.9 369.3 774.3 377.7H805.6L805.2 271.8Z" fill="#FFDD75" fill-opacity="0.5"/>
<path opacity="0.8" d="M995.2 331.7C995.2 331.7 995.6 309.5 994.3 305C993 300.5 983.8 289.8 979.4 283.7C975 277.6 975.2 274.2 972.4 270.2C969.5 266.2 967.9 264 966.7 261.1C965.5 258.2 962.3 255 965.1 253.7C968 252.4 970.6 252.5 974.4 256.8C978.3 261.1 981.5 269 984.7 268.6C987.8 268.2 988.9 263.9 988.5 257.4C988.1 250.9 985.6 248.4 985.1 244.3C984.6 240.1 982.6 227.6 982.5 224.1C982.4 220.6 983.4 217.5 985.2 217.2C987 216.9 989.1 218.4 990.5 225.1C991.9 231.8 993.7 237.4 995.2 244.6C996.7 251.7 998.4 251.3 999.3 250.4C1000.2 249.5 999.4 240.5 999.3 235.5C999.2 230.4 999.8 216.6 999.7 213.2C999.7 209.8 1001.3 208 1003.7 208.4C1006 208.8 1007.1 209.7 1006.9 214.6C1006.8 219.5 1008.7 232.9 1008.7 236.3C1008.7 239.7 1007.5 250.6 1010.6 250.8L1011.5 250.7C1011.5 250.7 1012.5 238 1012.5 234.1C1012.5 230.2 1011.1 216.5 1013.3 214.5C1015.5 212.6 1018.4 212.6 1018.9 219.2C1019.4 225.8 1020.2 231.4 1020.8 236.5C1021.5 241.6 1020.9 245.6 1020.8 247.8C1020.7 250 1020 255.3 1022.4 255.6C1024.7 255.9 1026.4 245.9 1027.6 241.5C1028.8 237.1 1029.5 227.1 1033.8 228C1038.1 228.9 1035.1 241 1034.3 246.8C1033.5 252.6 1032 263 1032.2 267.2C1032.5 271.4 1031.8 286 1027.1 297.2C1022.4 308.5 1025.5 367.2 1026.1 375.6H994.8L995.2 331.7Z" fill="#FFDD75" fill-opacity="0.5"/>
<path opacity="0.7" d="M1061.2 264.2C1061.2 264.2 1061.6 242 1060.3 237.5C1059 233 1049.8 222.3 1045.4 216.2C1041 210.1 1041.2 206.7 1038.4 202.7C1035.5 198.7 1033.9 196.5 1032.7 193.6C1031.5 190.7 1028.3 187.5 1031.1 186.2C1034 184.9 1036.6 185 1040.4 189.3C1044.3 193.6 1047.5 201.5 1050.7 201.1C1053.8 200.7 1054.9 196.4 1054.5 189.9C1054.1 183.4 1051.6 180.9 1051.1 176.8C1050.6 172.6 1048.6 160.1 1048.5 156.6C1048.4 153.1 1049.4 150 1051.2 149.7C1053 149.4 1055.1 150.9 1056.5 157.6C1057.9 164.3 1059.7 169.9 1061.2 177.1C1062.7 184.2 1064.4 183.8 1065.3 182.9C1066.2 182 1065.4 173 1065.3 168C1065.2 162.9 1065.8 149.1 1065.7 145.7C1065.7 142.3 1067.3 140.5 1069.7 140.9C1072 141.3 1073.1 142.2 1072.9 147.1C1072.8 152 1074.7 165.4 1074.7 168.8C1074.7 172.2 1073.5 183.1 1076.6 183.3L1077.5 183.2C1077.5 183.2 1078.5 170.5 1078.5 166.6C1078.5 162.7 1077.1 149 1079.3 147C1081.5 145.1 1084.4 145.1 1084.9 151.7C1085.4 158.3 1086.2 163.9 1086.8 169C1087.5 174.1 1086.9 178.1 1086.8 180.3C1086.7 182.5 1086 187.8 1088.4 188.1C1090.7 188.4 1092.4 178.4 1093.6 174C1094.8 169.6 1095.5 159.6 1099.8 160.5C1104.1 161.4 1101.1 173.5 1100.3 179.3C1099.5 185.1 1098 195.5 1098.2 199.7C1098.5 203.9 1097.8 218.5 1093.1 229.7C1088.4 241 1091.5 367.7 1092.1 376.1H1060.8L1061.2 264.2Z" fill="#FFDD75" fill-opacity="0.5"/>
<path opacity="0.8" d="M1416.7 265.7C1416.7 265.7 1417.1 243.5 1415.8 239C1414.5 234.5 1405.3 223.8 1400.9 217.7C1396.5 211.6 1396.7 208.2 1393.9 204.2C1391 200.2 1389.4 198 1388.2 195.1C1387 192.2 1383.8 189 1386.6 187.7C1389.5 186.4 1392.1 186.5 1395.9 190.8C1399.8 195.1 1403 203 1406.2 202.6C1409.3 202.2 1410.4 197.9 1410 191.4C1409.6 184.9 1407.1 182.4 1406.6 178.3C1406.1 174.1 1404.1 161.6 1404 158.1C1403.9 154.6 1404.9 151.5 1406.7 151.2C1408.5 150.9 1410.6 152.4 1412 159.1C1413.4 165.8 1415.2 171.4 1416.7 178.6C1418.2 185.7 1419.9 185.3 1420.8 184.4C1421.7 183.5 1420.9 174.5 1420.8 169.5C1420.7 164.4 1421.3 150.6 1421.2 147.2C1421.2 143.8 1422.8 142 1425.2 142.4C1427.5 142.8 1428.6 143.7 1428.4 148.6C1428.3 153.5 1430.2 166.9 1430.2 170.3C1430.2 173.7 1429 184.6 1432.1 184.8L1433 184.7C1433 184.7 1434 172 1434 168.1C1434 164.2 1432.6 150.5 1434.8 148.5C1437 146.6 1439.9 146.6 1440.4 153.2C1440.9 159.8 1441.7 165.4 1442.3 170.5C1443 175.6 1442.4 179.6 1442.3 181.8C1442.2 184 1441.5 189.3 1443.9 189.6C1446.2 189.9 1447.9 179.9 1449.1 175.5C1450.3 171.1 1451 161.1 1455.3 162C1459.6 162.9 1456.6 175 1455.8 180.8C1455 186.6 1453.5 197 1453.7 201.2C1454 205.4 1453.3 220 1448.6 231.2C1443.9 242.5 1447 368.2 1447.6 376.6H1416.3L1416.7 265.7Z" fill="#FFDD75" fill-opacity="0.5"/>
<path d="M1161 238.7C1161 238.7 1160.6 249.5 1161.9 245C1163.2 240.5 1172.4 229.8 1176.8 223.7C1181.2 217.6 1181 214.2 1183.8 210.2C1186.7 206.2 1188.3 204 1189.5 201.1C1190.7 198.2 1193.9 195 1191.1 193.7C1188.2 192.4 1185.6 192.5 1181.8 196.8C1177.9 201.1 1174.7 209 1171.5 208.6C1168.4 208.2 1167.3 203.9 1167.7 197.4C1168.1 190.9 1170.6 188.4 1171.1 184.3C1171.6 180.1 1173.6 167.6 1173.7 164.1C1173.8 160.6 1172.8 157.5 1171 157.2C1169.2 156.9 1167.1 158.4 1165.7 165.1C1164.3 171.8 1162.5 177.4 1161 184.6C1159.5 191.7 1157.8 191.3 1156.9 190.4C1156 189.5 1156.8 180.5 1156.9 175.5C1157 170.4 1156.4 156.6 1156.5 153.2C1156.5 149.8 1154.9 148 1152.5 148.4C1150.2 148.8 1149.1 149.7 1149.3 154.6C1149.4 159.5 1147.5 172.9 1147.5 176.3C1147.5 179.7 1148.7 190.6 1145.6 190.8L1144.7 190.7C1144.7 190.7 1143.7 178 1143.7 174.1C1143.7 170.2 1145.1 156.5 1142.9 154.5C1140.7 152.6 1137.8 152.6 1137.3 159.2C1136.8 165.8 1136 171.4 1135.4 176.5C1134.7 181.6 1135.3 185.6 1135.4 187.8C1135.5 190 1136.2 195.3 1133.8 195.6C1131.5 195.9 1129.8 185.9 1128.6 181.5C1127.4 177.1 1126.7 167.1 1122.4 168C1118.1 168.9 1121.1 181 1121.9 186.8C1122.7 192.6 1124.2 203 1124 207.2C1123.7 211.4 1124.4 226 1129.1 237.2C1128.5 235.8 1135.9 291.9 1130.1 375.6H1161.4L1161 238.7Z" fill="#FFDD75" fill-opacity="0.5"/>
<path opacity="0.8" d="M1214.2 333.2C1214.2 333.2 1214.6 311 1213.3 306.5C1212 302 1202.8 291.3 1198.4 285.2C1194 279.1 1194.2 275.7 1191.4 271.7C1188.5 267.7 1186.9 265.5 1185.7 262.6C1184.5 259.7 1181.3 256.5 1184.1 255.2C1187 253.9 1189.6 254 1193.4 258.3C1197.3 262.6 1200.5 270.5 1203.7 270.1C1206.8 269.7 1207.9 265.4 1207.5 258.9C1207.1 252.4 1204.6 249.9 1204.1 245.8C1203.6 241.6 1201.6 229.1 1201.5 225.6C1201.4 222.1 1202.4 219 1204.2 218.7C1206 218.4 1208.1 219.9 1209.5 226.6C1210.9 233.3 1212.7 238.9 1214.2 246.1C1215.7 253.2 1217.4 252.8 1218.3 251.9C1219.2 251 1218.4 242 1218.3 237C1218.2 231.9 1218.8 218.1 1218.7 214.7C1218.7 211.3 1220.3 209.5 1222.7 209.9C1225 210.3 1226.1 211.2 1225.9 216.1C1225.8 221 1227.7 234.4 1227.7 237.8C1227.7 241.2 1226.5 252.1 1229.6 252.3L1230.5 252.2C1230.5 252.2 1231.5 239.5 1231.5 235.6C1231.5 231.7 1230.1 218 1232.3 216C1234.5 214.1 1237.4 214.1 1237.9 220.7C1238.4 227.3 1239.2 232.9 1239.8 238C1240.5 243.1 1239.9 247.1 1239.8 249.3C1239.7 251.5 1239 256.8 1241.4 257.1C1243.7 257.4 1245.4 247.4 1246.6 243C1247.8 238.6 1248.5 228.6 1252.8 229.5C1257.1 230.4 1254.1 242.5 1253.3 248.3C1252.5 254.1 1251 264.5 1251.2 268.7C1251.5 272.9 1250.8 287.5 1246.1 298.7C1241.4 310 1244.5 367.7 1245.1 376.1H1214L1214.2 333.2Z" fill="#FFDD75" fill-opacity="0.5"/>
<path opacity="0.9" d="M1321.5 261.1C1321.5 261.1 1320.9 229.2 1322.8 222.7C1324.7 216.2 1337.9 200.9 1344.2 192.1C1350.5 183.3 1350.2 178.5 1354.3 172.7C1358.4 166.9 1360.8 163.8 1362.5 159.7C1364.2 155.6 1368.8 150.9 1364.7 149.1C1360.6 147.2 1356.9 147.4 1351.3 153.6C1345.7 159.7 1341.1 171.1 1336.6 170.6C1332.1 170 1330.6 163.9 1331.2 154.6C1331.8 145.3 1335.3 141.7 1336 135.8C1336.7 129.8 1339.5 111.8 1339.7 106.7C1339.9 101.7 1338.4 97.1999 1335.8 96.7999C1333.2 96.3999 1330.2 98.4999 1328.2 108.2C1326.2 117.9 1323.6 125.9 1321.4 136.2C1319.2 146.5 1316.8 145.9 1315.5 144.6C1314.2 143.3 1315.3 130.4 1315.5 123.2C1315.7 115.9 1314.8 95.9999 1314.9 91.0999C1315 86.2999 1312.5 83.5999 1309.2 84.1999C1305.8 84.7999 1304.4 86.0999 1304.5 93.0999C1304.7 100.2 1301.9 119.4 1301.9 124.2C1301.9 129 1303.6 144.7 1299.1 145.1L1297.8 144.9C1297.8 144.9 1296.3 126.6 1296.3 121C1296.3 115.4 1298.4 95.6999 1295.2 92.8999C1292 90.0999 1287.9 90.0999 1287.2 99.5999C1286.5 109.1 1285.3 117.1 1284.4 124.4C1283.5 131.7 1284.2 137.4 1284.4 140.6C1284.6 143.8 1285.5 151.4 1282.2 151.8C1278.8 152.2 1276.4 137.8 1274.7 131.5C1273 125.2 1271.9 110.8 1265.8 112.1C1259.7 113.4 1263.9 130.7 1265.1 139.1C1266.2 147.5 1268.5 162.4 1268.1 168.4C1267.7 174.4 1268.7 195.3 1275.4 211.5C1282.1 227.7 1277.6 363.8 1276.8 375.8H1321.8L1321.5 261.1Z" fill="#FFDD75" fill-opacity="0.5"/>
<line x1="1302.5" y1="110" x2="1302.5" y2="292" stroke="black"/>
<path opacity="0.9" d="M1657.4 257.9C1657.4 257.9 1658 225.4 1656.1 218.7C1654.2 212 1640.7 196.5 1634.2 187.5C1627.7 178.6 1628.1 173.6 1623.9 167.7C1619.7 161.8 1617.2 158.6 1615.5 154.4C1613.8 150.2 1609 145.5 1613.2 143.6C1617.4 141.7 1621.2 141.9 1626.9 148.2C1632.6 154.5 1637.4 166.1 1641.9 165.5C1646.5 164.9 1648 158.7 1647.4 149.1C1646.8 139.6 1643.2 136 1642.5 129.9C1641.7 123.8 1638.9 105.4 1638.7 100.2C1638.5 95.0999 1640 90.4999 1642.7 90.0999C1645.4 89.6999 1648.4 91.7999 1650.5 101.7C1652.6 111.6 1655.2 119.8 1657.4 130.2C1659.6 140.7 1662.1 140.1 1663.4 138.8C1664.7 137.5 1663.6 124.4 1663.4 116.9C1663.2 109.5 1664.1 89.0999 1664 84.1999C1663.9 79.2999 1666.4 76.5999 1669.8 77.1999C1673.2 77.7999 1674.7 79.0999 1674.6 86.2999C1674.4 93.4999 1677.3 113.1 1677.3 118.1C1677.3 123 1675.6 139 1680.2 139.4L1681.5 139.2C1681.5 139.2 1683 120.6 1683 114.9C1683 109.2 1680.9 88.9999 1684.1 86.1999C1687.3 83.2999 1691.5 83.2999 1692.3 92.9999C1693.1 102.7 1694.2 110.9 1695.2 118.3C1696.2 125.7 1695.4 131.6 1695.2 134.8C1695 138 1694.1 145.8 1697.5 146.2C1700.9 146.6 1703.4 131.9 1705.1 125.5C1706.8 119 1708 104.4 1714.2 105.7C1720.5 107 1716.1 124.7 1715 133.3C1713.9 141.9 1711.6 157.1 1712 163.1C1712.4 169.2 1711.4 190.6 1704.6 207.1C1697.8 223.6 1702.3 362.5 1703.2 374.8H1657.3L1657.4 257.9Z" fill="#FFDD75" fill-opacity="0.5"/>
<path d="M1612.7 339.7C1612.7 339.7 1612.3 317.5 1613.6 313C1614.9 308.5 1624.1 297.8 1628.5 291.7C1632.9 285.6 1632.7 282.2 1635.5 278.2C1638.4 274.2 1640 272 1641.2 269.1C1642.4 266.2 1645.6 263 1642.8 261.7C1639.9 260.4 1637.3 260.5 1633.5 264.8C1629.6 269.1 1626.4 277 1623.2 276.6C1620.1 276.2 1619 271.9 1619.4 265.4C1619.8 258.9 1622.3 256.4 1622.8 252.3C1623.3 248.1 1625.3 235.6 1625.4 232.1C1625.5 228.6 1624.5 225.5 1622.7 225.2C1620.9 224.9 1618.8 226.4 1617.4 233.1C1616 239.8 1614.2 245.4 1612.7 252.6C1611.2 259.7 1609.5 259.3 1608.6 258.4C1607.7 257.5 1608.5 248.5 1608.6 243.5C1608.7 238.4 1608.1 224.6 1608.2 221.2C1608.2 217.8 1606.6 216 1604.2 216.4C1601.9 216.8 1600.8 217.7 1601 222.6C1601.1 227.5 1599.2 240.9 1599.2 244.3C1599.2 247.7 1600.4 258.6 1597.3 258.8L1596.4 258.7C1596.4 258.7 1595.4 246 1595.4 242.1C1595.4 238.2 1596.8 224.5 1594.6 222.5C1592.4 220.6 1589.5 220.6 1589 227.2C1588.5 233.8 1587.7 239.4 1587.1 244.5C1586.4 249.6 1587 253.6 1587.1 255.8C1587.2 258 1587.9 263.3 1585.5 263.6C1583.2 263.9 1581.5 253.9 1580.3 249.5C1579.1 245.1 1578.4 235.1 1574.1 236C1569.8 236.9 1572.8 249 1573.6 254.8C1574.4 260.6 1575.9 271 1575.7 275.2C1575.4 279.4 1576.1 294 1580.8 305.2C1585.5 316.5 1582.4 366.2 1581.8 374.6H1613.1L1612.7 339.7Z" fill="#FFDD75" fill-opacity="0.5"/>
<path opacity="0.8" d="M1545.2 270.8C1545.2 270.8 1544.8 248.6 1546.1 244.1C1547.4 239.6 1556.6 228.9 1561 222.8C1565.4 216.7 1565.2 213.3 1568 209.3C1570.9 205.3 1572.5 203.1 1573.7 200.2C1574.9 197.3 1578.1 194.1 1575.3 192.8C1572.4 191.5 1569.8 191.6 1566 195.9C1562.1 200.2 1558.9 208.1 1555.7 207.7C1552.6 207.3 1551.5 203 1551.9 196.5C1552.3 190 1554.8 187.5 1555.3 183.4C1555.8 179.2 1557.8 166.7 1557.9 163.2C1558 159.7 1557 156.6 1555.2 156.3C1553.4 156 1551.3 157.5 1549.9 164.2C1548.5 170.9 1546.7 176.5 1545.2 183.7C1543.7 190.8 1542 190.4 1541.1 189.5C1540.2 188.6 1541 179.6 1541.1 174.6C1541.2 169.5 1540.6 155.7 1540.7 152.3C1540.7 148.9 1539.1 147.1 1536.7 147.5C1534.4 147.9 1533.3 148.8 1533.5 153.7C1533.6 158.6 1531.7 172 1531.7 175.4C1531.7 178.8 1532.9 189.7 1529.8 189.9L1528.9 189.8C1528.9 189.8 1527.9 177.1 1527.9 173.2C1527.9 169.3 1529.3 155.6 1527.1 153.6C1524.9 151.7 1522 151.7 1521.5 158.3C1521 164.9 1520.2 170.5 1519.6 175.6C1518.9 180.7 1519.5 184.7 1519.6 186.9C1519.7 189.1 1520.4 194.4 1518 194.7C1515.7 195 1514 185 1512.8 180.6C1511.6 176.2 1510.9 166.2 1506.6 167.1C1502.3 168 1505.3 180.1 1506.1 185.9C1506.9 191.7 1508.4 202.1 1508.2 206.3C1507.9 210.5 1508.6 225.1 1513.3 236.3C1518 247.6 1514.9 368.3 1514.3 376.7H1545.6L1545.2 270.8Z" fill="#FFDD75" fill-opacity="0.5"/>
<path opacity="0.8" d="M1735.2 330.7C1735.2 330.7 1735.6 308.5 1734.3 304C1733 299.5 1723.8 288.8 1719.4 282.7C1715 276.6 1715.2 273.2 1712.4 269.2C1709.5 265.2 1707.9 263 1706.7 260.1C1705.5 257.2 1702.3 254 1705.1 252.7C1708 251.4 1710.6 251.5 1714.4 255.8C1718.3 260.1 1721.5 268 1724.7 267.6C1727.8 267.2 1728.9 262.9 1728.5 256.4C1728.1 249.9 1725.6 247.4 1725.1 243.3C1724.6 239.1 1722.6 226.6 1722.5 223.1C1722.4 219.6 1723.4 216.5 1725.2 216.2C1727 215.9 1729.1 217.4 1730.5 224.1C1731.9 230.8 1733.7 236.4 1735.2 243.6C1736.7 250.7 1738.4 250.3 1739.3 249.4C1740.2 248.5 1739.4 239.5 1739.3 234.5C1739.2 229.4 1739.8 215.6 1739.7 212.2C1739.7 208.8 1741.3 207 1743.7 207.4C1746 207.8 1747.1 208.7 1746.9 213.6C1746.8 218.5 1748.7 231.9 1748.7 235.3C1748.7 238.7 1747.5 249.6 1750.6 249.8L1751.5 249.7C1751.5 249.7 1752.5 237 1752.5 233.1C1752.5 229.2 1751.1 215.5 1753.3 213.5C1755.5 211.6 1758.4 211.6 1758.9 218.2C1759.4 224.8 1760.2 230.4 1760.8 235.5C1761.5 240.6 1760.9 244.6 1760.8 246.8C1760.7 249 1760 254.3 1762.4 254.6C1764.7 254.9 1766.4 244.9 1767.6 240.5C1768.8 236.1 1769.5 226.1 1773.8 227C1778.1 227.9 1775.1 240 1774.3 245.8C1773.5 251.6 1772 262 1772.2 266.2C1772.5 270.4 1771.8 285 1767.1 296.2C1762.4 307.5 1765.5 366.2 1766.1 374.6H1734.8L1735.2 330.7Z" fill="#FFDD75" fill-opacity="0.5"/>
<path opacity="0.7" d="M1801.2 263.2C1801.2 263.2 1801.6 241 1800.3 236.5C1799 232 1789.8 221.3 1785.4 215.2C1781 209.1 1781.2 205.7 1778.4 201.7C1775.5 197.7 1773.9 195.5 1772.7 192.6C1771.5 189.7 1768.3 186.5 1771.1 185.2C1774 183.9 1776.6 184 1780.4 188.3C1784.3 192.6 1787.5 200.5 1790.7 200.1C1793.8 199.7 1794.9 195.4 1794.5 188.9C1794.1 182.4 1791.6 179.9 1791.1 175.8C1790.6 171.6 1788.6 159.1 1788.5 155.6C1788.4 152.1 1789.4 149 1791.2 148.7C1793 148.4 1795.1 149.9 1796.5 156.6C1797.9 163.3 1799.7 168.9 1801.2 176.1C1802.7 183.2 1804.4 182.8 1805.3 181.9C1806.2 181 1805.4 172 1805.3 167C1805.2 161.9 1805.8 148.1 1805.7 144.7C1805.7 141.3 1807.3 139.5 1809.7 139.9C1812 140.3 1813.1 141.2 1812.9 146.1C1812.8 151 1814.7 164.4 1814.7 167.8C1814.7 171.2 1813.5 182.1 1816.6 182.3L1817.5 182.2C1817.5 182.2 1818.5 169.5 1818.5 165.6C1818.5 161.7 1817.1 148 1819.3 146C1821.5 144.1 1824.4 144.1 1824.9 150.7C1825.4 157.3 1826.2 162.9 1826.8 168C1827.5 173.1 1826.9 177.1 1826.8 179.3C1826.7 181.5 1826 186.8 1828.4 187.1C1830.7 187.4 1832.4 177.4 1833.6 173C1834.8 168.6 1835.5 158.6 1839.8 159.5C1844.1 160.4 1841.1 172.5 1840.3 178.3C1839.5 184.1 1838 194.5 1838.2 198.7C1838.5 202.9 1837.8 217.5 1833.1 228.7C1828.4 240 1831.5 366.7 1832.1 375.1H1800.8L1801.2 263.2Z" fill="#FFDD75" fill-opacity="0.5"/>
<path d="M1901 237.7C1901 237.7 1900.6 248.5 1901.9 244C1903.2 239.5 1912.4 228.8 1916.8 222.7C1921.2 216.6 1921 213.2 1923.8 209.2C1926.7 205.2 1928.3 203 1929.5 200.1C1930.7 197.2 1933.9 194 1931.1 192.7C1928.2 191.4 1925.6 191.5 1921.8 195.8C1917.9 200.1 1914.7 208 1911.5 207.6C1908.4 207.2 1907.3 202.9 1907.7 196.4C1908.1 189.9 1910.6 187.4 1911.1 183.3C1911.6 179.1 1913.6 166.6 1913.7 163.1C1913.8 159.6 1912.8 156.5 1911 156.2C1909.2 155.9 1907.1 157.4 1905.7 164.1C1904.3 170.8 1902.5 176.4 1901 183.6C1899.5 190.7 1897.8 190.3 1896.9 189.4C1896 188.5 1896.8 179.5 1896.9 174.5C1897 169.4 1896.4 155.6 1896.5 152.2C1896.5 148.8 1894.9 147 1892.5 147.4C1890.2 147.8 1889.1 148.7 1889.3 153.6C1889.4 158.5 1887.5 171.9 1887.5 175.3C1887.5 178.7 1888.7 189.6 1885.6 189.8L1884.7 189.7C1884.7 189.7 1883.7 177 1883.7 173.1C1883.7 169.2 1885.1 155.5 1882.9 153.5C1880.7 151.6 1877.8 151.6 1877.3 158.2C1876.8 164.8 1876 170.4 1875.4 175.5C1874.7 180.6 1875.3 184.6 1875.4 186.8C1875.5 189 1876.2 194.3 1873.8 194.6C1871.5 194.9 1869.8 184.9 1868.6 180.5C1867.4 176.1 1866.7 166.1 1862.4 167C1858.1 167.9 1861.1 180 1861.9 185.8C1862.7 191.6 1864.2 202 1864 206.2C1863.7 210.4 1864.4 225 1869.1 236.2C1868.5 234.8 1875.9 290.9 1870.1 374.6H1901.4L1901 237.7Z" fill="#FFDD75" fill-opacity="0.5"/>
</g>
</svg>
