<svg width="357" height="251" viewBox="0 0 357 251" fill="none" xmlns="http://www.w3.org/2000/svg">
<path d="M13.342 179.9H3.541V203H8.755V196.4H13.342C19.216 196.4 22.582 193.298 22.582 187.919C22.582 182.804 19.216 179.9 13.342 179.9ZM13.078 192.044H8.755V184.223H13.078C15.982 184.223 17.632 185.51 17.632 188.084C17.632 190.724 15.982 192.044 13.078 192.044ZM37.6212 185.246V194.024C37.6212 196.598 36.1362 198.512 33.6942 198.545C31.6482 198.545 30.3612 197.192 30.3612 194.948V185.246H25.2792V196.4C25.2792 200.591 27.7542 203.198 31.6812 203.198C34.3542 203.198 36.4002 202.109 37.6212 199.865V203H42.6702V185.246H37.6212ZM58.4494 185.081C56.0404 185.081 54.0934 186.071 52.8394 187.853V178.514H47.7574V203H52.8394V200.426C54.1264 202.208 56.0734 203.198 58.5484 203.198C63.5314 203.198 66.7984 199.601 66.7984 194.222C66.7984 188.744 63.4324 185.081 58.4494 185.081ZM57.2614 198.974C54.6544 198.974 52.8394 196.994 52.8394 194.057C52.8394 191.186 54.6544 189.173 57.2614 189.173C59.8684 189.173 61.6504 191.219 61.6504 194.057C61.6504 196.961 59.8684 198.974 57.2614 198.974ZM70.316 178.514V203H75.398V178.514H70.316ZM83.0367 177.656C81.5847 177.656 80.5617 178.712 80.5617 180.197C80.5617 181.649 81.5847 182.738 83.0367 182.738C84.4887 182.738 85.5117 181.649 85.5117 180.197C85.5117 178.712 84.4887 177.656 83.0367 177.656ZM80.4957 185.246V203H85.5777V185.246H80.4957ZM102.301 191.285L105.733 188.81C104.149 186.434 101.443 185.081 98.0437 185.081C92.5987 185.081 88.9357 188.744 88.9357 194.189C88.9357 199.568 92.5987 203.198 97.9777 203.198C101.608 203.198 104.38 201.746 105.865 199.271L102.367 196.895C101.476 198.281 100.057 198.974 98.2417 198.974C95.7667 198.974 94.0177 197.027 94.0177 194.156C94.0177 191.318 95.7667 189.404 98.2417 189.404C99.9907 189.371 101.344 190.097 102.301 191.285ZM123.876 203L123.843 191.417C123.81 187.424 121.071 185.048 116.319 185.048C113.217 185.048 110.94 185.774 108.3 187.094L109.884 190.592C111.732 189.569 113.58 189.041 115.164 189.041C117.606 189.041 118.86 190.13 118.86 192.011V192.341H113.976C109.62 192.374 107.211 194.354 107.211 197.687C107.211 200.921 109.521 203.231 113.316 203.231C115.791 203.231 117.705 202.406 118.893 200.921V203H123.876ZM114.735 199.601C113.019 199.601 111.963 198.71 111.963 197.357C111.963 195.938 112.92 195.344 114.867 195.344H118.86V196.928C118.563 198.446 116.88 199.601 114.735 199.601ZM128.42 178.514V203H133.502V178.514H128.42ZM153.879 203L153.846 191.417C153.813 187.424 151.074 185.048 146.322 185.048C143.22 185.048 140.943 185.774 138.303 187.094L139.887 190.592C141.735 189.569 143.583 189.041 145.167 189.041C147.609 189.041 148.863 190.13 148.863 192.011V192.341H143.979C139.623 192.374 137.214 194.354 137.214 197.687C137.214 200.921 139.524 203.231 143.319 203.231C145.794 203.231 147.708 202.406 148.896 200.921V203H153.879ZM144.738 199.601C143.022 199.601 141.966 198.71 141.966 197.357C141.966 195.938 142.923 195.344 144.87 195.344H148.863V196.928C148.566 198.446 146.883 199.601 144.738 199.601ZM12.055 244.98L19.843 225.246H14.761L10.57 237.456L5.917 225.246H0.67L8.029 242.637L7.534 243.627C7.039 244.683 6.247 245.211 5.191 245.211C4.366 245.211 3.673 244.914 2.881 244.254L0.736 247.917C2.188 249.105 3.673 249.633 5.554 249.633C8.623 249.633 10.801 248.115 12.055 244.98ZM43.8095 231.285L47.2415 228.81C45.6575 226.434 42.9515 225.081 39.5525 225.081C34.1075 225.081 30.4445 228.744 30.4445 234.189C30.4445 239.568 34.1075 243.198 39.4865 243.198C43.1165 243.198 45.8885 241.746 47.3735 239.271L43.8755 236.895C42.9845 238.281 41.5655 238.974 39.7505 238.974C37.2755 238.974 35.5265 237.027 35.5265 234.156C35.5265 231.318 37.2755 229.404 39.7505 229.404C41.4995 229.371 42.8525 230.097 43.8095 231.285ZM58.0284 225.081C52.3194 225.081 48.4914 228.678 48.4914 234.123C48.4914 239.535 52.3194 243.198 58.0284 243.198C63.7044 243.198 67.5324 239.535 67.5324 234.123C67.5324 228.678 63.7044 225.081 58.0284 225.081ZM58.0284 229.305C60.6354 229.305 62.4504 231.285 62.4504 234.189C62.4504 237.093 60.6354 239.073 58.0284 239.073C55.3884 239.073 53.5734 237.093 53.5734 234.189C53.5734 231.285 55.3884 229.305 58.0284 229.305ZM94.3882 225.048C91.3852 225.081 89.1412 226.401 87.9862 229.14C87.1282 226.566 84.9832 225.048 81.9802 225.048C79.3072 225.081 77.2282 226.137 75.9742 228.315V225.246H70.8922V243H75.9742V234.222C75.9742 231.648 77.4592 229.734 79.9342 229.701C82.0132 229.701 83.3332 231.054 83.3332 233.331V243H88.3822V234.222C88.3822 231.648 89.8672 229.734 92.3092 229.701C94.4212 229.701 95.7412 231.054 95.7412 233.331V243H100.79V231.846C100.79 227.688 98.3152 225.048 94.3882 225.048ZM116.038 225.081C113.629 225.081 111.682 226.071 110.428 227.853V225.246H105.346V249.402H110.428V240.426C111.715 242.208 113.662 243.198 116.137 243.198C121.12 243.198 124.387 239.601 124.387 234.222C124.387 228.744 121.021 225.081 116.038 225.081ZM114.85 238.974C112.243 238.974 110.428 236.994 110.428 234.057C110.428 231.186 112.243 229.173 114.85 229.173C117.457 229.173 119.239 231.219 119.239 234.057C119.239 236.961 117.457 238.974 114.85 238.974ZM143.019 243L142.986 231.417C142.953 227.424 140.214 225.048 135.462 225.048C132.36 225.048 130.083 225.774 127.443 227.094L129.027 230.592C130.875 229.569 132.723 229.041 134.307 229.041C136.749 229.041 138.003 230.13 138.003 232.011V232.341H133.119C128.763 232.374 126.354 234.354 126.354 237.687C126.354 240.921 128.664 243.231 132.459 243.231C134.934 243.231 136.848 242.406 138.036 240.921V243H143.019ZM133.878 239.601C132.162 239.601 131.106 238.71 131.106 237.357C131.106 235.938 132.063 235.344 134.01 235.344H138.003V236.928C137.706 238.446 136.023 239.601 133.878 239.601ZM152.48 228.447V225.246H147.398V243H152.48V234.453C152.48 231.45 154.724 229.503 158.354 229.833V225.048C155.714 225.081 153.701 226.269 152.48 228.447ZM171.06 238.281C170.136 238.71 169.344 238.941 168.684 238.941C167.595 238.974 166.968 238.38 166.968 236.895V229.569H171.786V226.038H166.968V221.154H161.919V226.038H159.444V229.536H161.919V237.753C161.919 241.416 164.328 243.231 167.496 243.231C169.146 243.231 170.796 242.769 172.116 242.01L171.06 238.281ZM182.671 225.081C177.259 225.081 173.53 228.711 173.53 234.189C173.53 239.568 177.127 243.198 182.803 243.198C186.004 243.198 188.611 242.043 190.393 240.063L187.72 237.357C186.499 238.578 184.915 239.238 183.232 239.238C180.955 239.238 179.239 237.918 178.645 235.674H191.383C191.812 229.206 188.908 225.081 182.671 225.081ZM178.546 232.671C178.942 230.328 180.46 228.81 182.704 228.81C185.047 228.81 186.565 230.328 186.631 232.671H178.546ZM194.904 218.514V243H199.986V218.514H194.904ZM220.363 243L220.33 231.417C220.297 227.424 217.558 225.048 212.806 225.048C209.704 225.048 207.427 225.774 204.787 227.094L206.371 230.592C208.219 229.569 210.067 229.041 211.651 229.041C214.093 229.041 215.347 230.13 215.347 232.011V232.341H210.463C206.107 232.374 203.698 234.354 203.698 237.687C203.698 240.921 206.008 243.231 209.803 243.231C212.278 243.231 214.192 242.406 215.38 240.921V243H220.363ZM211.222 239.601C209.506 239.601 208.45 238.71 208.45 237.357C208.45 235.938 209.407 235.344 211.354 235.344H215.347V236.928C215.05 238.446 213.367 239.601 211.222 239.601ZM226.161 238.05C224.709 238.05 223.62 239.106 223.62 240.657C223.62 242.175 224.709 243.297 226.161 243.297C227.646 243.297 228.702 242.175 228.702 240.657C228.702 239.106 227.646 238.05 226.161 238.05Z" fill="white"/>
<path d="M37.18 101.65L34.12 101.11L49.96 86.53V76H4.87V89.86H27.73L14.41 102.73V112.54H25.66C31.6 112.54 34.75 114.79 34.75 119.2C34.75 123.52 31.6 125.86 25.66 125.86C19.72 125.86 14.05 123.07 9.01 117.58L1.54 131.8C7.84 136.57 17.65 139.81 27.19 139.81C42.94 139.81 53.02 131.26 53.02 119.02C53.02 109.48 46.45 103.27 37.18 101.65ZM67.9769 122.8C63.0269 122.8 59.5169 126.22 59.5169 131.17C59.5169 136.21 63.0269 139.72 67.9769 139.72C73.0169 139.72 76.5269 136.21 76.5269 131.17C76.5269 126.22 73.0169 122.8 67.9769 122.8Z" fill="white"/>
<path d="M212.813 31.0625C208.786 31.0748 204.884 32.4556 201.746 34.9782C198.608 37.5009 196.42 41.0154 195.543 44.945C194.666 48.8746 195.151 52.9857 196.918 56.6035C198.685 60.2212 201.63 63.1306 205.269 64.8541C207.613 65.9638 210.175 66.5394 212.768 66.5394C215.362 66.5394 217.923 65.9638 220.268 64.8541C223.9 63.134 226.841 60.2322 228.609 56.6234C230.378 53.0146 230.87 48.9125 230.004 44.9879C229.138 41.0634 226.966 37.5489 223.843 35.0192C220.72 32.4896 216.831 31.0946 212.813 31.0625ZM212.813 53.25C211.935 53.25 211.077 52.9897 210.347 52.5021C209.617 52.0145 209.049 51.3215 208.713 50.5107C208.377 49.6998 208.289 48.8076 208.46 47.9468C208.632 47.086 209.054 46.2953 209.675 45.6747C210.295 45.0541 211.086 44.6315 211.947 44.4603C212.808 44.289 213.7 44.3769 214.511 44.7128C215.322 45.0486 216.015 45.6174 216.502 46.3472C216.99 47.0769 217.25 47.9348 217.25 48.8125C217.25 49.9894 216.783 51.1181 215.95 51.9503C215.118 52.7825 213.989 53.25 212.813 53.25ZM208.375 61.3484V59.9062C208.375 59.3178 208.609 58.7534 209.025 58.3374C209.441 57.9213 210.005 57.6875 210.594 57.6875H215.031C215.62 57.6875 216.184 57.9213 216.6 58.3374C217.016 58.7534 217.25 59.3178 217.25 59.9062V61.3484C214.382 62.3837 211.243 62.3837 208.375 61.3484ZM221.688 58.8191C221.442 57.2677 220.656 55.8531 219.469 54.8253C220.651 53.5621 221.439 51.9807 221.735 50.2757C222.03 48.5707 221.821 46.8165 221.132 45.2289C220.444 43.6413 219.307 42.2896 217.86 41.3401C216.413 40.3906 214.721 39.8847 212.99 39.8847C211.26 39.8847 209.567 40.3906 208.12 41.3401C206.674 42.2896 205.536 43.6413 204.848 45.2289C204.159 46.8165 203.95 48.5707 204.246 50.2757C204.541 51.9807 205.329 53.5621 206.511 54.8253C205.324 55.8531 204.538 57.2677 204.293 58.8191C202.254 57.0358 200.807 54.673 200.146 52.0461C199.486 49.4192 199.642 46.6532 200.594 44.1174C201.547 41.5817 203.25 39.3968 205.477 37.8545C207.704 36.3122 210.348 35.4859 213.057 35.4859C215.765 35.4859 218.41 36.3122 220.636 37.8545C222.863 39.3968 224.567 41.5817 225.519 44.1174C226.471 46.6532 226.628 49.4192 225.967 52.0461C225.306 54.673 223.86 57.0358 221.821 58.8191H221.688Z" fill="white"/>
<path d="M166.219 22.1876C166.807 22.1876 167.372 21.9538 167.788 21.5377C168.204 21.1216 168.437 20.5573 168.437 19.9688C168.437 19.53 168.568 19.101 168.811 18.7361C169.055 18.3713 169.402 18.0869 169.807 17.9189C170.213 17.751 170.659 17.7071 171.089 17.7927C171.52 17.8783 171.915 18.0896 172.225 18.3999C172.535 18.7102 172.747 19.1055 172.832 19.5359C172.918 19.9663 172.874 20.4125 172.706 20.8179C172.538 21.2233 172.254 21.5698 171.889 21.8136C171.524 22.0574 171.095 22.1876 170.656 22.1876C170.068 22.1876 169.503 22.4213 169.087 22.8374C168.671 23.2535 168.437 23.8179 168.437 24.4063V28.8438C168.437 29.4322 168.671 29.9966 169.087 30.4127C169.503 30.8288 170.068 31.0625 170.656 31.0625C171.245 31.0625 171.809 30.8288 172.225 30.4127C172.641 29.9966 172.875 29.4322 172.875 28.8438V26.2479C174.025 25.8411 175.042 25.126 175.813 24.1807C176.585 23.2354 177.081 22.0962 177.249 20.8876C177.417 19.6791 177.249 18.4476 176.765 17.3279C176.28 16.2082 175.497 15.2432 174.501 14.5385C173.505 13.8338 172.334 13.4164 171.117 13.332C169.9 13.2476 168.682 13.4994 167.599 14.0598C166.515 14.6203 165.606 15.4679 164.971 16.51C164.337 17.5521 164.001 18.7486 164 19.9688C164 20.5573 164.234 21.1216 164.65 21.5377C165.066 21.9538 165.63 22.1876 166.219 22.1876Z" fill="white"/>
<path d="M170.656 37.7188C171.882 37.7188 172.875 36.7254 172.875 35.5C172.875 34.2746 171.882 33.2812 170.656 33.2812C169.431 33.2812 168.438 34.2746 168.438 35.5C168.438 36.7254 169.431 37.7188 170.656 37.7188Z" fill="white"/>
<path d="M115.188 57.6875C111.161 57.6998 107.259 59.0806 104.121 61.6032C100.983 64.1259 98.7954 67.6404 97.9182 71.57C97.0409 75.4996 97.5257 79.6107 99.293 83.2285C101.06 86.8462 104.005 89.7556 107.644 91.4791C109.988 92.5888 112.549 93.1644 115.143 93.1644C117.737 93.1644 120.298 92.5888 122.643 91.4791C126.275 89.759 129.216 86.8572 130.984 83.2484C132.753 79.6396 133.245 75.5375 132.379 71.6129C131.513 67.6884 129.341 64.1739 126.218 61.6442C123.095 59.1146 119.206 57.7196 115.188 57.6875ZM115.188 79.875C114.31 79.875 113.452 79.6147 112.722 79.1271C111.992 78.6396 111.424 77.9465 111.088 77.1357C110.752 76.3248 110.664 75.4326 110.835 74.5718C111.007 73.711 111.429 72.9203 112.05 72.2997C112.67 71.6791 113.461 71.2565 114.322 71.0853C115.183 70.914 116.075 71.0019 116.886 71.3378C117.697 71.6736 118.39 72.2424 118.877 72.9722C119.365 73.7019 119.625 74.5598 119.625 75.4375C119.625 76.6144 119.158 77.7431 118.325 78.5753C117.493 79.4075 116.364 79.875 115.188 79.875ZM110.75 87.9734V86.5312C110.75 85.9428 110.984 85.3785 111.4 84.9624C111.816 84.5463 112.38 84.3125 112.969 84.3125H117.406C117.995 84.3125 118.559 84.5463 118.975 84.9624C119.391 85.3785 119.625 85.9428 119.625 86.5312V87.9734C116.757 89.0087 113.618 89.0087 110.75 87.9734ZM124.063 85.4441C123.817 83.8927 123.031 82.4781 121.844 81.4503C123.026 80.1871 123.814 78.6057 124.11 76.9007C124.405 75.1957 124.196 73.4415 123.507 71.8539C122.819 70.2663 121.682 68.9146 120.235 67.9651C118.788 67.0156 117.095 66.5097 115.365 66.5097C113.635 66.5097 111.942 67.0156 110.495 67.9651C109.049 68.9146 107.911 70.2663 107.223 71.8539C106.534 73.4415 106.325 75.1957 106.62 76.9007C106.916 78.6057 107.704 80.1871 108.886 81.4503C107.699 82.4781 106.913 83.8927 106.668 85.4441C104.629 83.6608 103.182 81.298 102.521 78.6711C101.861 76.0442 102.017 73.2782 102.969 70.7424C103.922 68.2067 105.625 66.0218 107.852 64.4795C110.079 62.9372 112.723 62.1109 115.432 62.1109C118.14 62.1109 120.785 62.9372 123.011 64.4795C125.238 66.0218 126.942 68.2067 127.894 70.7424C128.846 73.2782 129.003 76.0442 128.342 78.6711C127.681 81.298 126.235 83.6608 124.196 85.4441H124.063Z" fill="white"/>
<path d="M228.344 64.3438C227.755 64.3438 227.191 64.5775 226.775 64.9936C226.359 65.4097 226.125 65.9741 226.125 66.5625V95.4062C226.125 95.9947 225.891 96.559 225.475 96.9751C225.059 97.3912 224.495 97.625 223.906 97.625H208.375C207.787 97.625 207.222 97.8588 206.806 98.2749C206.39 98.691 206.156 99.2553 206.156 99.8438C206.156 100.432 206.39 100.997 206.806 101.413C207.222 101.829 207.787 102.062 208.375 102.062H223.906C225.672 102.062 227.365 101.361 228.613 100.113C229.861 98.8646 230.562 97.1716 230.562 95.4062V66.5625C230.562 65.9741 230.329 65.4097 229.913 64.9936C229.497 64.5775 228.932 64.3438 228.344 64.3438Z" fill="white"/>
<path d="M141.812 97.625H104.094C103.505 97.625 102.941 97.3912 102.525 96.9751C102.109 96.559 101.875 95.9947 101.875 95.4062V93.1875C101.875 92.5991 101.641 92.0347 101.225 91.6186C100.809 91.2025 100.245 90.9688 99.6562 90.9688C99.0678 90.9688 98.5035 91.2025 98.0874 91.6186C97.6713 92.0347 97.4375 92.5991 97.4375 93.1875V95.4062C97.4375 97.1716 98.1388 98.8646 99.3871 100.113C100.635 101.361 102.328 102.062 104.094 102.062H141.812C142.401 102.062 142.965 101.829 143.381 101.413C143.797 100.997 144.031 100.432 144.031 99.8438C144.031 99.2553 143.797 98.691 143.381 98.2749C142.965 97.8588 142.401 97.625 141.812 97.625Z" fill="white"/>
<path d="M223.906 4.4375H104.094C102.328 4.4375 100.635 5.13878 99.3871 6.38707C98.1388 7.63536 97.4375 9.3284 97.4375 11.0938V57.6875C97.4375 58.2759 97.6713 58.8403 98.0874 59.2564C98.5035 59.6725 99.0678 59.9062 99.6562 59.9062C100.245 59.9062 100.809 59.6725 101.225 59.2564C101.641 58.8403 101.875 58.2759 101.875 57.6875V11.0938C101.875 10.5053 102.109 9.94095 102.525 9.52486C102.941 9.10876 103.505 8.875 104.094 8.875H158.143C154.687 11.6774 152.266 15.5537 151.264 19.8887C150.262 24.2237 150.737 28.7691 152.613 32.8036C154.489 36.8381 157.658 40.1306 161.618 42.1586C165.578 44.1865 170.103 44.8339 174.473 43.9978L187.142 52.8728C187.522 53.1505 187.98 53.3001 188.451 53.3001C188.921 53.3001 189.38 53.1505 189.76 52.8728C190.136 52.5846 190.41 52.1836 190.542 51.7285C190.673 51.2733 190.656 50.788 190.492 50.3434L185.722 37.6078C187.496 35.5789 188.841 33.2118 189.676 30.6491C190.511 28.0865 190.818 25.3813 190.58 22.6967C190.341 20.012 189.562 17.4034 188.289 15.028C187.015 12.6526 185.274 10.5595 183.17 8.875H223.906C224.495 8.875 225.059 9.10876 225.475 9.52486C225.891 9.94095 226.125 10.5053 226.125 11.0938V31.0625C226.125 31.6509 226.359 32.2153 226.775 32.6314C227.191 33.0475 227.755 33.2812 228.344 33.2812C228.932 33.2812 229.497 33.0475 229.913 32.6314C230.329 32.2153 230.562 31.6509 230.562 31.0625V11.0938C230.562 9.3284 229.861 7.63536 228.613 6.38707C227.365 5.13878 225.672 4.4375 223.906 4.4375ZM186.188 24.4062C186.196 26.4677 185.795 28.5102 185.006 30.4149C184.218 32.3196 183.058 34.0482 181.595 35.5C181.313 35.7869 181.115 36.1449 181.021 36.5357C180.928 36.9265 180.942 37.3354 181.062 37.7188L183.813 45.0406L176.225 39.7378C175.851 39.4666 175.401 39.3192 174.938 39.3162C174.762 39.2949 174.583 39.2949 174.406 39.3162C171.262 40.0983 167.951 39.8774 164.939 38.6845C161.926 37.4916 159.362 35.3864 157.606 32.6636C155.849 29.9409 154.989 26.737 155.144 23.5006C155.299 20.2642 156.462 17.1573 158.471 14.6151C160.48 12.0728 163.234 10.2225 166.346 9.3232C169.459 8.42389 172.775 8.52063 175.83 9.59988C178.885 10.6791 181.527 12.6868 183.384 15.3419C185.241 17.9969 186.221 21.1663 186.188 24.4062Z" fill="white"/>
<path d="M124.062 119.812H141.812C142.401 119.812 142.965 119.579 143.381 119.163C143.797 118.747 144.031 118.182 144.031 117.594C144.031 117.005 143.797 116.441 143.381 116.025C142.965 115.609 142.401 115.375 141.812 115.375H124.062C122.297 115.375 120.604 116.076 119.356 117.325C118.108 118.573 117.406 120.266 117.406 122.031V126.469C117.406 127.057 117.64 127.622 118.056 128.038C118.472 128.454 119.037 128.688 119.625 128.688H141.812C142.401 128.688 142.965 128.454 143.381 128.038C143.797 127.622 144.031 127.057 144.031 126.469C144.031 125.88 143.797 125.316 143.381 124.9C142.965 124.484 142.401 124.25 141.812 124.25H121.844V122.031C121.844 121.443 122.078 120.878 122.494 120.462C122.91 120.046 123.474 119.812 124.062 119.812Z" fill="white"/>
<path d="M208.375 124.25H201.719V119.812H203.938C204.526 119.812 205.09 119.579 205.506 119.163C205.922 118.747 206.156 118.182 206.156 117.594C206.156 117.005 205.922 116.441 205.506 116.025C205.09 115.609 204.526 115.375 203.938 115.375H201.719V88.75H219.469C220.057 88.75 220.622 88.5162 221.038 88.1001C221.454 87.684 221.688 87.1197 221.688 86.5312C221.688 85.9428 221.454 85.3785 221.038 84.9624C220.622 84.5463 220.057 84.3125 219.469 84.3125H210.594V77.6562C210.594 75.8909 209.892 74.1979 208.644 72.9496C207.396 71.7013 205.703 71 203.938 71H159.562C156.62 71 153.799 72.1688 151.718 74.2493C149.638 76.3298 148.469 79.1515 148.469 82.0938V84.3125H137.375C136.787 84.3125 136.222 84.5463 135.806 84.9624C135.39 85.3785 135.156 85.9428 135.156 86.5312C135.156 87.1197 135.39 87.684 135.806 88.1001C136.222 88.5162 136.787 88.75 137.375 88.75H148.469V135.344C148.469 135.932 148.703 136.497 149.119 136.913C149.535 137.329 150.099 137.562 150.688 137.562C151.276 137.562 151.84 137.329 152.256 136.913C152.672 136.497 152.906 135.932 152.906 135.344V82.0938C152.906 80.3284 153.608 78.6354 154.856 77.3871C156.104 76.1388 157.797 75.4375 159.562 75.4375H197.681C197.422 76.149 197.287 76.8993 197.281 77.6562V135.344C197.281 135.932 197.515 136.497 197.931 136.913C198.347 137.329 198.912 137.562 199.5 137.562C200.088 137.562 200.653 137.329 201.069 136.913C201.485 136.497 201.719 135.932 201.719 135.344V128.688H208.375C208.963 128.688 209.528 128.454 209.944 128.038C210.36 127.622 210.594 127.057 210.594 126.469C210.594 125.88 210.36 125.316 209.944 124.9C209.528 124.484 208.963 124.25 208.375 124.25ZM206.156 77.6562V84.3125H201.719V77.6562C201.719 77.0678 201.953 76.5035 202.369 76.0874C202.785 75.6713 203.349 75.4375 203.938 75.4375C204.526 75.4375 205.09 75.6713 205.506 76.0874C205.922 76.5035 206.156 77.0678 206.156 77.6562Z" fill="white"/>
<path d="M139.594 48.8125C139.594 49.4009 139.828 49.9653 140.244 50.3814C140.66 50.7975 141.224 51.0312 141.812 51.0312H155.125C155.713 51.0312 156.278 50.7975 156.694 50.3814C157.11 49.9653 157.344 49.4009 157.344 48.8125C157.344 48.2241 157.11 47.6597 156.694 47.2436C156.278 46.8275 155.713 46.5938 155.125 46.5938H141.812C141.224 46.5938 140.66 46.8275 140.244 47.2436C139.828 47.6597 139.594 48.2241 139.594 48.8125Z" fill="white"/>
<path d="M141.812 42.1562C143.038 42.1562 144.031 41.1629 144.031 39.9375C144.031 38.7121 143.038 37.7188 141.812 37.7188C140.587 37.7188 139.594 38.7121 139.594 39.9375C139.594 41.1629 140.587 42.1562 141.812 42.1562Z" fill="white"/>
<path d="M150.688 42.1562C151.913 42.1562 152.906 41.1629 152.906 39.9375C152.906 38.7121 151.913 37.7188 150.688 37.7188C149.462 37.7188 148.469 38.7121 148.469 39.9375C148.469 41.1629 149.462 42.1562 150.688 42.1562Z" fill="white"/>
<path d="M159.562 97.625H172.875C173.463 97.625 174.028 97.3912 174.444 96.9751C174.86 96.559 175.094 95.9947 175.094 95.4062V82.0938C175.094 81.5053 174.86 80.941 174.444 80.5249C174.028 80.1088 173.463 79.875 172.875 79.875H159.562C158.974 79.875 158.41 80.1088 157.994 80.5249C157.578 80.941 157.344 81.5053 157.344 82.0938V95.4062C157.344 95.9947 157.578 96.559 157.994 96.9751C158.41 97.3912 158.974 97.625 159.562 97.625ZM161.781 84.3125H170.656V93.1875H161.781V84.3125Z" fill="white"/>
<path d="M190.625 84.3125H181.75C181.162 84.3125 180.597 84.5463 180.181 84.9624C179.765 85.3785 179.531 85.9428 179.531 86.5312C179.531 87.1197 179.765 87.684 180.181 88.1001C180.597 88.5162 181.162 88.75 181.75 88.75H190.625C191.213 88.75 191.778 88.5162 192.194 88.1001C192.61 87.684 192.844 87.1197 192.844 86.5312C192.844 85.9428 192.61 85.3785 192.194 84.9624C191.778 84.5463 191.213 84.3125 190.625 84.3125Z" fill="white"/>
<path d="M190.625 93.1875H181.75C181.162 93.1875 180.597 93.4213 180.181 93.8374C179.765 94.2535 179.531 94.8178 179.531 95.4062C179.531 95.9947 179.765 96.559 180.181 96.9751C180.597 97.3912 181.162 97.625 181.75 97.625H190.625C191.213 97.625 191.778 97.3912 192.194 96.9751C192.61 96.559 192.844 95.9947 192.844 95.4062C192.844 94.8178 192.61 94.2535 192.194 93.8374C191.778 93.4213 191.213 93.1875 190.625 93.1875Z" fill="white"/>
<path d="M190.625 102.062H159.562C158.974 102.062 158.41 102.296 157.994 102.712C157.578 103.128 157.344 103.693 157.344 104.281C157.344 104.87 157.578 105.434 157.994 105.85C158.41 106.266 158.974 106.5 159.562 106.5H190.625C191.213 106.5 191.778 106.266 192.194 105.85C192.61 105.434 192.844 104.87 192.844 104.281C192.844 103.693 192.61 103.128 192.194 102.712C191.778 102.296 191.213 102.062 190.625 102.062Z" fill="white"/>
<path d="M159.562 115.375H172.875C173.463 115.375 174.028 115.141 174.444 114.725C174.86 114.309 175.094 113.745 175.094 113.156C175.094 112.568 174.86 112.003 174.444 111.587C174.028 111.171 173.463 110.938 172.875 110.938H159.562C158.974 110.938 158.41 111.171 157.994 111.587C157.578 112.003 157.344 112.568 157.344 113.156C157.344 113.745 157.578 114.309 157.994 114.725C158.41 115.141 158.974 115.375 159.562 115.375Z" fill="white"/>
<path d="M190.625 110.938H181.75C181.162 110.938 180.597 111.171 180.181 111.587C179.765 112.003 179.531 112.568 179.531 113.156C179.531 113.745 179.765 114.309 180.181 114.725C180.597 115.141 181.162 115.375 181.75 115.375H190.625C191.213 115.375 191.778 115.141 192.194 114.725C192.61 114.309 192.844 113.745 192.844 113.156C192.844 112.568 192.61 112.003 192.194 111.587C191.778 111.171 191.213 110.938 190.625 110.938Z" fill="white"/>
<path d="M190.625 119.812H159.562C158.974 119.812 158.41 120.046 157.994 120.462C157.578 120.878 157.344 121.443 157.344 122.031C157.344 122.62 157.578 123.184 157.994 123.6C158.41 124.016 158.974 124.25 159.562 124.25H190.625C191.213 124.25 191.778 124.016 192.194 123.6C192.61 123.184 192.844 122.62 192.844 122.031C192.844 121.443 192.61 120.878 192.194 120.462C191.778 120.046 191.213 119.812 190.625 119.812Z" fill="white"/>
<path d="M145.34 28.8438H137.375C135.61 28.8438 133.917 29.545 132.668 30.7933C131.42 32.0416 130.719 33.7347 130.719 35.5V53.25C130.719 55.0154 131.42 56.7084 132.668 57.9567C133.917 59.205 135.61 59.9063 137.375 59.9063V71C137.354 71.4922 137.497 71.9775 137.783 72.3792C138.068 72.781 138.479 73.0763 138.95 73.2188C139.164 73.25 139.38 73.25 139.594 73.2188C139.959 73.2169 140.319 73.1247 140.64 72.9506C140.961 72.7764 141.234 72.5255 141.435 72.2203L149.667 59.9063H164C165.765 59.9063 167.458 59.205 168.707 57.9567C169.955 56.7084 170.656 55.0154 170.656 53.25V50.8759C170.656 50.2875 170.422 49.7231 170.006 49.307C169.59 48.8909 169.026 48.6572 168.438 48.6572C167.849 48.6572 167.285 48.8909 166.869 49.307C166.453 49.7231 166.219 50.2875 166.219 50.8759V53.25C166.219 53.8385 165.985 54.4028 165.569 54.8189C165.153 55.235 164.588 55.4688 164 55.4688H148.469C148.103 55.4706 147.744 55.5628 147.423 55.737C147.101 55.9111 146.828 56.162 146.627 56.4672L141.812 63.6781V57.6875C141.812 57.0991 141.579 56.5347 141.163 56.1186C140.747 55.7025 140.182 55.4688 139.594 55.4688H137.375C136.787 55.4688 136.222 55.235 135.806 54.8189C135.39 54.4028 135.156 53.8385 135.156 53.25V35.5C135.156 34.9116 135.39 34.3472 135.806 33.9311C136.222 33.515 136.787 33.2813 137.375 33.2813H145.34C145.929 33.2813 146.493 33.0475 146.909 32.6314C147.325 32.2153 147.559 31.6509 147.559 31.0625C147.559 30.4741 147.325 29.9097 146.909 29.4936C146.493 29.0775 145.929 28.8438 145.34 28.8438Z" fill="white"/>
</svg>
