<svg width="291" height="251" viewBox="0 0 291 251" fill="none" xmlns="http://www.w3.org/2000/svg">
<path d="M26.754 186.5L28.767 182.177C26.457 180.659 23.223 179.669 19.989 179.669C14.643 179.669 11.046 182.309 11.046 186.5C11.046 194.684 23.355 192.143 23.355 196.499C23.355 197.918 22.068 198.71 19.923 198.71C17.481 198.71 14.115 197.357 11.739 195.245L9.66 199.502C12.267 201.713 16.062 203.165 19.857 203.165C24.972 203.165 28.899 200.723 28.899 196.202C28.932 187.886 16.623 190.262 16.623 186.005C16.623 184.751 17.811 184.124 19.56 184.124C21.408 184.124 24.312 185.048 26.754 186.5ZM44.2677 185.246V194.024C44.2677 196.598 42.7827 198.512 40.3407 198.545C38.2947 198.545 37.0077 197.192 37.0077 194.948V185.246H31.9257V196.4C31.9257 200.591 34.4007 203.198 38.3277 203.198C41.0007 203.198 43.0467 202.109 44.2677 199.865V203H49.3167V185.246H44.2677ZM65.0959 185.081C62.6869 185.081 60.7399 186.071 59.4859 187.853V178.514H54.4039V203H59.4859V200.426C60.7729 202.208 62.7199 203.198 65.1949 203.198C70.1779 203.198 73.4449 199.601 73.4449 194.222C73.4449 188.744 70.0789 185.081 65.0959 185.081ZM63.9079 198.974C61.3009 198.974 59.4859 196.994 59.4859 194.057C59.4859 191.186 61.3009 189.173 63.9079 189.173C66.5149 189.173 68.2969 191.219 68.2969 194.057C68.2969 196.961 66.5149 198.974 63.9079 198.974ZM84.4205 185.081C79.0085 185.081 75.2795 188.711 75.2795 194.189C75.2795 199.568 78.8765 203.198 84.5525 203.198C87.7535 203.198 90.3605 202.043 92.1425 200.063L89.4695 197.357C88.2485 198.578 86.6645 199.238 84.9815 199.238C82.7045 199.238 80.9885 197.918 80.3945 195.674H93.1325C93.5615 189.206 90.6575 185.081 84.4205 185.081ZM80.2955 192.671C80.6915 190.328 82.2095 188.81 84.4535 188.81C86.7965 188.81 88.3145 190.328 88.3805 192.671H80.2955ZM108.922 177.656C107.47 177.656 106.447 178.712 106.447 180.197C106.447 181.649 107.47 182.738 108.922 182.738C110.374 182.738 111.397 181.649 111.397 180.197C111.397 178.712 110.374 177.656 108.922 177.656ZM106.381 185.246V203H111.463V185.246H106.381ZM139.835 185.048C136.832 185.081 134.588 186.401 133.433 189.14C132.575 186.566 130.43 185.048 127.427 185.048C124.754 185.081 122.675 186.137 121.421 188.315V185.246H116.339V203H121.421V194.222C121.421 191.648 122.906 189.734 125.381 189.701C127.46 189.701 128.78 191.054 128.78 193.331V203H133.829V194.222C133.829 191.648 135.314 189.734 137.756 189.701C139.868 189.701 141.188 191.054 141.188 193.331V203H146.237V191.846C146.237 187.688 143.762 185.048 139.835 185.048ZM165.908 203L165.875 191.417C165.842 187.424 163.103 185.048 158.351 185.048C155.249 185.048 152.972 185.774 150.332 187.094L151.916 190.592C153.764 189.569 155.612 189.041 157.196 189.041C159.638 189.041 160.892 190.13 160.892 192.011V192.341H156.008C151.652 192.374 149.243 194.354 149.243 197.687C149.243 200.921 151.553 203.231 155.348 203.231C157.823 203.231 159.737 202.406 160.925 200.921V203H165.908ZM156.767 199.601C155.051 199.601 153.995 198.71 153.995 197.357C153.995 195.938 154.952 195.344 156.899 195.344H160.892V196.928C160.595 198.446 158.912 199.601 156.767 199.601ZM181.87 185.246V187.655C180.649 186.005 178.801 185.048 176.392 185.081C171.871 185.081 168.769 188.48 168.769 193.496C168.769 198.644 171.937 202.076 176.524 202.076C178.867 202.076 180.682 201.152 181.87 199.502V201.515C181.87 203.924 180.022 205.475 177.118 205.475C175.105 205.475 173.224 204.848 171.607 203.693L169.726 207.257C171.772 208.643 174.445 209.6 177.448 209.6C183.124 209.6 186.919 206.399 186.919 201.35V185.246H181.87ZM177.712 198.215C175.204 198.215 173.554 196.334 173.521 193.628C173.554 190.922 175.237 189.008 177.712 189.008C180.187 189.008 181.87 190.889 181.87 193.628C181.87 196.334 180.187 198.215 177.712 198.215ZM199.179 185.081C193.767 185.081 190.038 188.711 190.038 194.189C190.038 199.568 193.635 203.198 199.311 203.198C202.512 203.198 205.119 202.043 206.901 200.063L204.228 197.357C203.007 198.578 201.423 199.238 199.74 199.238C197.463 199.238 195.747 197.918 195.153 195.674H207.891C208.32 189.206 205.416 185.081 199.179 185.081ZM195.054 192.671C195.45 190.328 196.968 188.81 199.212 188.81C201.555 188.81 203.073 190.328 203.139 192.671H195.054ZM222.467 185.048C219.695 185.081 217.583 186.137 216.329 188.348V185.246H211.247V203H216.329V194.255C216.329 191.648 217.847 189.734 220.388 189.701C222.566 189.701 223.886 191.087 223.886 193.331V203H228.968V191.846C228.968 187.688 226.427 185.048 222.467 185.048ZM240.977 185.081C235.565 185.081 231.836 188.711 231.836 194.189C231.836 199.568 235.433 203.198 241.109 203.198C244.31 203.198 246.917 202.043 248.699 200.063L246.026 197.357C244.805 198.578 243.221 199.238 241.538 199.238C239.261 199.238 237.545 197.918 236.951 195.674H249.689C250.118 189.206 247.214 185.081 240.977 185.081ZM236.852 192.671C237.248 190.328 238.766 188.81 241.01 188.81C243.353 188.81 244.871 190.328 244.937 192.671H236.852ZM264.232 190.46L265.981 186.995C264.001 185.741 261.493 185.015 259.051 185.015C255.19 185.015 252.055 186.896 252.055 190.559C252.055 196.796 261.262 195.278 261.262 198.116C261.262 199.073 260.305 199.502 259.018 199.502C257.071 199.502 254.695 198.71 252.847 197.291L251.197 200.723C253.21 202.34 256.015 203.198 258.886 203.198C262.912 203.198 266.113 201.284 266.113 197.654C266.146 191.384 256.774 192.737 256.774 190.064C256.774 189.14 257.632 188.744 258.82 188.744C260.305 188.744 262.285 189.371 264.232 190.46ZM19.065 225.081C13.653 225.081 9.924 228.711 9.924 234.189C9.924 239.568 13.521 243.198 19.197 243.198C22.398 243.198 25.005 242.043 26.787 240.063L24.114 237.357C22.893 238.578 21.309 239.238 19.626 239.238C17.349 239.238 15.633 237.918 15.039 235.674H27.777C28.206 229.206 25.302 225.081 19.065 225.081ZM14.94 232.671C15.336 230.328 16.854 228.81 19.098 228.81C21.441 228.81 22.959 230.328 23.025 232.671H14.94ZM43.567 217.656C42.115 217.656 41.092 218.712 41.092 220.197C41.092 221.649 42.115 222.738 43.567 222.738C45.019 222.738 46.042 221.649 46.042 220.197C46.042 218.712 45.019 217.656 43.567 217.656ZM41.026 225.246V243H46.108V225.246H41.026ZM62.204 225.048C59.432 225.081 57.32 226.137 56.066 228.348V225.246H50.984V243H56.066V234.255C56.066 231.648 57.584 229.734 60.125 229.701C62.303 229.701 63.623 231.087 63.623 233.331V243H68.705V231.846C68.705 227.688 66.164 225.048 62.204 225.048ZM81.2094 222.474C81.9354 222.474 82.7604 222.738 83.4204 223.233L85.2354 219.537C83.9814 218.712 82.2324 218.283 80.5824 218.283C77.0184 218.283 74.0484 220.395 74.0484 224.355V226.038H71.6724V229.569H74.0484V243H79.0974V229.569H83.2884V226.038H79.0974V224.553C79.0974 223.134 80.0214 222.474 81.2094 222.474ZM93.0665 225.081C87.3575 225.081 83.5295 228.678 83.5295 234.123C83.5295 239.535 87.3575 243.198 93.0665 243.198C98.7425 243.198 102.57 239.535 102.57 234.123C102.57 228.678 98.7425 225.081 93.0665 225.081ZM93.0665 229.305C95.6735 229.305 97.4885 231.285 97.4885 234.189C97.4885 237.093 95.6735 239.073 93.0665 239.073C90.4265 239.073 88.6115 237.093 88.6115 234.189C88.6115 231.285 90.4265 229.305 93.0665 229.305ZM111.012 228.447V225.246H105.93V243H111.012V234.453C111.012 231.45 113.256 229.503 116.886 229.833V225.048C114.246 225.081 112.233 226.269 111.012 228.447ZM143.155 225.048C140.152 225.081 137.908 226.401 136.753 229.14C135.895 226.566 133.75 225.048 130.747 225.048C128.074 225.081 125.995 226.137 124.741 228.315V225.246H119.659V243H124.741V234.222C124.741 231.648 126.226 229.734 128.701 229.701C130.78 229.701 132.1 231.054 132.1 233.331V243H137.149V234.222C137.149 231.648 138.634 229.734 141.076 229.701C143.188 229.701 144.508 231.054 144.508 233.331V243H149.557V231.846C149.557 227.688 147.082 225.048 143.155 225.048ZM169.227 243L169.194 231.417C169.161 227.424 166.422 225.048 161.67 225.048C158.568 225.048 156.291 225.774 153.651 227.094L155.235 230.592C157.083 229.569 158.931 229.041 160.515 229.041C162.957 229.041 164.211 230.13 164.211 232.011V232.341H159.327C154.971 232.374 152.562 234.354 152.562 237.687C152.562 240.921 154.872 243.231 158.667 243.231C161.142 243.231 163.056 242.406 164.244 240.921V243H169.227ZM160.086 239.601C158.37 239.601 157.314 238.71 157.314 237.357C157.314 235.938 158.271 235.344 160.218 235.344H164.211V236.928C163.914 238.446 162.231 239.601 160.086 239.601ZM185.453 231.285L188.885 228.81C187.301 226.434 184.595 225.081 181.196 225.081C175.751 225.081 172.088 228.744 172.088 234.189C172.088 239.568 175.751 243.198 181.13 243.198C184.76 243.198 187.532 241.746 189.017 239.271L185.519 236.895C184.628 238.281 183.209 238.974 181.394 238.974C178.919 238.974 177.17 237.027 177.17 234.156C177.17 231.318 178.919 229.404 181.394 229.404C183.143 229.371 184.496 230.097 185.453 231.285ZM194.742 217.656C193.29 217.656 192.267 218.712 192.267 220.197C192.267 221.649 193.29 222.738 194.742 222.738C196.194 222.738 197.217 221.649 197.217 220.197C197.217 218.712 196.194 217.656 194.742 217.656ZM192.201 225.246V243H197.283V225.246H192.201ZM211.036 217.788L207.538 223.167H211.564L215.755 219.537L211.036 217.788ZM210.178 225.081C204.469 225.081 200.641 228.678 200.641 234.123C200.641 239.535 204.469 243.198 210.178 243.198C215.854 243.198 219.682 239.535 219.682 234.123C219.682 228.678 215.854 225.081 210.178 225.081ZM210.178 229.305C212.785 229.305 214.6 231.285 214.6 234.189C214.6 237.093 212.785 239.073 210.178 239.073C207.538 239.073 205.723 237.093 205.723 234.189C205.723 231.285 207.538 229.305 210.178 229.305ZM234.262 225.048C231.49 225.081 229.378 226.137 228.124 228.348V225.246H223.042V243H228.124V234.255C228.124 231.648 229.642 229.734 232.183 229.701C234.361 229.701 235.681 231.087 235.681 233.331V243H240.763V231.846C240.763 227.688 238.222 225.048 234.262 225.048ZM246.568 238.05C245.116 238.05 244.027 239.106 244.027 240.657C244.027 242.175 245.116 243.297 246.568 243.297C248.053 243.297 249.109 242.175 249.109 240.657C249.109 239.106 248.053 238.05 246.568 238.05Z" fill="white"/>
<path d="M26.28 103.81L3.87 127.03V139H52.74V124.42H27.72L39.06 113.08C46.08 105.97 51.39 98.95 51.39 91.84C51.39 81.76 41.76 75.01 28.89 75.01C19.35 75.01 10.26 78.7 1.71 84.73L8.73 98.23C14.67 93.28 21.06 90.22 26.01 90.22C29.7 90.22 31.77 91.75 31.77 94.63C31.77 97.06 29.34 100.66 26.28 103.81ZM66.9769 122.8C62.0269 122.8 58.5169 126.22 58.5169 131.17C58.5169 136.21 62.0269 139.72 66.9769 139.72C72.0169 139.72 75.5269 136.21 75.5269 131.17C75.5269 126.22 72.0169 122.8 66.9769 122.8Z" fill="white"/>
<path d="M233.344 115.375H231.125V37.7188C231.125 37.1303 230.891 36.566 230.475 36.1499C230.059 35.7338 229.495 35.5 228.906 35.5H226.688C226.099 35.5 225.535 35.7338 225.119 36.1499C224.703 36.566 224.469 37.1303 224.469 37.7188C224.469 38.3072 224.703 38.8715 225.119 39.2876C225.535 39.7037 226.099 39.9375 226.688 39.9375V115.375H111.312V95.4062C111.312 94.8178 111.079 94.2535 110.663 93.8374C110.247 93.4213 109.682 93.1875 109.094 93.1875C108.505 93.1875 107.941 93.4213 107.525 93.8374C107.109 94.2535 106.875 94.8178 106.875 95.4062V115.375H104.656C104.068 115.375 103.503 115.609 103.087 116.025C102.671 116.441 102.438 117.005 102.438 117.594V126.469C102.441 129.41 103.611 132.23 105.691 134.309C107.77 136.389 110.59 137.559 113.531 137.562H224.469C227.41 137.559 230.23 136.389 232.309 134.309C234.389 132.23 235.559 129.41 235.562 126.469V117.594C235.562 117.005 235.329 116.441 234.913 116.025C234.497 115.609 233.932 115.375 233.344 115.375ZM231.125 126.469C231.125 128.234 230.424 129.927 229.175 131.175C227.927 132.424 226.234 133.125 224.469 133.125H113.531C111.766 133.125 110.073 132.424 108.825 131.175C107.576 129.927 106.875 128.234 106.875 126.469V119.812H180.094V124.25H155.688C155.099 124.25 154.535 124.484 154.119 124.9C153.703 125.316 153.469 125.88 153.469 126.469C153.469 127.057 153.703 127.622 154.119 128.038C154.535 128.454 155.099 128.688 155.688 128.688H182.312C182.901 128.688 183.465 128.454 183.881 128.038C184.297 127.622 184.531 127.057 184.531 126.469V119.812H231.125V126.469Z" fill="white"/>
<path d="M129.062 17.75C130.288 17.75 131.281 16.7566 131.281 15.5312C131.281 14.3059 130.288 13.3125 129.062 13.3125C127.837 13.3125 126.844 14.3059 126.844 15.5312C126.844 16.7566 127.837 17.75 129.062 17.75Z" fill="white"/>
<path d="M137.938 17.75C139.163 17.75 140.156 16.7566 140.156 15.5312C140.156 14.3059 139.163 13.3125 137.938 13.3125C136.712 13.3125 135.719 14.3059 135.719 15.5312C135.719 16.7566 136.712 17.75 137.938 17.75Z" fill="white"/>
<path d="M146.812 17.75C148.038 17.75 149.031 16.7566 149.031 15.5312C149.031 14.3059 148.038 13.3125 146.812 13.3125C145.587 13.3125 144.594 14.3059 144.594 15.5312C144.594 16.7566 145.587 17.75 146.812 17.75Z" fill="white"/>
<path d="M206.719 17.75C207.307 17.75 207.872 17.5162 208.288 17.1001C208.704 16.684 208.938 16.1197 208.938 15.5312C208.938 14.9428 208.704 14.3785 208.288 13.9624C207.872 13.5463 207.307 13.3125 206.719 13.3125H162.344C161.755 13.3125 161.191 13.5463 160.775 13.9624C160.359 14.3785 160.125 14.9428 160.125 15.5312C160.125 16.1197 160.359 16.684 160.775 17.1001C161.191 17.5162 161.755 17.75 162.344 17.75H206.719Z" fill="white"/>
<path d="M211.156 24.4062C211.156 23.8178 210.922 23.2535 210.506 22.8374C210.09 22.4213 209.526 22.1875 208.938 22.1875H129.062C128.474 22.1875 127.91 22.4213 127.494 22.8374C127.078 23.2535 126.844 23.8178 126.844 24.4062C126.844 24.9947 127.078 25.559 127.494 25.9751C127.91 26.3912 128.474 26.625 129.062 26.625H208.938C209.526 26.625 210.09 26.3912 210.506 25.9751C210.922 25.559 211.156 24.9947 211.156 24.4062Z" fill="white"/>
<path d="M204.5 46.5938C205.088 46.5938 205.653 46.36 206.069 45.9439C206.485 45.5278 206.719 44.9634 206.719 44.375V35.5C206.719 34.9116 206.485 34.3472 206.069 33.9311C205.653 33.515 205.088 33.2812 204.5 33.2812H133.5C132.912 33.2812 132.347 33.515 131.931 33.9311C131.515 34.3472 131.281 34.9116 131.281 35.5V93.1875C131.282 93.6795 131.446 94.1574 131.748 94.5459C132.05 94.9345 132.472 95.2116 132.949 95.3338C133.426 95.456 133.929 95.4163 134.381 95.221C134.832 95.0257 135.206 94.6857 135.444 94.2547L157.906 53.4164L178.561 90.9688H144.594C144.005 90.9688 143.441 91.2025 143.025 91.6186C142.609 92.0347 142.375 92.5991 142.375 93.1875C142.375 93.7759 142.609 94.3403 143.025 94.7564C143.441 95.1725 144.005 95.4062 144.594 95.4062H204.5C205.088 95.4062 205.653 95.1725 206.069 94.7564C206.485 94.3403 206.719 93.7759 206.719 93.1875V53.25C206.719 52.6616 206.485 52.0972 206.069 51.6811C205.653 51.265 205.088 51.0312 204.5 51.0312C203.912 51.0312 203.347 51.265 202.931 51.6811C202.515 52.0972 202.281 52.6616 202.281 53.25V90.9688H183.624L176.151 77.3789L182.312 66.598L193.156 85.5705C193.296 85.8308 193.487 86.0602 193.718 86.2454C193.949 86.4307 194.214 86.5679 194.498 86.6491C194.783 86.7303 195.081 86.7538 195.374 86.7183C195.668 86.6827 195.951 86.5888 196.208 86.442C196.465 86.2953 196.69 86.0987 196.87 85.8637C197.049 85.6288 197.18 85.3603 197.255 85.074C197.329 84.7878 197.346 84.4895 197.303 84.1968C197.261 83.9041 197.16 83.6228 197.007 83.3695L184.238 61.0156C184.028 60.6971 183.742 60.4356 183.406 60.2547C183.07 60.0739 182.694 59.9792 182.312 59.9792C181.931 59.9792 181.555 60.0739 181.219 60.2547C180.883 60.4356 180.597 60.6971 180.387 61.0156L173.644 72.8149L159.85 47.7431C159.642 47.4159 159.355 47.1466 159.015 46.9599C158.675 46.7733 158.294 46.6755 157.906 46.6755C157.519 46.6755 157.137 46.7733 156.797 46.9599C156.458 47.1466 156.171 47.4159 155.963 47.7431L135.719 84.5477V37.7188H202.281V44.375C202.281 44.9634 202.515 45.5278 202.931 45.9439C203.347 46.36 203.912 46.5938 204.5 46.5938Z" fill="white"/>
<path d="M182.312 46.5937C182.312 47.9102 182.703 49.1971 183.434 50.2918C184.166 51.3864 185.205 52.2395 186.422 52.7433C187.638 53.2471 188.976 53.3789 190.267 53.1221C191.559 52.8653 192.745 52.2313 193.675 51.3004C194.606 50.3695 195.24 49.1835 195.497 47.8923C195.754 46.6011 195.622 45.2628 195.118 44.0465C194.615 42.8302 193.761 41.7907 192.667 41.0593C191.572 40.3279 190.285 39.9375 188.969 39.9375C187.203 39.9375 185.51 40.6388 184.262 41.8871C183.014 43.1354 182.312 44.8284 182.312 46.5937ZM191.188 46.5937C191.188 47.0326 191.057 47.4615 190.814 47.8264C190.57 48.1913 190.223 48.4757 189.818 48.6436C189.412 48.8115 188.966 48.8555 188.536 48.7699C188.105 48.6843 187.71 48.4729 187.4 48.1626C187.09 47.8523 186.878 47.457 186.793 47.0266C186.707 46.5962 186.751 46.1501 186.919 45.7447C187.087 45.3392 187.371 44.9927 187.736 44.7489C188.101 44.5051 188.53 44.375 188.969 44.375C189.557 44.375 190.122 44.6088 190.538 45.0249C190.954 45.441 191.188 46.0053 191.188 46.5937Z" fill="white"/>
<path d="M211.156 128.688C212.382 128.688 213.375 127.694 213.375 126.469C213.375 125.243 212.382 124.25 211.156 124.25C209.931 124.25 208.938 125.243 208.938 126.469C208.938 127.694 209.931 128.688 211.156 128.688Z" fill="white"/>
<path d="M220.031 128.688C221.257 128.688 222.25 127.694 222.25 126.469C222.25 125.243 221.257 124.25 220.031 124.25C218.806 124.25 217.812 125.243 217.812 126.469C217.812 127.694 218.806 128.688 220.031 128.688Z" fill="white"/>
<path d="M109.094 88.75C109.682 88.75 110.247 88.5162 110.663 88.1001C111.079 87.6841 111.312 87.1197 111.312 86.5312V39.9375H117.969V104.281C117.969 104.87 118.203 105.434 118.619 105.85C119.035 106.266 119.599 106.5 120.188 106.5H217.812C218.401 106.5 218.965 106.266 219.381 105.85C219.797 105.434 220.031 104.87 220.031 104.281V77.6562C220.031 77.0678 219.797 76.5034 219.381 76.0874C218.965 75.6713 218.401 75.4375 217.812 75.4375C217.224 75.4375 216.66 75.6713 216.244 76.0874C215.828 76.5034 215.594 77.0678 215.594 77.6562V102.062H122.406V8.875H215.594V68.7812C215.594 69.3697 215.828 69.9341 216.244 70.3501C216.66 70.7662 217.224 71 217.812 71C218.401 71 218.965 70.7662 219.381 70.3501C219.797 69.9341 220.031 69.3697 220.031 68.7812V6.65625C220.031 6.0678 219.797 5.50345 219.381 5.08736C218.965 4.67126 218.401 4.4375 217.812 4.4375H120.188C119.599 4.4375 119.035 4.67126 118.619 5.08736C118.203 5.50345 117.969 6.0678 117.969 6.65625V35.5H109.094C108.505 35.5 107.941 35.7338 107.525 36.1499C107.109 36.566 106.875 37.1303 106.875 37.7188V86.5312C106.875 87.1197 107.109 87.6841 107.525 88.1001C107.941 88.5162 108.505 88.75 109.094 88.75Z" fill="white"/>
</svg>
