<svg width="215" height="251" viewBox="0 0 215 251" fill="none" xmlns="http://www.w3.org/2000/svg">
<path d="M32.272 187.259L35.308 183.563C33.031 181.22 29.533 179.735 26.2 179.735C19.204 179.735 13.891 184.751 13.891 191.417C13.891 198.116 19.105 203.231 26.002 203.231C29.368 203.231 32.899 201.614 35.341 199.106L32.272 195.773C30.622 197.423 28.345 198.479 26.266 198.479C22.306 198.479 19.237 195.377 19.237 191.351C19.237 187.325 22.306 184.256 26.266 184.256C28.411 184.256 30.688 185.444 32.272 187.259ZM43.4371 188.447V185.246H38.3551V203H43.4371V194.453C43.4371 191.45 45.6811 189.503 49.3111 189.833V185.048C46.6711 185.081 44.6581 186.269 43.4371 188.447ZM59.7066 185.081C54.2946 185.081 50.5656 188.711 50.5656 194.189C50.5656 199.568 54.1626 203.198 59.8386 203.198C63.0396 203.198 65.6466 202.043 67.4286 200.063L64.7556 197.357C63.5346 198.578 61.9506 199.238 60.2676 199.238C57.9906 199.238 56.2746 197.918 55.6806 195.674H68.4186C68.8476 189.206 65.9436 185.081 59.7066 185.081ZM55.5816 192.671C55.9776 190.328 57.4956 188.81 59.7396 188.81C62.0826 188.81 63.6006 190.328 63.6666 192.671H55.5816ZM87.053 203L87.02 191.417C86.987 187.424 84.248 185.048 79.496 185.048C76.394 185.048 74.117 185.774 71.477 187.094L73.061 190.592C74.909 189.569 76.757 189.041 78.341 189.041C80.783 189.041 82.037 190.13 82.037 192.011V192.341H77.153C72.797 192.374 70.388 194.354 70.388 197.687C70.388 200.921 72.698 203.231 76.493 203.231C78.968 203.231 80.882 202.406 82.07 200.921V203H87.053ZM77.912 199.601C76.196 199.601 75.14 198.71 75.14 197.357C75.14 195.938 76.097 195.344 78.044 195.344H82.037V196.928C81.74 198.446 80.057 199.601 77.912 199.601ZM111.259 198.281C110.335 198.71 109.543 198.941 108.883 198.941C107.794 198.974 107.167 198.38 107.167 196.895V189.569H111.985V186.038H107.167V181.154H102.118V186.038H99.6428V189.536H102.118V197.753C102.118 201.416 104.527 203.231 107.695 203.231C109.345 203.231 110.995 202.769 112.315 202.01L111.259 198.281ZM127.191 185.246V194.024C127.191 196.598 125.706 198.512 123.264 198.545C121.218 198.545 119.931 197.192 119.931 194.948V185.246H114.849V196.4C114.849 200.591 117.324 203.198 121.251 203.198C123.924 203.198 125.97 202.109 127.191 199.865V203H132.24V185.246H127.191ZM27.289 231.285L30.721 228.81C29.137 226.434 26.431 225.081 23.032 225.081C17.587 225.081 13.924 228.744 13.924 234.189C13.924 239.568 17.587 243.198 22.966 243.198C26.596 243.198 29.368 241.746 30.853 239.271L27.355 236.895C26.464 238.281 25.045 238.974 23.23 238.974C20.755 238.974 19.006 237.027 19.006 234.156C19.006 231.318 20.755 229.404 23.23 229.404C24.979 229.371 26.332 230.097 27.289 231.285ZM48.8646 243L48.8316 231.417C48.7986 227.424 46.0596 225.048 41.3076 225.048C38.2056 225.048 35.9286 225.774 33.2886 227.094L34.8726 230.592C36.7206 229.569 38.5686 229.041 40.1526 229.041C42.5946 229.041 43.8486 230.13 43.8486 232.011V232.341H38.9646C34.6086 232.374 32.1996 234.354 32.1996 237.687C32.1996 240.921 34.5096 243.231 38.3046 243.231C40.7796 243.231 42.6936 242.406 43.8816 240.921V243H48.8646ZM39.7236 239.601C38.0076 239.601 36.9516 238.71 36.9516 237.357C36.9516 235.938 37.9086 235.344 39.8556 235.344H43.8486V236.928C43.5516 238.446 41.8686 239.601 39.7236 239.601ZM76.7398 225.048C73.7368 225.081 71.4928 226.401 70.3378 229.14C69.4798 226.566 67.3348 225.048 64.3318 225.048C61.6588 225.081 59.5798 226.137 58.3258 228.315V225.246H53.2438V243H58.3258V234.222C58.3258 231.648 59.8108 229.734 62.2858 229.701C64.3648 229.701 65.6848 231.054 65.6848 233.331V243H70.7338V234.222C70.7338 231.648 72.2188 229.734 74.6608 229.701C76.7728 229.701 78.0928 231.054 78.0928 233.331V243H83.1418V231.846C83.1418 227.688 80.6668 225.048 76.7398 225.048ZM98.3898 225.081C95.9808 225.081 94.0338 226.071 92.7798 227.853V225.246H87.6978V249.402H92.7798V240.426C94.0668 242.208 96.0138 243.198 98.4888 243.198C103.472 243.198 106.739 239.601 106.739 234.222C106.739 228.744 103.373 225.081 98.3898 225.081ZM97.2018 238.974C94.5948 238.974 92.7798 236.994 92.7798 234.057C92.7798 231.186 94.5948 229.173 97.2018 229.173C99.8088 229.173 101.591 231.219 101.591 234.057C101.591 236.961 99.8088 238.974 97.2018 238.974ZM125.37 243L125.337 231.417C125.304 227.424 122.565 225.048 117.813 225.048C114.711 225.048 112.434 225.774 109.794 227.094L111.378 230.592C113.226 229.569 115.074 229.041 116.658 229.041C119.1 229.041 120.354 230.13 120.354 232.011V232.341H115.47C111.114 232.374 108.705 234.354 108.705 237.687C108.705 240.921 111.015 243.231 114.81 243.231C117.285 243.231 119.199 242.406 120.387 240.921V243H125.37ZM116.229 239.601C114.513 239.601 113.457 238.71 113.457 237.357C113.457 235.938 114.414 235.344 116.361 235.344H120.354V236.928C120.057 238.446 118.374 239.601 116.229 239.601ZM137.439 220.956C138.462 220.956 139.287 222.573 141.3 222.573C143.511 222.573 144.6 220.956 144.6 217.656H141.465C141.465 218.613 141.102 219.108 140.376 219.108C139.386 219.108 138.429 217.458 136.515 217.458C134.304 217.458 133.215 219.108 133.215 222.441H136.35C136.35 221.451 136.713 220.956 137.439 220.956ZM140.97 225.048C138.198 225.081 136.086 226.137 134.832 228.348V225.246H129.75V243H134.832V234.255C134.832 231.648 136.35 229.734 138.891 229.701C141.069 229.701 142.389 231.087 142.389 233.331V243H147.471V231.846C147.471 227.688 144.93 225.048 140.97 225.048ZM167.136 243L167.103 231.417C167.07 227.424 164.331 225.048 159.579 225.048C156.477 225.048 154.2 225.774 151.56 227.094L153.144 230.592C154.992 229.569 156.84 229.041 158.424 229.041C160.866 229.041 162.12 230.13 162.12 232.011V232.341H157.236C152.88 232.374 150.471 234.354 150.471 237.687C150.471 240.921 152.781 243.231 156.576 243.231C159.051 243.231 160.965 242.406 162.153 240.921V243H167.136ZM157.995 239.601C156.279 239.601 155.223 238.71 155.223 237.357C155.223 235.938 156.18 235.344 158.127 235.344H162.12V236.928C161.823 238.446 160.14 239.601 157.995 239.601ZM172.934 238.05C171.482 238.05 170.393 239.106 170.393 240.657C170.393 242.175 171.482 243.297 172.934 243.297C174.419 243.297 175.475 242.175 175.475 240.657C175.475 239.106 174.419 238.05 172.934 238.05Z" fill="white"/>
<path d="M7.83 75.91V90.85H19.35V139H38.07V75.91H7.83ZM66.9769 122.8C62.0269 122.8 58.5169 126.22 58.5169 131.17C58.5169 136.21 62.0269 139.72 66.9769 139.72C72.0169 139.72 75.5269 136.21 75.5269 131.17C75.5269 126.22 72.0169 122.8 66.9769 122.8Z" fill="white"/>
<path d="M86.375 78.375C87.0049 78.375 87.609 78.1248 88.0544 77.6794C88.4998 77.234 88.75 76.6299 88.75 76V14.25H183.75V73.625C183.75 74.2549 184 74.859 184.446 75.3044C184.891 75.7498 185.495 76 186.125 76C186.755 76 187.359 75.7498 187.804 75.3044C188.25 74.859 188.5 74.2549 188.5 73.625V11.875C188.5 11.2451 188.25 10.641 187.804 10.1956C187.359 9.75022 186.755 9.5 186.125 9.5H100.625V4.75H198V73.625C198 74.2549 198.25 74.859 198.696 75.3044C199.141 75.7498 199.745 76 200.375 76C201.005 76 201.609 75.7498 202.054 75.3044C202.5 74.859 202.75 74.2549 202.75 73.625V2.375C202.75 1.74511 202.5 1.14102 202.054 0.695621C201.609 0.250222 201.005 0 200.375 0H98.25C97.6201 0 97.016 0.250222 96.5706 0.695621C96.1252 1.14102 95.875 1.74511 95.875 2.375V9.5H86.375C85.7451 9.5 85.141 9.75022 84.6956 10.1956C84.2502 10.641 84 11.2451 84 11.875V76C84 76.6299 84.2502 77.234 84.6956 77.6794C85.141 78.1248 85.7451 78.375 86.375 78.375Z" fill="white"/>
<path d="M186.125 137.75H88.75V85.5C88.75 84.8701 88.4998 84.266 88.0544 83.8206C87.609 83.3752 87.0049 83.125 86.375 83.125C85.7451 83.125 85.141 83.3752 84.6956 83.8206C84.2502 84.266 84 84.8701 84 85.5V140.125C84 140.755 84.2502 141.359 84.6956 141.804C85.141 142.25 85.7451 142.5 86.375 142.5H186.125C186.755 142.5 187.359 142.25 187.804 141.804C188.25 141.359 188.5 140.755 188.5 140.125C188.5 139.495 188.25 138.891 187.804 138.446C187.359 138 186.755 137.75 186.125 137.75Z" fill="white"/>
<path d="M212.25 128.25H181.375V85.5H212.25C212.88 85.5 213.484 85.2498 213.929 84.8044C214.375 84.359 214.625 83.7549 214.625 83.125C214.625 82.4951 214.375 81.891 213.929 81.4456C213.484 81.0002 212.88 80.75 212.25 80.75H179C178.37 80.75 177.766 81.0002 177.321 81.4456C176.875 81.891 176.625 82.4951 176.625 83.125V85.5H172.326L163.921 79.1683L157.307 67.7136C156.412 66.1245 154.935 64.9441 153.188 64.4206C151.441 63.8971 149.559 64.0712 147.937 64.9064C146.799 65.4978 145.793 66.3134 144.979 67.3042C144.164 68.295 143.559 69.4404 143.199 70.6714C142.84 71.9024 142.733 73.1935 142.885 74.4668C143.038 75.7402 143.447 76.9694 144.087 78.0805L148.379 85.5H136.25C134.875 85.501 133.53 85.8997 132.376 86.6483C131.223 87.3968 130.311 88.4631 129.75 89.7185C129.189 90.9739 129.003 92.3648 129.215 93.7233C129.427 95.0819 130.028 96.3501 130.944 97.375C129.773 98.6799 129.125 100.372 129.125 102.125C129.125 103.878 129.773 105.57 130.944 106.875C129.773 108.18 129.125 109.872 129.125 111.625C129.125 113.378 129.773 115.07 130.944 116.375C130.028 117.4 129.427 118.668 129.215 120.027C129.003 121.385 129.189 122.776 129.75 124.032C130.311 125.287 131.223 126.353 132.376 127.102C133.53 127.85 134.875 128.249 136.25 128.25H169.5C170.13 128.25 170.734 128 171.179 127.554C171.625 127.109 171.875 126.505 171.875 125.875C171.875 125.245 171.625 124.641 171.179 124.196C170.734 123.75 170.13 123.5 169.5 123.5H136.25C135.62 123.5 135.016 123.25 134.571 122.804C134.125 122.359 133.875 121.755 133.875 121.125C133.875 120.495 134.125 119.891 134.571 119.446C135.016 119 135.62 118.75 136.25 118.75C136.88 118.75 137.484 118.5 137.929 118.054C138.375 117.609 138.625 117.005 138.625 116.375C138.625 115.745 138.375 115.141 137.929 114.696C137.484 114.25 136.88 114 136.25 114C135.62 114 135.016 113.75 134.571 113.304C134.125 112.859 133.875 112.255 133.875 111.625C133.875 110.995 134.125 110.391 134.571 109.946C135.016 109.5 135.62 109.25 136.25 109.25C136.88 109.25 137.484 109 137.929 108.554C138.375 108.109 138.625 107.505 138.625 106.875C138.625 106.245 138.375 105.641 137.929 105.196C137.484 104.75 136.88 104.5 136.25 104.5C135.62 104.5 135.016 104.25 134.571 103.804C134.125 103.359 133.875 102.755 133.875 102.125C133.875 101.495 134.125 100.891 134.571 100.446C135.016 100 135.62 99.75 136.25 99.75C136.88 99.75 137.484 99.4998 137.929 99.0544C138.375 98.609 138.625 98.0049 138.625 97.375C138.625 96.7451 138.375 96.141 137.929 95.6956C137.484 95.2502 136.88 95 136.25 95C135.62 95 135.016 94.7498 134.571 94.3044C134.125 93.859 133.875 93.2549 133.875 92.625C133.875 91.9951 134.125 91.391 134.571 90.9456C135.016 90.5002 135.62 90.25 136.25 90.25H152.493C152.909 90.25 153.319 90.1403 153.68 89.9318C154.041 89.7233 154.341 89.4235 154.549 89.0625C154.758 88.7014 154.868 88.2919 154.868 87.875C154.868 87.4581 154.758 87.0486 154.549 86.6875L148.21 75.7055C147.89 75.1501 147.685 74.5356 147.608 73.8989C147.532 73.2623 147.585 72.6167 147.764 72.0011C147.944 71.3855 148.246 70.8126 148.653 70.317C149.06 69.8214 149.563 69.4133 150.132 69.1173C150.67 68.859 151.286 68.8158 151.855 68.9963C152.424 69.1768 152.902 69.5674 153.193 70.0886L160.05 81.9636C160.209 82.2406 160.422 82.4829 160.677 82.6761L170.103 89.7774C170.514 90.0857 171.014 90.2524 171.528 90.2524H176.625V130.625C176.625 131.255 176.875 131.859 177.321 132.304C177.766 132.75 178.37 133 179 133H212.25C212.88 133 213.484 132.75 213.929 132.304C214.375 131.859 214.625 131.255 214.625 130.625C214.625 129.995 214.375 129.391 213.929 128.946C213.484 128.5 212.88 128.25 212.25 128.25Z" fill="white"/>
<path d="M193.25 97.375C194.562 97.375 195.625 96.3117 195.625 95C195.625 93.6883 194.562 92.625 193.25 92.625C191.938 92.625 190.875 93.6883 190.875 95C190.875 96.3117 191.938 97.375 193.25 97.375Z" fill="white"/>
<path d="M202.75 97.375C204.062 97.375 205.125 96.3117 205.125 95C205.125 93.6883 204.062 92.625 202.75 92.625C201.438 92.625 200.375 93.6883 200.375 95C200.375 96.3117 201.438 97.375 202.75 97.375Z" fill="white"/>
<path d="M148.498 35.0241C148.361 34.6026 148.109 34.2277 147.77 33.9418C147.432 33.656 147.02 33.4707 146.581 33.4068L140.914 32.5826L138.387 27.4503C138.169 27.0799 137.858 26.773 137.485 26.5597C137.112 26.3464 136.689 26.2343 136.259 26.2343C135.83 26.2343 135.407 26.3464 135.034 26.5597C134.661 26.773 134.35 27.0799 134.131 27.4503L131.595 32.5826L125.928 33.4068C125.49 33.4705 125.077 33.6556 124.739 33.9414C124.4 34.2271 124.148 34.602 124.011 35.0236C123.874 35.4452 123.858 35.8966 123.964 36.327C124.07 36.7573 124.295 37.1492 124.612 37.4585L128.714 41.4556L127.745 47.0986C127.67 47.5354 127.719 47.9844 127.886 48.3948C128.053 48.8053 128.332 49.1608 128.69 49.4213C129.049 49.6817 129.473 49.8366 129.915 49.8686C130.357 49.9005 130.799 49.8081 131.191 49.6019L136.25 46.9371L141.318 49.6019C141.71 49.8081 142.153 49.9005 142.595 49.8686C143.037 49.8366 143.461 49.6817 143.819 49.4213C144.178 49.1608 144.456 48.8053 144.623 48.3948C144.79 47.9844 144.839 47.5354 144.764 47.0986L143.795 41.4556L147.887 37.4585C148.206 37.1502 148.433 36.7588 148.54 36.3285C148.648 35.8983 148.634 35.4464 148.498 35.0241ZM139.575 38.9239C139.299 39.193 139.093 39.5252 138.974 39.8918C138.855 40.2584 138.828 40.6484 138.893 41.0281L139.259 43.1656L137.359 42.1586C137.018 41.9789 136.638 41.885 136.252 41.885C135.867 41.885 135.487 41.9789 135.146 42.1586L133.246 43.1656L133.611 41.0281C133.677 40.6484 133.649 40.2584 133.53 39.8918C133.412 39.5252 133.206 39.193 132.93 38.9239L131.379 37.4158L133.516 37.1046C133.897 37.0493 134.259 36.9021 134.571 36.6758C134.882 36.4495 135.134 36.1508 135.305 35.8055L136.255 33.8651L137.205 35.8055C137.375 36.1508 137.627 36.4495 137.939 36.6758C138.25 36.9021 138.612 37.0493 138.993 37.1046L141.131 37.4158L139.575 38.9239Z" fill="white"/>
<path d="M174.623 46.8991C174.486 46.4776 174.234 46.1027 173.895 45.8168C173.557 45.531 173.145 45.3457 172.706 45.2818L167.039 44.4576L164.512 39.3253C164.294 38.9549 163.983 38.648 163.61 38.4347C163.237 38.2214 162.814 38.1093 162.384 38.1093C161.955 38.1093 161.532 38.2214 161.159 38.4347C160.786 38.648 160.475 38.9549 160.256 39.3253L157.72 44.4576L152.053 45.2818C151.615 45.3455 151.202 45.5306 150.864 45.8164C150.525 46.1021 150.273 46.477 150.136 46.8986C149.999 47.3202 149.983 47.7716 150.089 48.202C150.195 48.6323 150.42 49.0242 150.737 49.3335L154.839 53.3306L153.87 58.9736C153.795 59.4104 153.844 59.8594 154.011 60.2698C154.178 60.6803 154.457 61.0358 154.815 61.2963C155.174 61.5567 155.598 61.7116 156.04 61.7436C156.482 61.7755 156.924 61.6831 157.316 61.4769L162.375 58.8121L167.443 61.4769C167.835 61.6831 168.278 61.7755 168.72 61.7436C169.161 61.7116 169.586 61.5567 169.944 61.2963C170.303 61.0358 170.581 60.6803 170.748 60.2698C170.915 59.8594 170.964 59.4104 170.889 58.9736L169.92 53.3306L174.012 49.3335C174.331 49.0252 174.558 48.6338 174.665 48.2035C174.773 47.7733 174.759 47.3214 174.623 46.8991ZM165.7 50.7989C165.424 51.068 165.218 51.4002 165.099 51.7668C164.98 52.1334 164.953 52.5234 165.018 52.9031L165.384 55.0406L163.484 54.0336C163.143 53.8539 162.763 53.76 162.377 53.76C161.992 53.76 161.612 53.8539 161.271 54.0336L159.371 55.0406L159.736 52.9031C159.802 52.5234 159.774 52.1334 159.655 51.7668C159.537 51.4002 159.331 51.068 159.055 50.7989L157.504 49.2908L159.641 48.9796C160.022 48.9243 160.384 48.7771 160.696 48.5508C161.007 48.3245 161.259 48.0258 161.43 47.6805L162.38 45.7401L163.33 47.6805C163.5 48.0258 163.752 48.3245 164.064 48.5508C164.375 48.7771 164.737 48.9243 165.118 48.9796L167.256 49.2908L165.7 50.7989Z" fill="white"/>
<path d="M122.373 46.8991C122.236 46.4776 121.984 46.1027 121.645 45.8168C121.307 45.531 120.895 45.3457 120.456 45.2818L114.789 44.4576L112.262 39.3253C112.044 38.9549 111.733 38.648 111.36 38.4347C110.987 38.2214 110.564 38.1093 110.134 38.1093C109.705 38.1093 109.282 38.2214 108.909 38.4347C108.536 38.648 108.225 38.9549 108.006 39.3253L105.47 44.4576L99.8032 45.2818C99.3646 45.3455 98.9525 45.5306 98.6136 45.8164C98.2747 46.1021 98.0226 46.477 97.8857 46.8986C97.7487 47.3202 97.7326 47.7716 97.8389 48.202C97.9453 48.6323 98.1699 49.0242 98.4875 49.3335L102.589 53.3306L101.62 58.9736C101.545 59.4104 101.594 59.8594 101.761 60.2698C101.928 60.6803 102.207 61.0358 102.565 61.2963C102.924 61.5567 103.348 61.7116 103.79 61.7436C104.232 61.7755 104.674 61.6831 105.066 61.4769L110.125 58.8121L115.193 61.4769C115.585 61.6831 116.028 61.7755 116.47 61.7436C116.911 61.7116 117.336 61.5567 117.694 61.2963C118.053 61.0358 118.331 60.6803 118.498 60.2698C118.665 59.8594 118.714 59.4104 118.639 58.9736L117.67 53.3306L121.762 49.3335C122.081 49.0252 122.308 48.6338 122.415 48.2035C122.523 47.7733 122.509 47.3214 122.373 46.8991ZM113.45 50.7989C113.174 51.068 112.968 51.4002 112.849 51.7668C112.73 52.1334 112.703 52.5234 112.768 52.9031L113.134 55.0406L111.234 54.0336C110.893 53.8539 110.513 53.76 110.127 53.76C109.742 53.76 109.362 53.8539 109.021 54.0336L107.121 55.0406L107.486 52.9031C107.552 52.5234 107.524 52.1334 107.405 51.7668C107.287 51.4002 107.081 51.068 106.805 50.7989L105.254 49.2908L107.391 48.9796C107.772 48.9243 108.134 48.7771 108.446 48.5508C108.757 48.3245 109.009 48.0258 109.18 47.6805L110.13 45.7401L111.08 47.6805C111.25 48.0258 111.502 48.3245 111.814 48.5508C112.125 48.7771 112.487 48.9243 112.868 48.9796L115.006 49.2908L113.45 50.7989Z" fill="white"/>
<path d="M164.75 21.375C164.75 20.7451 164.5 20.141 164.054 19.6956C163.609 19.2502 163.005 19 162.375 19H110.125C109.495 19 108.891 19.2502 108.446 19.6956C108 20.141 107.75 20.7451 107.75 21.375C107.75 22.0049 108 22.609 108.446 23.0544C108.891 23.4998 109.495 23.75 110.125 23.75H162.375C163.005 23.75 163.609 23.4998 164.054 23.0544C164.5 22.609 164.75 22.0049 164.75 21.375Z" fill="white"/>
<path d="M117.25 95C117.25 94.3701 117 93.766 116.554 93.3206C116.109 92.8752 115.505 92.625 114.875 92.625H103C102.37 92.625 101.766 92.8752 101.321 93.3206C100.875 93.766 100.625 94.3701 100.625 95V106.875C100.625 107.505 100.875 108.109 101.321 108.554C101.766 109 102.37 109.25 103 109.25H114.875C115.505 109.25 116.109 109 116.554 108.554C117 108.109 117.25 107.505 117.25 106.875V95ZM112.5 104.5H105.375V97.375H112.5V104.5Z" fill="white"/>
<path d="M103 133H114.875C115.505 133 116.109 132.75 116.554 132.304C117 131.859 117.25 131.255 117.25 130.625V118.75C117.25 118.12 117 117.516 116.554 117.071C116.109 116.625 115.505 116.375 114.875 116.375H103C102.37 116.375 101.766 116.625 101.321 117.071C100.875 117.516 100.625 118.12 100.625 118.75V130.625C100.625 131.255 100.875 131.859 101.321 132.304C101.766 132.75 102.37 133 103 133ZM105.375 121.125H112.5V128.25H105.375V121.125Z" fill="white"/>
<path d="M123.826 69.73C123.627 69.4899 123.382 69.2915 123.105 69.1462C122.829 69.0009 122.526 68.9116 122.215 68.8834C121.904 68.8551 121.59 68.8885 121.292 68.9817C120.994 69.0748 120.717 69.2258 120.478 69.426L107.89 79.9116L104.672 76.6959C104.224 76.2633 103.624 76.0239 103.001 76.0293C102.379 76.0347 101.783 76.2845 101.343 76.7248C100.902 77.1652 100.653 77.7608 100.647 78.3836C100.642 79.0063 100.881 79.6062 101.314 80.0541L104.392 83.125H103C102.37 83.125 101.766 83.3752 101.321 83.8206C100.875 84.266 100.625 84.8701 100.625 85.5C100.625 86.1299 100.875 86.734 101.321 87.1794C101.766 87.6248 102.37 87.875 103 87.875H114.875C115.505 87.875 116.109 87.6248 116.554 87.1794C117 86.734 117.25 86.1299 117.25 85.5C117.25 84.8701 117 84.266 116.554 83.8206C116.109 83.3752 115.505 83.125 114.875 83.125H111.46L123.522 73.074C124.006 72.6708 124.31 72.092 124.367 71.465C124.424 70.8379 124.229 70.2139 123.826 69.73Z" fill="white"/>
</svg>
