<svg width="141" height="141" viewBox="0 0 141 141" fill="none" xmlns="http://www.w3.org/2000/svg">
<path d="M120.122 5.34403C119.549 4.77067 118.769 4.45203 117.958 4.46062C117.15 4.46634 116.377 4.78212 115.796 5.34403L72.1612 48.9767L72.04 49.0997L71.979 49.1608C71.9189 49.2524 71.8273 49.3439 71.7662 49.4346C71.7662 49.4651 71.7357 49.4651 71.7357 49.4956C71.6746 49.5863 71.6432 49.6483 71.583 49.7389C71.5516 49.7694 71.5516 49.8009 71.522 49.8305C71.4915 49.9221 71.4619 49.9831 71.4304 50.0747C71.4304 50.1053 71.3999 50.1053 71.3999 50.1348L63.6295 73.5672C63.2574 74.6577 63.5407 75.8664 64.3621 76.6754C64.9374 77.243 65.7149 77.5607 66.5239 77.5588C66.855 77.5521 67.1841 77.5016 67.4999 77.4062L90.8712 69.6062C90.9008 69.6062 90.9008 69.6062 90.9313 69.5757C91.0277 69.548 91.1212 69.507 91.2051 69.4545C91.229 69.4507 91.2509 69.4402 91.2671 69.423C91.3578 69.3629 91.4799 69.3019 91.5715 69.2398C91.6621 69.1788 91.7537 69.0872 91.8453 69.0271C91.8768 68.9975 91.9063 68.9975 91.9063 68.966C91.9369 68.9355 91.9979 68.905 92.0294 68.8449L135.692 25.1808C136.263 24.6103 136.584 23.8375 136.584 23.0323C136.584 22.2262 136.263 21.4525 135.692 20.8839L120.122 5.34403ZM75.6357 56.7776L84.259 65.4009L71.3388 69.6968L75.6357 56.7776ZM89.8962 62.4148L78.6217 51.1413L117.958 11.8036L129.232 23.0772L89.8962 62.4148Z" fill="white"/>
<path d="M112.931 61.4092C111.25 61.414 109.889 62.7754 109.884 64.4563V121.406C109.869 126.448 105.786 130.531 100.742 130.547H19.6315C14.5896 130.531 10.5045 126.448 10.4902 121.406V40.2932C10.5045 35.2512 14.5896 31.1671 19.6315 31.1518H76.5793C78.2631 31.1518 79.6264 29.7876 79.6264 28.1047C79.6264 26.4219 78.2631 25.0576 76.5793 25.0576H19.6315C11.2181 25.0614 4.39981 31.8807 4.396 40.2932V121.406C4.39981 129.818 11.2181 136.638 19.6315 136.641H100.742C109.156 136.638 115.975 129.818 115.978 121.406V64.4563C115.973 62.7754 114.612 61.414 112.931 61.4092Z" fill="white"/>
</svg>
