<svg width="79" height="79" viewBox="0 0 79 79" fill="none" xmlns="http://www.w3.org/2000/svg">
<path d="M66.986 12.2596C59.6156 4.88923 49.8157 0.830078 39.3925 0.830078C28.9686 0.830078 19.1694 4.88923 11.7989 12.2596C4.42853 19.6301 0.369385 29.4293 0.369385 39.8532C0.369385 50.2764 4.42853 60.0762 11.7989 67.4467C19.1694 74.8171 28.9686 78.8762 39.3925 78.8762C49.8157 78.8762 59.6156 74.8171 66.986 67.4467C74.3564 60.0762 78.4155 50.2764 78.4155 39.8532C78.4155 29.4293 74.3564 19.6301 66.986 12.2596ZM19.9327 68.2648C21.5648 58.8675 29.7081 51.9359 39.3925 51.9359C49.0774 51.9359 57.2201 58.8675 58.8522 68.2648C53.3116 72.0715 46.6081 74.3032 39.3925 74.3032C32.1769 74.3032 25.4733 72.0715 19.9327 68.2648ZM26.9846 34.955C26.9846 28.1128 32.5508 22.5471 39.3925 22.5471C46.2341 22.5471 51.8003 28.1134 51.8003 34.955C51.8003 41.7967 46.2341 47.3629 39.3925 47.3629C32.5508 47.3629 26.9846 41.7967 26.9846 34.955ZM62.8131 65.0929C61.5823 60.7181 59.138 56.7489 55.7118 53.6484C53.6099 51.746 51.2174 50.2449 48.6451 49.1868C53.2943 46.1542 56.374 40.9077 56.374 34.955C56.374 25.5917 48.7558 17.9741 39.3925 17.9741C30.0291 17.9741 22.4116 25.5917 22.4116 34.955C22.4116 40.9077 25.4912 46.1542 30.1398 49.1868C27.5681 50.2449 25.175 51.7454 23.0731 53.6478C19.6475 56.7483 17.2026 60.7175 15.9718 65.0923C9.19269 58.7966 4.9424 49.8126 4.9424 39.8532C4.9424 20.8573 20.3966 5.40309 39.3925 5.40309C58.3883 5.40309 73.8425 20.8573 73.8425 39.8532C73.8425 49.8132 69.5922 58.7972 62.8131 65.0929Z" fill="#C4C4C4"/>
</svg>
