<svg width="30" height="30" viewBox="0 0 30 30" fill="none" xmlns="http://www.w3.org/2000/svg">
<path d="M11.9404 21.67C9.55821 24.0555 7.15695 26.4744 4.73665 28.8742C4.37729 29.2317 3.97272 29.5915 3.51817 29.7941C2.4163 30.285 1.14308 29.8656 0.469587 28.8814C-0.215807 27.8781 -0.16821 26.665 0.726611 25.7189C2.17356 24.1937 3.67524 22.721 5.16978 21.241C6.23833 20.1829 7.33543 19.151 8.37305 18.1501C5.38158 10.9912 6.62148 5.39085 11.8738 1.91149C16.4717 -1.13415 22.7354 -0.481176 26.6122 3.4486C30.5579 7.44988 31.1243 13.6937 27.9568 18.3146C24.4489 23.4383 18.861 24.6275 11.9404 21.67ZM18.2613 19.6777C22.7045 19.6896 26.298 16.103 26.2814 11.6775C26.2647 7.32119 22.6688 3.70836 18.3303 3.6893C13.9609 3.67023 10.2745 7.35694 10.2888 11.7252C10.3055 16.084 13.899 19.6658 18.2613 19.6777Z" fill="white"/>
</svg>
