<svg width="292" height="292" viewBox="0 0 292 292" fill="none" xmlns="http://www.w3.org/2000/svg">
<g opacity="0.7">
<g clip-path="url(#clip0)">
<path d="M186.556 227.111C164.193 227.111 146 208.918 146 186.556C146 164.193 164.193 146 186.556 146C208.918 146 227.111 164.193 227.111 186.556C227.111 208.918 208.918 227.111 186.556 227.111ZM186.556 158.167C170.901 158.167 158.167 170.901 158.167 186.556C158.167 202.21 170.901 214.944 186.556 214.944C202.21 214.944 214.944 202.21 214.944 186.556C214.944 170.901 202.21 158.167 186.556 158.167Z" fill="#C4C4C4"/>
<path d="M206.54 215.192L215.143 206.589L241.503 232.949L232.9 241.552L206.54 215.192Z" fill="#C4C4C4"/>
<path d="M134.077 219H70.9721C58.6756 219 48.6665 208.999 48.6665 196.694V95.3056C48.6665 83.001 58.6756 73 70.9721 73H86.2209V85.1667H70.9721C65.3835 85.1667 60.8332 89.717 60.8332 95.3056V196.694C60.8332 202.283 65.3835 206.833 70.9721 206.833H134.077V219Z" fill="#C4C4C4"/>
<path d="M186.555 128.074H174.389V95.3056C174.389 89.717 169.838 85.1667 164.25 85.1667H149.082V73H164.25C176.546 73 186.555 83.001 186.555 95.3056V128.074Z" fill="#C4C4C4"/>
<path d="M139.917 101.389H95.3058C87.4786 101.389 81.1113 95.0215 81.1113 87.1943V70.9721C81.1113 67.6141 83.8367 64.8887 87.1947 64.8887H96.1493C98.8017 55.5366 107.424 48.6665 117.611 48.6665C127.799 48.6665 136.421 55.5366 139.073 64.8887H148.028C151.386 64.8887 154.111 67.6141 154.111 70.9721V87.1943C154.111 95.0215 147.744 101.389 139.917 101.389ZM93.278 77.0554V87.1943C93.278 88.3136 94.1864 89.2221 95.3058 89.2221H139.917C141.036 89.2221 141.945 88.3136 141.945 87.1943V77.0554H133.834C130.476 77.0554 127.75 74.3301 127.75 70.9721C127.75 65.3835 123.2 60.8332 117.611 60.8332C112.023 60.8332 107.472 65.3835 107.472 70.9721C107.472 74.3301 104.747 77.0554 101.389 77.0554H93.278Z" fill="#C4C4C4"/>
<path d="M79.0835 113.556H156.139V125.722H79.0835V113.556Z" fill="#C4C4C4"/>
<path d="M79.0835 137.889H146.162V150.056H79.0835V137.889Z" fill="#C4C4C4"/>
<path d="M79.0835 162.222H130.751V174.389H79.0835V162.222Z" fill="#C4C4C4"/>
<path d="M114.569 0H122.68V16.2222H114.569V0Z" fill="#A4AFC1"/>
<path d="M86.1807 24.3335H102.403V32.4446H86.1807V24.3335Z" fill="#A4AFC1"/>
<path d="M132.819 24.3335H149.042V32.4446H132.819V24.3335Z" fill="#A4AFC1"/>
<path d="M259.393 158.167C252.685 158.167 247.227 152.708 247.227 146C247.227 139.292 252.685 133.833 259.393 133.833C266.101 133.833 271.56 139.292 271.56 146C271.56 152.708 266.101 158.167 259.393 158.167ZM259.393 141.944C257.155 141.944 255.338 143.769 255.338 146C255.338 148.23 257.155 150.055 259.393 150.055C261.632 150.055 263.449 148.23 263.449 146C263.449 143.769 261.632 141.944 259.393 141.944Z" fill="#A4AFC1"/>
</g>
</g>
<defs>
<clipPath id="clip0">
<rect width="292" height="292" fill="white"/>
</clipPath>
</defs>
</svg>
