<svg width="37" height="37" viewBox="0 0 37 37" fill="none" xmlns="http://www.w3.org/2000/svg">
<g clip-path="url(#clip0)">
<path d="M34.1495 23.2428C33.6406 23.2428 33.2281 23.6554 33.2281 24.1643V32.3462C33.2263 33.8724 31.9898 35.1092 30.4636 35.1107H4.60746C3.08124 35.1092 1.84478 33.8724 1.84298 32.3462V8.33304C1.84478 6.80718 3.08124 5.57037 4.60746 5.56857H12.7893C13.2983 5.56857 13.7108 5.15606 13.7108 4.64708C13.7108 4.13846 13.2983 3.72559 12.7893 3.72559H4.60746C2.064 3.72847 0.00287966 5.78958 0 8.33304V32.3465C0.00287966 34.89 2.064 36.9511 4.60746 36.954H30.4636C33.007 36.9511 35.0682 34.89 35.071 32.3465V24.1643C35.071 23.6554 34.6585 23.2428 34.1495 23.2428Z" fill="#FF3300"/>
<path d="M34.7052 1.35521C33.0857 -0.264237 30.4602 -0.264237 28.8408 1.35521L12.4008 17.7952C12.2881 17.9079 12.2068 18.0475 12.1643 18.2009L10.0024 26.0058C9.91347 26.3258 10.0038 26.6685 10.2385 26.9036C10.4736 27.1383 10.8162 27.2286 11.1362 27.1401L18.9412 24.9778C19.0945 24.9353 19.2342 24.854 19.3469 24.7413L35.7865 8.30096C37.4034 6.68043 37.4034 4.05706 35.7865 2.43653L34.7052 1.35521ZM14.4086 18.3942L27.8635 4.93895L32.2028 9.27824L18.7476 22.7335L14.4086 18.3942ZM13.5418 20.1335L17.0086 23.6006L12.2132 24.9292L13.5418 20.1335ZM34.4835 6.99791L33.5062 7.9752L29.1665 3.63554L30.1442 2.65826C31.0437 1.75873 32.5023 1.75873 33.4018 2.65826L34.4835 3.73957C35.3816 4.64019 35.3816 6.09766 34.4835 6.99791Z" fill="#FF3300"/>
</g>
<defs>
<clipPath id="clip0">
<rect width="37" height="37" fill="white"/>
</clipPath>
</defs>
</svg>
