<svg width="42" height="42" viewBox="0 0 42 42" fill="none" xmlns="http://www.w3.org/2000/svg">
<path d="M16.8008 31.4492L35.5508 12.6992L32.6211 9.67188L16.8008 25.4922L9.37891 18.0703L6.44922 21L16.8008 31.4492ZM6.25391 6.35156C10.3555 2.25 15.2708 0.199219 21 0.199219C26.7292 0.199219 31.612 2.25 35.6484 6.35156C39.75 10.388 41.8008 15.2708 41.8008 21C41.8008 26.7292 39.75 31.6445 35.6484 35.7461C31.612 39.7826 26.7292 41.8008 21 41.8008C15.2708 41.8008 10.3555 39.7826 6.25391 35.7461C2.21745 31.6445 0.199219 26.7292 0.199219 21C0.199219 15.2708 2.21745 10.388 6.25391 6.35156Z" fill="#1CB19E"/>
</svg>
