<svg width="37" height="32" viewBox="0 0 37 32" fill="none" xmlns="http://www.w3.org/2000/svg">
<path d="M37 0.083188C36.6947 1.10283 36.5644 1.94254 36.203 2.6734C34.0162 7.0852 31.7306 11.4481 29.5843 15.8777C28.8456 17.4016 27.9498 18.7012 26.4029 19.4231C24.5372 20.2917 23.9467 21.6446 24.1353 23.6617C24.3351 25.8165 24.1802 28.0046 24.1802 30.2594C25.0828 30.2594 25.8933 30.2594 26.7868 30.2594C26.7868 30.868 26.7868 31.399 26.7868 32.001C17.8961 32.001 8.98283 32.001 0 32.001C0 31.4634 0 30.9347 0 30.3238C0.84193 30.3238 1.65243 30.3238 2.58192 30.3238C2.58192 26.0142 2.58192 21.7845 2.58192 17.4549C3.80328 17.4549 4.90789 17.4549 6.22579 17.4549C5.77676 16.6241 5.35467 15.9799 5.07852 15.2779C4.95055 14.9514 4.9483 14.396 5.14812 14.1494C7.12834 11.6903 9.14672 9.26222 11.1988 6.86305C11.4817 6.53206 11.9801 6.30991 12.4201 6.19218C15.1211 5.46576 17.8265 4.75268 20.5476 4.10179C21.3828 3.90186 22.0002 3.59752 22.1865 2.71116C22.6513 0.507485 23.9647 -0.130071 26.2323 0.0232089C29.6831 0.256461 33.1653 0.083188 37 0.083188ZM22.3078 13.9406C21.9171 14.2983 21.6814 14.5248 21.4344 14.7403C18.4529 17.3283 15.4668 19.9119 12.4897 22.5043C11.4884 23.3751 11.329 24.3859 12.0295 25.2167C12.703 26.0142 13.6437 26.0497 14.7259 25.3055C18.5943 22.6442 22.4694 19.994 26.3176 17.3039C26.7823 16.9795 27.2089 16.5042 27.4649 16.0043C29.7123 11.6192 31.9192 7.21404 34.1329 2.81335C34.2721 2.53567 34.3777 2.24022 34.5371 1.86479C31.9956 1.86479 29.5888 2.0314 27.2157 1.8137C25.1389 1.62487 23.8861 2.18468 23.473 4.26396C23.3069 5.10144 22.7029 5.40356 21.9059 5.59683C19.0411 6.29436 16.192 7.05188 13.3407 7.80273C12.9927 7.89381 12.5728 8.0071 12.3595 8.2559C10.5028 10.4307 8.68647 12.6366 6.88137 14.807C8.24866 17.6549 8.60789 17.8503 11.329 17.2461C11.0461 16.5797 10.7677 15.9177 10.4758 15.229C12.373 14.2094 14.1691 13.2253 15.9877 12.2812C16.2526 12.1434 16.65 12.0835 16.9284 12.1701C18.6774 12.7121 20.4039 13.3075 22.3078 13.9406ZM22.337 22.2399C19.9818 23.8572 17.7771 25.3677 15.5791 26.885C14.6788 27.507 13.7066 27.8113 12.6177 27.5359C11.2414 27.1893 10.3164 26.3385 9.9415 24.9701C9.57555 23.6417 9.93477 22.4732 10.9226 21.5246C11.7017 20.776 12.5369 20.0851 13.4507 19.2765C10.312 19.2765 7.38653 19.2765 4.47907 19.2765C4.47907 22.973 4.47907 26.5829 4.47907 30.2349C10.4534 30.2349 16.3716 30.2349 22.3347 30.2349C22.337 27.6003 22.337 25.0256 22.337 22.2399ZM18.7043 14.7425C16.1583 13.0964 14.7192 15.3179 12.8579 15.9754C13.3249 17.355 14.8157 17.9592 15.8373 17.215C16.8431 16.4797 17.7344 15.5889 18.7043 14.7425Z" fill="black"/>
</svg>
