<svg width="46" height="51" viewBox="0 0 46 51" fill="none" xmlns="http://www.w3.org/2000/svg">
<g clip-path="url(#clip0)">
<path d="M20.0065 0.155273V3.34277H42.6166V38.4053H36.9641V45.091L27.4777 38.4053H3.04892V3.34277H5.87518V0.155273H0.222656V41.5928H26.6666L39.7903 50.8445V41.5928H45.4429V0.155273H20.0065Z" fill="black"/>
<path d="M11.5274 0.155273H8.70117V3.34277H11.5274V0.155273Z" fill="black"/>
<path d="M17.1798 0.155273H14.3535V3.34277H17.1798V0.155273Z" fill="black"/>
<path d="M26.9483 15.6501L22.8319 6.24219L18.7154 15.6453L9.51172 17.153L16.1718 24.4747L14.599 34.8133L22.8319 29.9381L31.0648 34.8181L29.492 24.4795L36.1521 17.1578L26.9483 15.6501ZM27.3101 28.9914L22.8319 26.3362L18.3537 28.9914L19.2086 23.367L15.5854 19.3827L20.5921 18.5635L22.8319 13.4459L25.0717 18.5635L30.0784 19.3827L26.4552 23.367L27.3101 28.9914Z" fill="black"/>
</g>
<defs>
<clipPath id="clip0">
<rect x="0.222656" width="45.2202" height="51" fill="white"/>
</clipPath>
</defs>
</svg>
