<svg width="66" height="66" viewBox="0 0 66 66" fill="none" xmlns="http://www.w3.org/2000/svg">
<path d="M59.894 33.4141C59.212 30.451 56.7883 28.2653 53.871 27.9399C46.9644 27.1684 39.9704 27.1647 33.0106 27.1684C26.0479 27.1647 19.0554 27.1684 12.1465 27.9399C9.23073 28.266 6.80842 30.4518 6.12714 33.4141C5.15618 37.6335 5.14453 42.2394 5.14453 46.584C5.14453 50.9286 5.14453 55.5337 6.11549 59.7531C6.79677 62.7155 9.21908 64.9013 12.1363 65.2274C19.0437 65.9996 26.0362 66.0025 32.9982 65.9996C39.9609 66.0033 46.952 65.9996 53.8615 65.2274C56.7773 64.9013 59.2011 62.7155 59.8824 59.7531C60.8526 55.5337 60.8577 50.9286 60.8577 46.584C60.857 42.2387 60.8643 37.6335 59.894 33.4141ZM21.0359 36.6844H17.0035V58.1111H13.258V36.6844H9.29915V33.1747H21.0359V36.6844ZM31.2091 58.1118H27.8399V56.0847C26.5013 57.6191 25.2305 58.3673 23.9924 58.3673C22.9072 58.3673 22.1604 57.9277 21.8234 56.9865C21.64 56.4246 21.5264 55.5352 21.5264 54.2236V39.5311H24.8928V53.2111C24.8928 54.0001 24.8928 54.4099 24.9234 54.5206C25.0041 55.0432 25.2596 55.3081 25.7109 55.3081C26.3863 55.3081 27.0924 54.7877 27.8392 53.7316V39.5311H31.2084L31.2091 58.1118ZM43.9998 52.535C43.9998 54.2534 43.8841 55.4915 43.6591 56.2791C43.2093 57.6613 42.309 58.3673 40.9697 58.3673C39.7717 58.3673 38.6158 57.702 37.4898 56.3118V58.1125H34.1235V33.1747H37.4898V41.3187C38.5772 39.9801 39.7316 39.3032 40.9697 39.3032C42.309 39.3032 43.2101 40.0085 43.6591 41.3995C43.8855 42.147 43.9998 43.3756 43.9998 45.1348V52.535ZM56.706 49.435H49.9726V52.7286C49.9726 54.4485 50.5352 55.3074 51.6925 55.3074C52.5215 55.3074 53.0041 54.8568 53.1963 53.9572C53.2276 53.7745 53.272 53.0263 53.272 51.6761H56.7067V52.1674C56.7067 53.2526 56.6652 54.0001 56.6347 54.3364C56.5219 55.0817 56.2569 55.7579 55.8486 56.3533C54.9162 57.7028 53.5347 58.368 51.7762 58.368C50.0148 58.368 48.6741 57.7341 47.701 56.4654C46.9869 55.5352 46.6201 54.0707 46.6201 52.0961V45.5883C46.6201 43.602 46.9454 42.1492 47.6609 41.2102C48.6333 39.9387 49.9733 39.3054 51.6932 39.3054C53.3826 39.3054 54.7219 39.9387 55.6652 41.2102C56.3705 42.1492 56.7075 43.602 56.7075 45.5883V49.435H56.706Z" fill="#606060"/>
<path d="M51.662 42.334C50.5367 42.334 49.9727 43.1936 49.9727 44.9113V46.6305H53.339V44.9113C53.3383 43.1936 52.7756 42.334 51.662 42.334Z" fill="#606060"/>
<path d="M39.1694 42.334C38.6148 42.334 38.0529 42.596 37.4902 43.1528V54.4776C38.0521 55.0409 38.6148 55.3073 39.1694 55.3073C40.1404 55.3073 40.6339 54.4776 40.6339 52.7999V44.8691C40.6339 43.1936 40.1404 42.334 39.1694 42.334Z" fill="#606060"/>
<path d="M41.0483 25.4546C42.2893 25.4546 43.5805 24.7006 44.9351 23.1488V25.197H48.3378V6.41895H44.9351V20.7709C44.181 21.8364 43.4663 22.3634 42.7857 22.3634C42.3301 22.3634 42.0622 22.0941 41.988 21.5664C41.9465 21.455 41.9465 21.0409 41.9465 20.2439V6.41895H38.5547V21.2673C38.5547 22.5934 38.6682 23.4909 38.856 24.0593C39.1981 25.0106 39.9529 25.4546 41.0483 25.4546Z" fill="#606060"/>
<path d="M17.3615 14.9924V25.1977H21.1347V14.9924L25.6736 0H21.8582L19.2838 9.89523L16.6052 0H12.6348C13.4303 2.3357 14.2579 4.68304 15.0534 7.02092C16.2639 10.535 17.0194 13.1844 17.3615 14.9924Z" fill="#606060"/>
<path d="M30.7297 25.4551C32.4344 25.4551 33.7591 24.8139 34.6987 23.5329C35.4128 22.5932 35.7548 21.1127 35.7548 19.117V12.5415C35.7548 10.5341 35.4135 9.06669 34.6987 8.1183C33.7591 6.83363 32.4351 6.19238 30.7297 6.19238C29.0338 6.19238 27.7098 6.83363 26.768 8.1183C26.0452 9.06669 25.7031 10.5341 25.7031 12.5415V19.117C25.7031 21.1127 26.0452 22.5932 26.768 23.5329C27.7091 24.8139 29.0338 25.4551 30.7297 25.4551ZM29.1059 11.8595C29.1059 10.1221 29.6328 9.25594 30.7297 9.25594C31.8266 9.25594 32.3521 10.1214 32.3521 11.8595V19.7582C32.3521 21.4956 31.8266 22.3647 30.7297 22.3647C29.6328 22.3647 29.1059 21.4956 29.1059 19.7582V11.8595Z" fill="#606060"/>
</svg>
